Busra-Bold.ufo
<glyph name="exclam" format="2">
  <advance width="848"/>
  <unicode hex="0021"/>
  <outline>
    <component base="period" xOffset="111"/>
    <contour>
      <point x="347" y="508" type="curve"/>
      <point x="497" y="508" type="line"/>
      <point x="497" y="836"/>
      <point x="586" y="1151"/>
      <point x="586" y="1650" type="curve"/>
      <point x="492" y="1681"/>
      <point x="352" y="1681"/>
      <point x="258" y="1650" type="curve"/>
      <point x="258" y="1151"/>
      <point x="347" y="836"/>
    </contour>
  </outline>
</glyph>
<glyph name="quotedbl" format="2">
  <advance width="835"/>
  <unicode hex="0022"/>
  <outline>
    <contour>
      <point x="680" y="1156" type="line"/>
      <point x="680" y="1440" type="line"/>
      <point x="490" y="1440" type="line"/>
      <point x="490" y="1156" type="line"/>
    </contour>
    <contour>
      <point x="390" y="1156" type="line"/>
      <point x="390" y="1440" type="line"/>
      <point x="200" y="1440" type="line"/>
      <point x="200" y="1156" type="line"/>
    </contour>
  </outline>
</glyph>
<glyph name="numbersign" format="2">
  <advance width="1363"/>
  <unicode hex="0023"/>
  <outline>
    <contour>
      <point x="166" y="0" type="line"/>
      <point x="375" y="0" type="line"/>
      <point x="793" y="1640" type="line"/>
      <point x="584" y="1640" type="line"/>
    </contour>
    <contour>
      <point x="100" y="502" type="line"/>
      <point x="1263" y="502" type="line"/>
      <point x="1263" y="639" type="line"/>
      <point x="100" y="639" type="line"/>
    </contour>
    <contour>
      <point x="100" y="1001" type="line"/>
      <point x="1263" y="1001" type="line"/>
      <point x="1263" y="1138" type="line"/>
      <point x="100" y="1138" type="line"/>
    </contour>
    <contour>
      <point x="570" y="0" type="line"/>
      <point x="779" y="0" type="line"/>
      <point x="1197" y="1640" type="line"/>
      <point x="988" y="1640" type="line"/>
    </contour>
  </outline>
</glyph>
<glyph name="dollar" format="2">
  <advance width="1250"/>
  <unicode hex="0024"/>
  <outline>
    <contour>
      <point x="586" y="-200" type="line"/>
      <point x="696" y="-200" type="line"/>
      <point x="696" y="1832" type="line"/>
      <point x="580" y="1832" type="line"/>
    </contour>
    <contour>
      <point x="570" y="20" type="curve" smooth="yes"/>
      <point x="1007" y="20"/>
      <point x="1158" y="194"/>
      <point x="1158" y="440" type="curve" smooth="yes"/>
      <point x="1158" y="956"/>
      <point x="309" y="875"/>
      <point x="309" y="1248" type="curve" smooth="yes"/>
      <point x="309" y="1366"/>
      <point x="419" y="1496"/>
      <point x="672" y="1496" type="curve" smooth="yes"/>
      <point x="874" y="1496"/>
      <point x="952" y="1437"/>
      <point x="962" y="1397" type="curve"/>
      <point x="1015" y="1391" type="line"/>
      <point x="923" y="1461"/>
      <point x="831" y="1375"/>
      <point x="831" y="1301" type="curve" smooth="yes"/>
      <point x="831" y="1228"/>
      <point x="885" y="1168"/>
      <point x="967" y="1168" type="curve" smooth="yes"/>
      <point x="1048" y="1168"/>
      <point x="1118" y="1235"/>
      <point x="1118" y="1342" type="curve" smooth="yes"/>
      <point x="1118" y="1479"/>
      <point x="983" y="1612"/>
      <point x="684" y="1612" type="curve" smooth="yes"/>
      <point x="307" y="1612"/>
      <point x="122" y="1453"/>
      <point x="122" y="1227" type="curve" smooth="yes"/>
      <point x="122" y="674"/>
      <point x="967" y="774"/>
      <point x="967" y="405" type="curve" smooth="yes"/>
      <point x="967" y="260"/>
      <point x="877" y="136"/>
      <point x="574" y="136" type="curve" smooth="yes"/>
      <point x="341" y="136"/>
      <point x="259" y="233"/>
      <point x="248" y="260" type="curve"/>
      <point x="194" y="271" type="line"/>
      <point x="286" y="201"/>
      <point x="378" y="287"/>
      <point x="378" y="361" type="curve" smooth="yes"/>
      <point x="378" y="434"/>
      <point x="324" y="494"/>
      <point x="242" y="494" type="curve" smooth="yes"/>
      <point x="161" y="494"/>
      <point x="91" y="427"/>
      <point x="91" y="320" type="curve" smooth="yes"/>
      <point x="91" y="173"/>
      <point x="211" y="20"/>
    </contour>
  </outline>
</glyph>
<glyph name="percent" format="2">
  <advance width="1521"/>
  <unicode hex="0025"/>
  <outline>
    <contour>
      <point x="319" y="0" type="line"/>
      <point x="444" y="0" type="line"/>
      <point x="1202" y="1649" type="line"/>
      <point x="1077" y="1649" type="line"/>
    </contour>
    <contour>
      <point x="389" y="941" type="curve" smooth="yes"/>
      <point x="531" y="941"/>
      <point x="628" y="1022"/>
      <point x="628" y="1280" type="curve" smooth="yes"/>
      <point x="628" y="1538"/>
      <point x="561" y="1619"/>
      <point x="389" y="1619" type="curve" smooth="yes"/>
      <point x="247" y="1619"/>
      <point x="140" y="1538"/>
      <point x="140" y="1280" type="curve" smooth="yes"/>
      <point x="140" y="1022"/>
      <point x="247" y="941"/>
    </contour>
    <contour>
      <point x="389" y="1021" type="curve" smooth="yes"/>
      <point x="331" y="1021"/>
      <point x="269" y="1110"/>
      <point x="269" y="1280" type="curve" smooth="yes"/>
      <point x="269" y="1451"/>
      <point x="331" y="1529"/>
      <point x="389" y="1529" type="curve" smooth="yes"/>
      <point x="447" y="1529"/>
      <point x="509" y="1450"/>
      <point x="509" y="1280" type="curve" smooth="yes"/>
      <point x="509" y="1110"/>
      <point x="447" y="1021"/>
    </contour>
    <contour>
      <point x="1132" y="25" type="curve" smooth="yes"/>
      <point x="1274" y="25"/>
      <point x="1381" y="106"/>
      <point x="1381" y="364" type="curve" smooth="yes"/>
      <point x="1381" y="622"/>
      <point x="1304" y="703"/>
      <point x="1132" y="703" type="curve" smooth="yes"/>
      <point x="990" y="703"/>
      <point x="883" y="622"/>
      <point x="883" y="364" type="curve" smooth="yes"/>
      <point x="883" y="106"/>
      <point x="990" y="25"/>
    </contour>
    <contour>
      <point x="1132" y="105" type="curve" smooth="yes"/>
      <point x="1074" y="105"/>
      <point x="1012" y="194"/>
      <point x="1012" y="364" type="curve" smooth="yes"/>
      <point x="1012" y="535"/>
      <point x="1074" y="613"/>
      <point x="1132" y="613" type="curve" smooth="yes"/>
      <point x="1190" y="613"/>
      <point x="1252" y="534"/>
      <point x="1252" y="364" type="curve"/>
      <point x="1252" y="194"/>
      <point x="1190" y="105"/>
    </contour>
  </outline>
</glyph>
<glyph name="ampersand" format="2">
  <advance width="1779"/>
  <unicode hex="0026"/>
  <outline>
    <contour>
      <point x="1099" y="834" type="line"/>
      <point x="1194" y="834"/>
      <point x="1199" y="794"/>
      <point x="1199" y="728" type="curve" smooth="yes"/>
      <point x="1199" y="680"/>
      <point x="1143" y="562"/>
      <point x="1051" y="442" type="curve"/>
      <point x="952" y="554"/>
      <point x="863" y="676"/>
      <point x="795" y="801" type="curve"/>
      <point x="979" y="884"/>
      <point x="1166" y="978"/>
      <point x="1166" y="1159" type="curve"/>
      <point x="1166" y="1352"/>
      <point x="1003" y="1470"/>
      <point x="799" y="1470" type="curve"/>
      <point x="527" y="1470"/>
      <point x="395" y="1281"/>
      <point x="395" y="1086" type="curve"/>
      <point x="395" y="1019"/>
      <point x="429" y="913"/>
      <point x="486" y="789" type="curve"/>
      <point x="269" y="680"/>
      <point x="67" y="544"/>
      <point x="67" y="293" type="curve"/>
      <point x="67" y="99"/>
      <point x="184" y="-32"/>
      <point x="475" y="-32" type="curve"/>
      <point x="661" y="-32"/>
      <point x="825" y="31"/>
      <point x="959" y="132" type="curve"/>
      <point x="1074" y="32"/>
      <point x="1196" y="-32"/>
      <point x="1319" y="-32" type="curve"/>
      <point x="1520" y="-32"/>
      <point x="1670" y="79"/>
      <point x="1709" y="279" type="curve"/>
      <point x="1602" y="318" type="line"/>
      <point x="1554" y="202"/>
      <point x="1488" y="162"/>
      <point x="1403" y="162" type="curve"/>
      <point x="1342" y="162"/>
      <point x="1257" y="224"/>
      <point x="1159" y="321" type="curve"/>
      <point x="1205" y="369"/>
      <point x="1349" y="581"/>
      <point x="1373" y="628" type="curve"/>
      <point x="1373" y="627" type="line"/>
      <point x="1429" y="728"/>
      <point x="1488" y="834"/>
      <point x="1625" y="834" type="curve"/>
      <point x="1625" y="909" type="line"/>
      <point x="1107" y="909" type="line"/>
    </contour>
    <contour>
      <point x="843" y="239" type="curve"/>
      <point x="764" y="178"/>
      <point x="674" y="130"/>
      <point x="584" y="130" type="curve"/>
      <point x="444" y="130"/>
      <point x="358" y="241"/>
      <point x="358" y="383" type="curve"/>
      <point x="358" y="498"/>
      <point x="437" y="598"/>
      <point x="548" y="674" type="curve"/>
      <point x="629" y="527"/>
      <point x="723" y="373"/>
    </contour>
    <contour>
      <point x="671" y="1159" type="curve" smooth="yes"/>
      <point x="671" y="1252"/>
      <point x="730" y="1362"/>
      <point x="809" y="1362" type="curve"/>
      <point x="881" y="1362"/>
      <point x="937" y="1289"/>
      <point x="937" y="1166" type="curve"/>
      <point x="937" y="1047"/>
      <point x="853" y="971"/>
      <point x="737" y="906" type="curve"/>
      <point x="695" y="991"/>
      <point x="671" y="1084"/>
    </contour>
  </outline>
</glyph>
<glyph name="quotesingle" format="2">
  <advance width="442"/>
  <unicode hex="0027"/>
  <outline>
    <contour>
      <point x="275" y="1163" type="line"/>
      <point x="293" y="1397"/>
      <point x="373" y="1597"/>
      <point x="373" y="1792" type="curve"/>
      <point x="299" y="1819"/>
      <point x="143" y="1819"/>
      <point x="69" y="1792" type="curve"/>
      <point x="69" y="1597"/>
      <point x="143" y="1397"/>
      <point x="161" y="1163" type="curve"/>
    </contour>
  </outline>
</glyph>
<glyph name="parenleft" format="2">
  <advance width="975"/>
  <unicode hex="0028"/>
  <outline>
    <contour>
      <point x="300" y="720" type="curve" smooth="yes"/>
      <point x="300" y="292"/>
      <point x="652" y="-83"/>
      <point x="769" y="-139" type="curve" smooth="yes"/>
      <point x="784" y="-146"/>
      <point x="817" y="-158"/>
      <point x="840" y="-158" type="curve" smooth="yes"/>
      <point x="862" y="-158"/>
      <point x="881" y="-154"/>
      <point x="881" y="-135" type="curve" smooth="yes"/>
      <point x="881" y="-113"/>
      <point x="866" y="-94"/>
      <point x="844" y="-75" type="curve" smooth="yes"/>
      <point x="720" y="30"/>
      <point x="600" y="465"/>
      <point x="600" y="720" type="curve"/>
      <point x="600" y="975"/>
      <point x="720" y="1402"/>
      <point x="844" y="1507" type="curve"/>
      <point x="866" y="1526"/>
      <point x="881" y="1545"/>
      <point x="881" y="1567" type="curve" smooth="yes"/>
      <point x="881" y="1586"/>
      <point x="862" y="1590"/>
      <point x="840" y="1590" type="curve" smooth="yes"/>
      <point x="817" y="1590"/>
      <point x="784" y="1579"/>
      <point x="769" y="1571" type="curve"/>
      <point x="652" y="1515"/>
      <point x="300" y="1147"/>
    </contour>
  </outline>
</glyph>
<glyph name="parenright" format="2">
  <advance width="975"/>
  <unicode hex="0029"/>
  <outline>
    <contour>
      <point x="881" y="720" type="curve" smooth="yes"/>
      <point x="881" y="1147"/>
      <point x="529" y="1515"/>
      <point x="412" y="1571" type="curve"/>
      <point x="397" y="1579"/>
      <point x="364" y="1590"/>
      <point x="341" y="1590" type="curve" smooth="yes"/>
      <point x="319" y="1590"/>
      <point x="300" y="1586"/>
      <point x="300" y="1567" type="curve" smooth="yes"/>
      <point x="300" y="1545"/>
      <point x="315" y="1526"/>
      <point x="337" y="1507" type="curve" smooth="yes"/>
      <point x="461" y="1402"/>
      <point x="581" y="975"/>
      <point x="581" y="720" type="curve"/>
      <point x="581" y="465"/>
      <point x="461" y="30"/>
      <point x="337" y="-75" type="curve"/>
      <point x="315" y="-94"/>
      <point x="300" y="-113"/>
      <point x="300" y="-135" type="curve" smooth="yes"/>
      <point x="300" y="-154"/>
      <point x="319" y="-158"/>
      <point x="341" y="-158" type="curve" smooth="yes"/>
      <point x="364" y="-158"/>
      <point x="397" y="-146"/>
      <point x="412" y="-139" type="curve" smooth="yes"/>
      <point x="529" y="-83"/>
      <point x="881" y="292"/>
    </contour>
  </outline>
</glyph>
<glyph name="asterisk" format="2">
  <advance width="1188"/>
  <unicode hex="002A"/>
  <outline>
    <contour>
      <point x="539" y="1353" type="curve"/>
      <point x="460" y="1406"/>
      <point x="436" y="1451"/>
      <point x="399" y="1491" type="curve" smooth="yes"/>
      <point x="365" y="1527"/>
      <point x="314" y="1578"/>
      <point x="268" y="1578" type="curve" smooth="yes"/>
      <point x="201" y="1578"/>
      <point x="140" y="1487"/>
      <point x="140" y="1420" type="curve" smooth="yes"/>
      <point x="140" y="1351"/>
      <point x="224" y="1318"/>
      <point x="291" y="1304" type="curve" smooth="yes"/>
      <point x="349" y="1292"/>
      <point x="400" y="1304"/>
      <point x="486" y="1262" type="curve"/>
      <point x="400" y="1220"/>
      <point x="349" y="1232"/>
      <point x="291" y="1220" type="curve" smooth="yes"/>
      <point x="223" y="1207"/>
      <point x="140" y="1173"/>
      <point x="140" y="1104" type="curve" smooth="yes"/>
      <point x="140" y="1037"/>
      <point x="201" y="946"/>
      <point x="268" y="946" type="curve" smooth="yes"/>
      <point x="314" y="946"/>
      <point x="365" y="997"/>
      <point x="399" y="1033" type="curve" smooth="yes"/>
      <point x="436" y="1073"/>
      <point x="460" y="1122"/>
      <point x="539" y="1175" type="curve"/>
      <point x="532" y="1080"/>
      <point x="504" y="1034"/>
      <point x="488" y="982" type="curve" smooth="yes"/>
      <point x="475" y="940"/>
      <point x="467" y="901"/>
      <point x="467" y="867" type="curve" smooth="yes"/>
      <point x="467" y="797"/>
      <point x="537" y="773"/>
      <point x="595" y="773" type="curve" smooth="yes"/>
      <point x="654" y="773"/>
      <point x="722" y="797"/>
      <point x="722" y="867" type="curve" smooth="yes"/>
      <point x="722" y="901"/>
      <point x="718" y="940"/>
      <point x="704" y="982" type="curve" smooth="yes"/>
      <point x="685" y="1038"/>
      <point x="656" y="1080"/>
      <point x="649" y="1175" type="curve"/>
      <point x="728" y="1122"/>
      <point x="752" y="1073"/>
      <point x="789" y="1033" type="curve" smooth="yes"/>
      <point x="823" y="997"/>
      <point x="874" y="946"/>
      <point x="920" y="946" type="curve" smooth="yes"/>
      <point x="987" y="946"/>
      <point x="1048" y="1037"/>
      <point x="1048" y="1104" type="curve" smooth="yes"/>
      <point x="1048" y="1174"/>
      <point x="963" y="1207"/>
      <point x="897" y="1220" type="curve" smooth="yes"/>
      <point x="839" y="1232"/>
      <point x="788" y="1220"/>
      <point x="702" y="1262" type="curve"/>
      <point x="788" y="1304"/>
      <point x="839" y="1292"/>
      <point x="897" y="1304" type="curve" smooth="yes"/>
      <point x="964" y="1317"/>
      <point x="1048" y="1352"/>
      <point x="1048" y="1420" type="curve" smooth="yes"/>
      <point x="1048" y="1487"/>
      <point x="987" y="1578"/>
      <point x="920" y="1578" type="curve" smooth="yes"/>
      <point x="874" y="1578"/>
      <point x="823" y="1527"/>
      <point x="789" y="1491" type="curve" smooth="yes"/>
      <point x="752" y="1451"/>
      <point x="728" y="1406"/>
      <point x="649" y="1353" type="curve"/>
      <point x="656" y="1448"/>
      <point x="685" y="1487"/>
      <point x="704" y="1543" type="curve" smooth="yes"/>
      <point x="718" y="1585"/>
      <point x="722" y="1624"/>
      <point x="722" y="1658" type="curve" smooth="yes"/>
      <point x="722" y="1728"/>
      <point x="654" y="1752"/>
      <point x="595" y="1752" type="curve" smooth="yes"/>
      <point x="537" y="1752"/>
      <point x="467" y="1728"/>
      <point x="467" y="1658" type="curve" smooth="yes"/>
      <point x="467" y="1624"/>
      <point x="475" y="1585"/>
      <point x="488" y="1543" type="curve" smooth="yes"/>
      <point x="504" y="1491"/>
      <point x="532" y="1448"/>
    </contour>
  </outline>
</glyph>
<glyph name="plus" format="2">
  <advance width="1084"/>
  <unicode hex="002B"/>
  <outline>
    <contour>
      <point x="120" y="874" type="line"/>
      <point x="120" y="702" type="line"/>
      <point x="456" y="702" type="line"/>
      <point x="456" y="366" type="line"/>
      <point x="629" y="366" type="line"/>
      <point x="629" y="702" type="line"/>
      <point x="964" y="702" type="line"/>
      <point x="964" y="874" type="line"/>
      <point x="629" y="874" type="line"/>
      <point x="629" y="1210" type="line"/>
      <point x="456" y="1210" type="line"/>
      <point x="456" y="874" type="line"/>
    </contour>
  </outline>
</glyph>
<glyph name="comma" format="2">
  <advance width="750"/>
  <unicode hex="002C"/>
  <outline>
    <contour>
      <point x="140" y="-343" type="line"/>
      <point x="330" y="-322"/>
      <point x="547" y="-198"/>
      <point x="547" y="80" type="curve" smooth="yes"/>
      <point x="547" y="262"/>
      <point x="424" y="350"/>
      <point x="320" y="350" type="curve" smooth="yes"/>
      <point x="216" y="350"/>
      <point x="125" y="262"/>
      <point x="125" y="160" type="curve" smooth="yes"/>
      <point x="125" y="56"/>
      <point x="186" y="10"/>
      <point x="270" y="10" type="curve" smooth="yes"/>
      <point x="310" y="10"/>
      <point x="326" y="40"/>
      <point x="364" y="40" type="curve" smooth="yes"/>
      <point x="383" y="40"/>
      <point x="387" y="-4"/>
      <point x="387" y="-29" type="curve" smooth="yes"/>
      <point x="387" y="-112"/>
      <point x="266" y="-204"/>
      <point x="140" y="-242" type="curve"/>
    </contour>
  </outline>
</glyph>
<glyph name="hyphen" format="2">
  <advance width="1024"/>
  <unicode hex="002D"/>
  <outline>
    <contour>
      <point x="150" y="520" type="line"/>
      <point x="150" y="720" type="line"/>
      <point x="874" y="720" type="line"/>
      <point x="874" y="520" type="line"/>
    </contour>
  </outline>
</glyph>
<glyph name="period" format="2">
  <advance width="653"/>
  <unicode hex="002E"/>
  <outline>
    <contour>
      <point x="315" y="-20" type="curve" smooth="yes"/>
      <point x="428" y="-20"/>
      <point x="520" y="72"/>
      <point x="520" y="185" type="curve" smooth="yes"/>
      <point x="520" y="298"/>
      <point x="428" y="390"/>
      <point x="315" y="390" type="curve" smooth="yes"/>
      <point x="202" y="390"/>
      <point x="110" y="298"/>
      <point x="110" y="185" type="curve" smooth="yes"/>
      <point x="110" y="72"/>
      <point x="202" y="-20"/>
    </contour>
  </outline>
</glyph>
<glyph name="slash" format="2">
  <advance width="1059"/>
  <unicode hex="002F"/>
  <outline>
    <contour>
      <point x="32" y="-150" type="line"/>
      <point x="217" y="-150" type="line"/>
      <point x="1028" y="1870" type="line"/>
      <point x="843" y="1870" type="line"/>
    </contour>
  </outline>
</glyph>
<glyph name="zero" format="2">
  <advance width="1318"/>
  <unicode hex="0030"/>
  <anchor x="659" y="-110" name="LL"/>
  <anchor x="659" y="1745" name="LU"/>
  <outline>
    <contour>
      <point x="659" y="-20" type="curve" smooth="yes"/>
      <point x="974" y="-20"/>
      <point x="1232" y="125"/>
      <point x="1232" y="715" type="curve" smooth="yes"/>
      <point x="1232" y="1295"/>
      <point x="974" y="1450"/>
      <point x="659" y="1450" type="curve" smooth="yes"/>
      <point x="344" y="1450"/>
      <point x="86" y="1295"/>
      <point x="86" y="715" type="curve" smooth="yes"/>
      <point x="86" y="125"/>
      <point x="344" y="-20"/>
    </contour>
    <contour>
      <point x="659" y="117" type="curve" smooth="yes"/>
      <point x="468" y="117"/>
      <point x="386" y="290"/>
      <point x="386" y="715" type="curve" smooth="yes"/>
      <point x="386" y="1130"/>
      <point x="468" y="1313"/>
      <point x="659" y="1313" type="curve" smooth="yes"/>
      <point x="850" y="1313"/>
      <point x="932" y="1130"/>
      <point x="932" y="715" type="curve" smooth="yes"/>
      <point x="932" y="290"/>
      <point x="850" y="117"/>
    </contour>
  </outline>
</glyph>
<glyph name="one" format="2">
  <advance width="1318"/>
  <unicode hex="0031"/>
  <anchor x="685" y="-110" name="LL"/>
  <anchor x="685" y="1745" name="LU"/>
  <outline>
    <contour>
      <point x="568" y="1271" type="line"/>
      <point x="568" y="170" type="line"/>
      <point x="241" y="105" type="line"/>
      <point x="241" y="0" type="line"/>
      <point x="1210" y="0" type="line"/>
      <point x="1210" y="105" type="line"/>
      <point x="883" y="170" type="line"/>
      <point x="883" y="1450" type="line"/>
      <point x="635" y="1450" type="line"/>
      <point x="181" y="1078" type="line"/>
      <point x="181" y="941" type="line"/>
      <point x="639" y="1231" type="line"/>
    </contour>
  </outline>
</glyph>
<glyph name="two" format="2">
  <advance width="1239"/>
  <unicode hex="0032"/>
  <anchor x="577" y="-101" name="LL"/>
  <anchor x="577" y="1605" name="LU"/>
  <outline>
    <contour>
      <point x="512" y="1392" type="curve" smooth="yes"/>
      <point x="645" y="1392"/>
      <point x="739" y="1315"/>
      <point x="739" y="1128" type="curve" smooth="yes"/>
      <point x="739" y="839"/>
      <point x="400" y="440"/>
      <point x="150" y="201" type="curve"/>
      <point x="150" y="0" type="line"/>
      <point x="1108" y="0" type="line"/>
      <point x="1108" y="482" type="line"/>
      <point x="1003" y="482" type="line"/>
      <point x="970" y="280" type="line"/>
      <point x="360" y="280" type="line"/>
      <point x="368" y="193" type="line"/>
      <point x="565" y="359"/>
      <point x="1070" y="806"/>
      <point x="1070" y="1131" type="curve" smooth="yes"/>
      <point x="1070" y="1405"/>
      <point x="871" y="1527"/>
      <point x="552" y="1527" type="curve" smooth="yes"/>
      <point x="243" y="1527"/>
      <point x="110" y="1349"/>
      <point x="110" y="1208" type="curve" smooth="yes"/>
      <point x="110" y="1108"/>
      <point x="179" y="1021"/>
      <point x="280" y="1021" type="curve" smooth="yes"/>
      <point x="385" y="1021"/>
      <point x="439" y="1095"/>
      <point x="439" y="1165" type="curve" smooth="yes"/>
      <point x="439" y="1252"/>
      <point x="371" y="1302"/>
      <point x="297" y="1302" type="curve" smooth="yes"/>
      <point x="264" y="1302"/>
      <point x="229" y="1292"/>
      <point x="199" y="1272" type="curve"/>
      <point x="250" y="1256" type="line"/>
      <point x="252" y="1295"/>
      <point x="317" y="1392"/>
    </contour>
  </outline>
</glyph>
<glyph name="three" format="2">
  <advance width="1318"/>
  <unicode hex="0033"/>
  <anchor x="605" y="-110" name="LL"/>
  <anchor x="605" y="1745" name="LU"/>
  <outline>
    <contour>
      <point x="612" y="-20" type="curve" smooth="yes"/>
      <point x="988" y="-20"/>
      <point x="1179" y="170"/>
      <point x="1179" y="409" type="curve" smooth="yes"/>
      <point x="1179" y="598"/>
      <point x="1059" y="827"/>
      <point x="615" y="807" type="curve"/>
      <point x="538" y="718" type="line"/>
      <point x="721" y="741"/>
      <point x="1102" y="857"/>
      <point x="1102" y="1117" type="curve" smooth="yes"/>
      <point x="1102" y="1320"/>
      <point x="921" y="1450"/>
      <point x="616" y="1450" type="curve" smooth="yes"/>
      <point x="284" y="1450"/>
      <point x="150" y="1277"/>
      <point x="150" y="1134" type="curve" smooth="yes"/>
      <point x="150" y="1034"/>
      <point x="216" y="948"/>
      <point x="328" y="948" type="curve" smooth="yes"/>
      <point x="440" y="948"/>
      <point x="497" y="1028"/>
      <point x="497" y="1104" type="curve" smooth="yes"/>
      <point x="497" y="1199"/>
      <point x="425" y="1253"/>
      <point x="346" y="1253" type="curve" smooth="yes"/>
      <point x="311" y="1253"/>
      <point x="274" y="1242"/>
      <point x="242" y="1220" type="curve"/>
      <point x="284" y="1167" type="line"/>
      <point x="313" y="1235"/>
      <point x="420" y="1313"/>
      <point x="564" y="1313" type="curve" smooth="yes"/>
      <point x="677" y="1313"/>
      <point x="802" y="1260"/>
      <point x="802" y="1113" type="curve" smooth="yes"/>
      <point x="802" y="981"/>
      <point x="734" y="872"/>
      <point x="417" y="808" type="curve"/>
      <point x="417" y="683" type="line"/>
      <point x="840" y="683"/>
      <point x="879" y="540"/>
      <point x="879" y="389" type="curve" smooth="yes"/>
      <point x="879" y="203"/>
      <point x="761" y="119"/>
      <point x="588" y="119" type="curve" smooth="yes"/>
      <point x="413" y="119"/>
      <point x="297" y="169"/>
      <point x="278" y="260" type="curve"/>
      <point x="208" y="191" type="line"/>
      <point x="240" y="169"/>
      <point x="277" y="158"/>
      <point x="312" y="158" type="curve" smooth="yes"/>
      <point x="391" y="158"/>
      <point x="463" y="212"/>
      <point x="463" y="307" type="curve" smooth="yes"/>
      <point x="463" y="383"/>
      <point x="406" y="463"/>
      <point x="294" y="463" type="curve" smooth="yes"/>
      <point x="186" y="463"/>
      <point x="113" y="372"/>
      <point x="113" y="269" type="curve" smooth="yes"/>
      <point x="113" y="135"/>
      <point x="248" y="-20"/>
    </contour>
  </outline>
</glyph>
<glyph name="four" format="2">
  <advance width="1318"/>
  <unicode hex="0034"/>
  <anchor x="615" y="-110" name="LL"/>
  <anchor x="615" y="1745" name="LU"/>
  <outline>
    <contour>
      <point x="214" y="569" type="line"/>
      <point x="829" y="1465" type="line"/>
      <point x="735" y="1475" type="line"/>
      <point x="735" y="140" type="line"/>
      <point x="545" y="105" type="line"/>
      <point x="545" y="0" type="line"/>
      <point x="1220" y="0" type="line"/>
      <point x="1220" y="105" type="line"/>
      <point x="1040" y="140" type="line"/>
      <point x="1040" y="1660" type="line"/>
      <point x="762" y="1660" type="line"/>
      <point x="76" y="660" type="line"/>
      <point x="76" y="494" type="line"/>
      <point x="1224" y="494" type="line"/>
      <point x="1224" y="629" type="line"/>
      <point x="182" y="629" type="line"/>
    </contour>
  </outline>
</glyph>
<glyph name="five" format="2">
  <advance width="1318"/>
  <unicode hex="0035"/>
  <anchor x="632" y="-110" name="LL"/>
  <anchor x="632" y="1745" name="LU"/>
  <outline>
    <contour>
      <point x="572" y="-20" type="curve" smooth="yes"/>
      <point x="855" y="-20"/>
      <point x="1163" y="95"/>
      <point x="1163" y="487" type="curve" smooth="yes"/>
      <point x="1163" y="807"/>
      <point x="902" y="926"/>
      <point x="645" y="926" type="curve" smooth="yes"/>
      <point x="486" y="926"/>
      <point x="387" y="895"/>
      <point x="340" y="881" type="curve"/>
      <point x="340" y="1170" type="line"/>
      <point x="951" y="1170" type="line"/>
      <point x="986" y="970" type="line"/>
      <point x="1091" y="970" type="line"/>
      <point x="1091" y="1450" type="line"/>
      <point x="197" y="1450" type="line"/>
      <point x="197" y="703" type="line"/>
      <point x="288" y="740"/>
      <point x="398" y="786"/>
      <point x="532" y="786" type="curve" smooth="yes"/>
      <point x="771" y="786"/>
      <point x="863" y="633"/>
      <point x="863" y="464" type="curve" smooth="yes"/>
      <point x="863" y="197"/>
      <point x="722" y="112"/>
      <point x="566" y="112" type="curve" smooth="yes"/>
      <point x="429" y="112"/>
      <point x="292" y="190"/>
      <point x="278" y="260" type="curve"/>
      <point x="208" y="182" type="line"/>
      <point x="240" y="160"/>
      <point x="277" y="149"/>
      <point x="312" y="149" type="curve" smooth="yes"/>
      <point x="391" y="149"/>
      <point x="463" y="203"/>
      <point x="463" y="298" type="curve" smooth="yes"/>
      <point x="463" y="374"/>
      <point x="406" y="454"/>
      <point x="294" y="454" type="curve" smooth="yes"/>
      <point x="193" y="454"/>
      <point x="125" y="368"/>
      <point x="125" y="269" type="curve" smooth="yes"/>
      <point x="125" y="136"/>
      <point x="297" y="-20"/>
    </contour>
  </outline>
</glyph>
<glyph name="six" format="2">
  <advance width="1318"/>
  <unicode hex="0036"/>
  <anchor x="668" y="-110" name="LL"/>
  <anchor x="623" y="1745" name="LU"/>
  <outline>
    <contour>
      <point x="422" y="804" type="curve" smooth="yes"/>
      <point x="422" y="1276"/>
      <point x="459" y="1527"/>
      <point x="756" y="1518" type="curve" smooth="yes"/>
      <point x="913" y="1513"/>
      <point x="952" y="1472"/>
      <point x="971" y="1407" type="curve"/>
      <point x="1065" y="1446" type="line"/>
      <point x="957" y="1506"/>
      <point x="837" y="1421"/>
      <point x="837" y="1312" type="curve" smooth="yes"/>
      <point x="837" y="1233"/>
      <point x="896" y="1175"/>
      <point x="992" y="1175" type="curve" smooth="yes"/>
      <point x="1092" y="1175"/>
      <point x="1158" y="1257"/>
      <point x="1158" y="1363" type="curve" smooth="yes"/>
      <point x="1158" y="1500"/>
      <point x="1002" y="1655"/>
      <point x="729" y="1655" type="curve" smooth="yes"/>
      <point x="331" y="1655"/>
      <point x="122" y="1353"/>
      <point x="122" y="829" type="curve" smooth="yes"/>
      <point x="122" y="360"/>
      <point x="203" y="-20"/>
      <point x="702" y="-20" type="curve" smooth="yes"/>
      <point x="1051" y="-20"/>
      <point x="1223" y="181"/>
      <point x="1223" y="544" type="curve" smooth="yes"/>
      <point x="1223" y="879"/>
      <point x="1016" y="1033"/>
      <point x="732" y="1033" type="curve" smooth="yes"/>
      <point x="552" y="1033"/>
      <point x="372" y="930"/>
      <point x="372" y="750" type="curve"/>
      <point x="428" y="583" type="line"/>
      <point x="408" y="747"/>
      <point x="547" y="895"/>
      <point x="722" y="895" type="curve" smooth="yes"/>
      <point x="866" y="895"/>
      <point x="920" y="813"/>
      <point x="920" y="544" type="curve" smooth="yes"/>
      <point x="920" y="308"/>
      <point x="866" y="118"/>
      <point x="692" y="118" type="curve" smooth="yes"/>
      <point x="514" y="118"/>
      <point x="422" y="265"/>
    </contour>
  </outline>
</glyph>
<glyph name="seven" format="2">
  <advance width="1318"/>
  <unicode hex="0037"/>
  <anchor x="589" y="-110" name="LL"/>
  <anchor x="589" y="1745" name="LU"/>
  <outline>
    <contour>
      <point x="725" y="0" type="line"/>
      <point x="725" y="111" type="line"/>
      <point x="1150" y="1361" type="line"/>
      <point x="1150" y="1440" type="line"/>
      <point x="161" y="1440" type="line"/>
      <point x="161" y="925" type="line"/>
      <point x="266" y="925" type="line"/>
      <point x="301" y="1160" type="line"/>
      <point x="1013" y="1160" type="line"/>
      <point x="984" y="1403" type="line"/>
      <point x="480" y="0" type="line"/>
    </contour>
  </outline>
</glyph>
<glyph name="eight" format="2">
  <advance width="1318"/>
  <unicode hex="0038"/>
  <anchor x="625" y="-110" name="LL"/>
  <anchor x="625" y="1745" name="LU"/>
  <outline>
    <contour>
      <point x="625" y="-20" type="curve" smooth="yes"/>
      <point x="1006" y="-20"/>
      <point x="1167" y="111"/>
      <point x="1167" y="443" type="curve" smooth="yes"/>
      <point x="1167" y="756"/>
      <point x="936" y="930"/>
      <point x="625" y="930" type="curve" smooth="yes"/>
      <point x="314" y="930"/>
      <point x="80" y="756"/>
      <point x="80" y="443" type="curve" smooth="yes"/>
      <point x="80" y="111"/>
      <point x="244" y="-20"/>
    </contour>
    <contour>
      <point x="625" y="123" type="curve" smooth="yes"/>
      <point x="468" y="123"/>
      <point x="398" y="204"/>
      <point x="398" y="443" type="curve" smooth="yes"/>
      <point x="398" y="703"/>
      <point x="483" y="793"/>
      <point x="625" y="793" type="curve" smooth="yes"/>
      <point x="767" y="793"/>
      <point x="852" y="703"/>
      <point x="852" y="443" type="curve" smooth="yes"/>
      <point x="852" y="204"/>
      <point x="782" y="123"/>
    </contour>
    <contour>
      <point x="625" y="793" type="curve" smooth="yes"/>
      <point x="876" y="793"/>
      <point x="1117" y="961"/>
      <point x="1117" y="1224" type="curve" smooth="yes"/>
      <point x="1117" y="1527"/>
      <point x="876" y="1660"/>
      <point x="625" y="1660" type="curve" smooth="yes"/>
      <point x="374" y="1660"/>
      <point x="133" y="1527"/>
      <point x="133" y="1224" type="curve" smooth="yes"/>
      <point x="133" y="961"/>
      <point x="374" y="793"/>
    </contour>
    <contour>
      <point x="625" y="930" type="curve" smooth="yes"/>
      <point x="503" y="930"/>
      <point x="448" y="1044"/>
      <point x="448" y="1224" type="curve" smooth="yes"/>
      <point x="448" y="1444"/>
      <point x="498" y="1517"/>
      <point x="625" y="1517" type="curve" smooth="yes"/>
      <point x="752" y="1517"/>
      <point x="802" y="1454"/>
      <point x="802" y="1224" type="curve" smooth="yes"/>
      <point x="802" y="1044"/>
      <point x="747" y="930"/>
    </contour>
  </outline>
</glyph>
<glyph name="nine" format="2">
  <advance width="1318"/>
  <unicode hex="0039"/>
  <anchor x="620" y="-110" name="LL"/>
  <anchor x="565" y="1745" name="LU"/>
  <outline>
    <contour>
      <point x="616" y="1644" type="curve" smooth="yes"/>
      <point x="247" y="1644"/>
      <point x="88" y="1443"/>
      <point x="88" y="1080" type="curve" smooth="yes"/>
      <point x="88" y="745"/>
      <point x="302" y="591"/>
      <point x="586" y="591" type="curve" smooth="yes"/>
      <point x="766" y="591"/>
      <point x="946" y="694"/>
      <point x="946" y="874" type="curve"/>
      <point x="884" y="1041" type="line"/>
      <point x="904" y="877"/>
      <point x="771" y="729"/>
      <point x="596" y="729" type="curve" smooth="yes"/>
      <point x="484" y="729"/>
      <point x="403" y="815"/>
      <point x="403" y="1080" type="curve" smooth="yes"/>
      <point x="403" y="1316"/>
      <point x="432" y="1506"/>
      <point x="626" y="1506" type="curve" smooth="yes"/>
      <point x="804" y="1506"/>
      <point x="891" y="1359"/>
      <point x="891" y="820" type="curve" smooth="yes"/>
      <point x="891" y="288"/>
      <point x="840" y="103"/>
      <point x="575" y="103" type="curve" smooth="yes"/>
      <point x="474" y="103"/>
      <point x="361" y="163"/>
      <point x="332" y="246" type="curve"/>
      <point x="223" y="198" type="line"/>
      <point x="255" y="176"/>
      <point x="292" y="165"/>
      <point x="327" y="165" type="curve" smooth="yes"/>
      <point x="406" y="165"/>
      <point x="478" y="209"/>
      <point x="478" y="304" type="curve" smooth="yes"/>
      <point x="478" y="380"/>
      <point x="421" y="458"/>
      <point x="309" y="458" type="curve" smooth="yes"/>
      <point x="208" y="458"/>
      <point x="140" y="374"/>
      <point x="140" y="275" type="curve" smooth="yes"/>
      <point x="140" y="76"/>
      <point x="345" y="-31"/>
      <point x="612" y="-31" type="curve" smooth="yes"/>
      <point x="1017" y="-31"/>
      <point x="1206" y="311"/>
      <point x="1206" y="795" type="curve" smooth="yes"/>
      <point x="1206" y="1264"/>
      <point x="1115" y="1644"/>
    </contour>
  </outline>
</glyph>
<glyph name="semicolon" format="2">
  <advance width="850"/>
  <unicode hex="003B"/>
  <outline>
    <contour>
      <point x="200" y="90" type="curve" smooth="yes"/>
      <point x="200" y="184"/>
      <point x="276" y="250"/>
      <point x="370" y="250" type="curve" smooth="yes"/>
      <point x="474" y="250"/>
      <point x="590" y="174"/>
      <point x="590" y="10" type="curve" smooth="yes"/>
      <point x="590" y="-268"/>
      <point x="390" y="-332"/>
      <point x="230" y="-373" type="curve"/>
      <point x="230" y="-304" type="line"/>
      <point x="356" y="-266"/>
      <point x="467" y="-182"/>
      <point x="467" y="-99" type="curve"/>
      <point x="467" y="-74"/>
      <point x="459" y="-50"/>
      <point x="444" y="-50" type="curve" smooth="yes"/>
      <point x="416" y="-50"/>
      <point x="390" y="-80"/>
      <point x="350" y="-80" type="curve" smooth="yes"/>
      <point x="266" y="-80"/>
      <point x="200" y="-14"/>
    </contour>
    <contour>
      <point x="200" y="880" type="curve" smooth="yes"/>
      <point x="200" y="974"/>
      <point x="276" y="1050"/>
      <point x="370" y="1050" type="curve" smooth="yes"/>
      <point x="464" y="1050"/>
      <point x="540" y="974"/>
      <point x="540" y="880" type="curve" smooth="yes"/>
      <point x="540" y="786"/>
      <point x="464" y="710"/>
      <point x="370" y="710" type="curve" smooth="yes"/>
      <point x="276" y="710"/>
      <point x="200" y="786"/>
    </contour>
  </outline>
</glyph>
<glyph name="less" format="2">
  <advance width="1199"/>
  <unicode hex="003C"/>
  <outline>
    <contour>
      <point x="1079" y="334" type="line"/>
      <point x="1079" y="519" type="line"/>
      <point x="339" y="837" type="line"/>
      <point x="339" y="739" type="line"/>
      <point x="1079" y="1057" type="line"/>
      <point x="1079" y="1242" type="line"/>
      <point x="120" y="836" type="line"/>
      <point x="120" y="740" type="line"/>
    </contour>
  </outline>
</glyph>
<glyph name="equal" format="2">
  <advance width="1114"/>
  <unicode hex="003D"/>
  <outline>
    <contour>
      <point x="120" y="770" type="line"/>
      <point x="120" y="597" type="line"/>
      <point x="994" y="597" type="line"/>
      <point x="994" y="770" type="line"/>
    </contour>
    <contour>
      <point x="120" y="1103" type="line"/>
      <point x="120" y="930" type="line"/>
      <point x="994" y="930" type="line"/>
      <point x="994" y="1103" type="line"/>
    </contour>
  </outline>
</glyph>
<glyph name="greater" format="2">
  <advance width="1199"/>
  <unicode hex="003E"/>
  <outline>
    <contour>
      <point x="120" y="334" type="line"/>
      <point x="1079" y="740" type="line"/>
      <point x="1079" y="836" type="line"/>
      <point x="120" y="1242" type="line"/>
      <point x="120" y="1057" type="line"/>
      <point x="860" y="739" type="line"/>
      <point x="860" y="837" type="line"/>
      <point x="120" y="519" type="line"/>
    </contour>
  </outline>
</glyph>
<glyph name="question" format="2">
  <advance width="1306"/>
  <unicode hex="003F"/>
  <guideline x="612" y="1675" angle="270"/>
  <outline>
    <component base="period" xOffset="278"/>
    <contour>
      <point x="1098" y="1292" type="curve" smooth="yes"/>
      <point x="1098" y="1545"/>
      <point x="917" y="1675"/>
      <point x="612" y="1675" type="curve" smooth="yes"/>
      <point x="344" y="1675"/>
      <point x="143" y="1544"/>
      <point x="143" y="1376" type="curve" smooth="yes"/>
      <point x="143" y="1270"/>
      <point x="209" y="1178"/>
      <point x="309" y="1178" type="curve" smooth="yes"/>
      <point x="405" y="1178"/>
      <point x="464" y="1236"/>
      <point x="464" y="1315" type="curve" smooth="yes"/>
      <point x="464" y="1424"/>
      <point x="344" y="1509"/>
      <point x="236" y="1449" type="curve"/>
      <point x="280" y="1392" type="line"/>
      <point x="309" y="1460"/>
      <point x="426" y="1538"/>
      <point x="540" y="1538" type="curve" smooth="yes"/>
      <point x="663" y="1538"/>
      <point x="783" y="1485"/>
      <point x="783" y="1288" type="curve" smooth="yes"/>
      <point x="783" y="975"/>
      <point x="504" y="972"/>
      <point x="504" y="508" type="curve"/>
      <point x="654" y="508" type="line"/>
      <point x="654" y="921"/>
      <point x="1098" y="907"/>
    </contour>
  </outline>
</glyph>
<glyph name="at" format="2">
  <advance width="2073"/>
  <unicode hex="0040"/>
  <outline>
    <contour>
      <point x="844" y="115" type="curve" smooth="yes"/>
      <point x="1087" y="115"/>
      <point x="1223" y="293"/>
      <point x="1253" y="371" type="curve"/>
      <point x="1209" y="453" type="line"/>
      <point x="1127" y="338"/>
      <point x="1058" y="242"/>
      <point x="962" y="242" type="curve" smooth="yes"/>
      <point x="841" y="242"/>
      <point x="792" y="325"/>
      <point x="792" y="634" type="curve" smooth="yes"/>
      <point x="792" y="870"/>
      <point x="812" y="1029"/>
      <point x="963" y="1029" type="curve" smooth="yes"/>
      <point x="1074" y="1029"/>
      <point x="1139" y="960"/>
      <point x="1188" y="871" type="curve"/>
      <point x="1243" y="972" type="line"/>
      <point x="1156" y="1088"/>
      <point x="1037" y="1160"/>
      <point x="904" y="1160" type="curve" smooth="yes"/>
      <point x="627" y="1160"/>
      <point x="484" y="989"/>
      <point x="484" y="634" type="curve" smooth="yes"/>
      <point x="484" y="231"/>
      <point x="654" y="115"/>
    </contour>
    <contour>
      <point x="1787" y="374" type="curve" smooth="yes"/>
      <point x="1858" y="503"/>
      <point x="1880" y="666"/>
      <point x="1880" y="861" type="curve" smooth="yes"/>
      <point x="1880" y="1295"/>
      <point x="1518" y="1615"/>
      <point x="1032" y="1615" type="curve" smooth="yes"/>
      <point x="487" y="1615"/>
      <point x="107" y="1207"/>
      <point x="99" y="632" type="curve" smooth="yes"/>
      <point x="91" y="81"/>
      <point x="464" y="-331"/>
      <point x="1002" y="-331" type="curve" smooth="yes"/>
      <point x="1454" y="-331"/>
      <point x="1751" y="-200"/>
      <point x="1948" y="177" type="curve"/>
      <point x="1831" y="249" type="line"/>
      <point x="1640" y="-108"/>
      <point x="1372" y="-191"/>
      <point x="1002" y="-191" type="curve" smooth="yes"/>
      <point x="543" y="-191"/>
      <point x="239" y="149"/>
      <point x="239" y="632" type="curve" smooth="yes"/>
      <point x="239" y="1126"/>
      <point x="568" y="1475"/>
      <point x="1032" y="1475" type="curve" smooth="yes"/>
      <point x="1495" y="1475"/>
      <point x="1740" y="1167"/>
      <point x="1740" y="861" type="curve" smooth="yes"/>
      <point x="1740" y="579"/>
      <point x="1684" y="459"/>
      <point x="1626" y="378" type="curve" smooth="yes"/>
      <point x="1580" y="314"/>
      <point x="1541" y="290"/>
      <point x="1498" y="290" type="curve" smooth="yes"/>
      <point x="1470" y="290"/>
      <point x="1456" y="299"/>
      <point x="1456" y="375" type="curve" smooth="yes"/>
      <point x="1456" y="1174" type="line"/>
      <point x="1156" y="1174" type="line"/>
      <point x="1156" y="272" type="line" smooth="yes"/>
      <point x="1156" y="181"/>
      <point x="1261" y="105"/>
      <point x="1404" y="105" type="curve" smooth="yes"/>
      <point x="1602" y="105"/>
      <point x="1745" y="298"/>
    </contour>
  </outline>
</glyph>
<glyph name="A" format="2">
  <advance width="1627"/>
  <unicode hex="0041"/>
  <anchor x="743" y="-110" name="LL"/>
  <anchor x="742" y="1745" name="LU"/>
  <outline>
    <contour>
      <point x="-4" y="0" type="line"/>
      <point x="521" y="0" type="line"/>
      <point x="521" y="105" type="line"/>
      <point x="233" y="157" type="line"/>
      <point x="305" y="39" type="line"/>
      <point x="825" y="1650" type="line"/>
      <point x="659" y="1650" type="line"/>
      <point x="140" y="45" type="line"/>
      <point x="263" y="167" type="line"/>
      <point x="-4" y="105" type="line"/>
    </contour>
    <contour>
      <point x="425" y="683" type="line"/>
      <point x="405" y="533" type="line"/>
      <point x="1114" y="533" type="line"/>
      <point x="1092" y="683" type="line"/>
    </contour>
    <contour>
      <point x="969" y="0" type="line"/>
      <point x="1647" y="0" type="line"/>
      <point x="1647" y="105" type="line"/>
      <point x="1395" y="167" type="line"/>
      <point x="1503" y="44" type="line"/>
      <point x="985" y="1650" type="line"/>
      <point x="665" y="1650" type="line"/>
      <point x="1185" y="39" type="line"/>
      <point x="1242" y="157" type="line"/>
      <point x="969" y="105" type="line"/>
    </contour>
  </outline>
</glyph>
<glyph name="B" format="2">
  <advance width="1584"/>
  <unicode hex="0042"/>
  <anchor x="813" y="-110" name="LL"/>
  <anchor x="788" y="1745" name="LU"/>
  <outline>
    <contour>
      <point x="580" y="0" type="line"/>
      <point x="580" y="1650" type="line"/>
      <point x="95" y="1650" type="line"/>
      <point x="95" y="1545" type="line"/>
      <point x="265" y="1510" type="line"/>
      <point x="265" y="140" type="line"/>
      <point x="95" y="105" type="line"/>
      <point x="95" y="0" type="line"/>
    </contour>
    <contour>
      <point x="834" y="0" type="line"/>
      <point x="1304" y="0"/>
      <point x="1469" y="143"/>
      <point x="1469" y="466" type="curve" smooth="yes"/>
      <point x="1469" y="770"/>
      <point x="1181" y="941"/>
      <point x="804" y="941" type="curve" smooth="yes"/>
      <point x="327" y="941" type="line"/>
      <point x="327" y="809" type="line"/>
      <point x="736" y="809" type="line" smooth="yes"/>
      <point x="957" y="809"/>
      <point x="1128" y="720"/>
      <point x="1128" y="459" type="curve" smooth="yes"/>
      <point x="1128" y="258"/>
      <point x="997" y="139"/>
      <point x="776" y="139" type="curve" smooth="yes"/>
      <point x="409" y="139" type="line"/>
      <point x="409" y="0" type="line"/>
    </contour>
    <contour>
      <point x="377" y="809" type="line"/>
      <point x="758" y="809" type="line" smooth="yes"/>
      <point x="1088" y="809"/>
      <point x="1404" y="965"/>
      <point x="1404" y="1265" type="curve" smooth="yes"/>
      <point x="1404" y="1595"/>
      <point x="1118" y="1650"/>
      <point x="718" y="1650" type="curve" smooth="yes"/>
      <point x="437" y="1650" type="line"/>
      <point x="437" y="1512" type="line"/>
      <point x="730" y="1512" type="line" smooth="yes"/>
      <point x="941" y="1512"/>
      <point x="1064" y="1485"/>
      <point x="1064" y="1258" type="curve" smooth="yes"/>
      <point x="1064" y="1045"/>
      <point x="916" y="945"/>
      <point x="720" y="945" type="curve" smooth="yes"/>
      <point x="377" y="945" type="line"/>
    </contour>
  </outline>
</glyph>
<glyph name="C" format="2">
  <advance width="1415"/>
  <unicode hex="0043"/>
  <anchor x="853" y="30" name="LH"/>
  <anchor x="805" y="-110" name="LL"/>
  <anchor x="805" y="1745" name="LU"/>
  <outline>
    <contour>
      <point x="848" y="1515" type="curve" smooth="yes"/>
      <point x="1021" y="1515"/>
      <point x="1098" y="1454"/>
      <point x="1103" y="1412" type="curve"/>
      <point x="1134" y="1418" type="line"/>
      <point x="1109" y="1427"/>
      <point x="1087" y="1431"/>
      <point x="1066" y="1431" type="curve" smooth="yes"/>
      <point x="978" y="1431"/>
      <point x="932" y="1364"/>
      <point x="932" y="1296" type="curve" smooth="yes"/>
      <point x="932" y="1222"/>
      <point x="985" y="1145"/>
      <point x="1096" y="1145" type="curve" smooth="yes"/>
      <point x="1192" y="1145"/>
      <point x="1294" y="1212"/>
      <point x="1294" y="1355" type="curve" smooth="yes"/>
      <point x="1294" y="1517"/>
      <point x="1129" y="1665"/>
      <point x="840" y="1665" type="curve" smooth="yes"/>
      <point x="438" y="1665"/>
      <point x="115" y="1508"/>
      <point x="115" y="831" type="curve" smooth="yes"/>
      <point x="115" y="164"/>
      <point x="418" y="-20"/>
      <point x="798" y="-20" type="curve" smooth="yes"/>
      <point x="1150" y="-20"/>
      <point x="1320" y="191"/>
      <point x="1340" y="385" type="curve"/>
      <point x="1193" y="385" type="line"/>
      <point x="1173" y="258"/>
      <point x="1063" y="130"/>
      <point x="840" y="130" type="curve" smooth="yes"/>
      <point x="589" y="130"/>
      <point x="455" y="338"/>
      <point x="455" y="834" type="curve" smooth="yes"/>
      <point x="455" y="1352"/>
      <point x="552" y="1515"/>
    </contour>
  </outline>
</glyph>
<glyph name="D" format="2">
  <advance width="1612"/>
  <unicode hex="0044"/>
  <anchor x="822" y="-110" name="LL"/>
  <anchor x="822" y="1745" name="LU"/>
  <outline>
    <contour>
      <point x="823" y="0" type="line"/>
      <point x="1193" y="0"/>
      <point x="1497" y="226"/>
      <point x="1497" y="832" type="curve" smooth="yes"/>
      <point x="1497" y="1476"/>
      <point x="1193" y="1650"/>
      <point x="823" y="1650" type="curve" smooth="yes"/>
      <point x="432" y="1650" type="line"/>
      <point x="432" y="1512" type="line"/>
      <point x="795" y="1512" type="line" smooth="yes"/>
      <point x="1066" y="1512"/>
      <point x="1157" y="1352"/>
      <point x="1157" y="825" type="curve" smooth="yes"/>
      <point x="1157" y="334"/>
      <point x="1066" y="138"/>
      <point x="795" y="138" type="curve" smooth="yes"/>
      <point x="418" y="138" type="line"/>
      <point x="412" y="0" type="line"/>
    </contour>
    <contour>
      <point x="580" y="0" type="line"/>
      <point x="580" y="1650" type="line"/>
      <point x="95" y="1650" type="line"/>
      <point x="95" y="1545" type="line"/>
      <point x="265" y="1510" type="line"/>
      <point x="265" y="140" type="line"/>
      <point x="95" y="105" type="line"/>
      <point x="95" y="0" type="line"/>
    </contour>
  </outline>
</glyph>
<glyph name="E" format="2">
  <advance width="1381"/>
  <unicode hex="0045"/>
  <anchor x="841" y="-110" name="LL"/>
  <anchor x="841" y="1745" name="LU"/>
  <outline>
    <contour>
      <point x="980" y="962" type="line"/>
      <point x="446" y="962" type="line"/>
      <point x="446" y="816" type="line"/>
      <point x="980" y="816" type="line"/>
      <point x="1015" y="636" type="line"/>
      <point x="1130" y="636" type="line"/>
      <point x="1130" y="1142" type="line"/>
      <point x="1015" y="1142" type="line"/>
    </contour>
    <contour>
      <point x="1141" y="1505" type="line"/>
      <point x="1176" y="1305" type="line"/>
      <point x="1291" y="1305" type="line"/>
      <point x="1291" y="1650" type="line"/>
      <point x="442" y="1650" type="line"/>
      <point x="442" y="1505" type="line"/>
    </contour>
    <contour>
      <point x="1141" y="145" type="line"/>
      <point x="447" y="145" type="line"/>
      <point x="442" y="0" type="line"/>
      <point x="1291" y="0" type="line"/>
      <point x="1291" y="345" type="line"/>
      <point x="1176" y="345" type="line"/>
    </contour>
    <contour>
      <point x="580" y="0" type="line"/>
      <point x="580" y="1650" type="line"/>
      <point x="95" y="1650" type="line"/>
      <point x="95" y="1545" type="line"/>
      <point x="265" y="1510" type="line"/>
      <point x="265" y="140" type="line"/>
      <point x="95" y="105" type="line"/>
      <point x="95" y="0" type="line"/>
    </contour>
  </outline>
</glyph>
<glyph name="F" format="2">
  <advance width="1243"/>
  <unicode hex="0046"/>
  <anchor x="581" y="-110" name="LL"/>
  <anchor x="581" y="1350" name="LU"/>
  <outline>
    <contour>
      <point x="40" y="1437" type="line"/>
      <point x="40" y="1362" type="line"/>
      <point x="186" y="1362"/>
      <point x="240" y="1329"/>
      <point x="240" y="1196" type="curve"/>
      <point x="240" y="242" type="line"/>
      <point x="240" y="108"/>
      <point x="186" y="75"/>
      <point x="40" y="75" type="curve"/>
      <point x="40" y="0" type="line"/>
      <point x="728" y="0" type="line"/>
      <point x="728" y="75" type="line"/>
      <point x="586" y="75"/>
      <point x="531" y="108"/>
      <point x="531" y="242" type="curve"/>
      <point x="531" y="729" type="line"/>
      <point x="699" y="729" type="line"/>
      <point x="791" y="729"/>
      <point x="864" y="673"/>
      <point x="864" y="506" type="curve"/>
      <point x="980" y="506" type="line"/>
      <point x="980" y="1019" type="line"/>
      <point x="864" y="1019" type="line"/>
      <point x="864" y="884"/>
      <point x="787" y="836"/>
      <point x="693" y="836" type="curve"/>
      <point x="531" y="836" type="line"/>
      <point x="531" y="1329" type="line"/>
      <point x="808" y="1329" type="line"/>
      <point x="963" y="1329"/>
      <point x="1027" y="1235"/>
      <point x="1059" y="1066" type="curve"/>
      <point x="1173" y="1066" type="line"/>
      <point x="1157" y="1437" type="line"/>
    </contour>
  </outline>
</glyph>
<glyph name="G" format="2">
  <advance width="1600"/>
  <unicode hex="0047"/>
  <outline>
    <contour>
      <point x="1378" y="1470" type="line"/>
      <point x="1267" y="1470" type="line"/>
      <point x="1255" y="1418"/>
      <point x="1238" y="1376"/>
      <point x="1225" y="1376" type="curve"/>
      <point x="1217" y="1376"/>
      <point x="1196" y="1385"/>
      <point x="1169" y="1398" type="curve"/>
      <point x="1170" y="1398" type="line"/>
      <point x="1110" y="1427"/>
      <point x="1022" y="1470"/>
      <point x="843" y="1470" type="curve"/>
      <point x="425" y="1470"/>
      <point x="67" y="1127"/>
      <point x="67" y="700" type="curve"/>
      <point x="67" y="296"/>
      <point x="390" y="-32"/>
      <point x="836" y="-32" type="curve"/>
      <point x="1113" y="-32"/>
      <point x="1267" y="19"/>
      <point x="1433" y="116" type="curve"/>
      <point x="1433" y="555" type="line"/>
      <point x="1433" y="671"/>
      <point x="1469" y="710"/>
      <point x="1575" y="710" type="curve"/>
      <point x="1575" y="785" type="line"/>
      <point x="945" y="785" type="line"/>
      <point x="945" y="710" type="line"/>
      <point x="1098" y="710"/>
      <point x="1138" y="674"/>
      <point x="1138" y="555" type="curve"/>
      <point x="1138" y="168" type="line"/>
      <point x="1074" y="116"/>
      <point x="996" y="86"/>
      <point x="908" y="86" type="curve"/>
      <point x="625" y="86"/>
      <point x="399" y="313"/>
      <point x="399" y="693" type="curve"/>
      <point x="399" y="881"/>
      <point x="443" y="1057"/>
      <point x="529" y="1173" type="curve"/>
      <point x="620" y="1296"/>
      <point x="749" y="1362"/>
      <point x="876" y="1362" type="curve"/>
      <point x="1104" y="1362"/>
      <point x="1231" y="1187"/>
      <point x="1289" y="957" type="curve"/>
      <point x="1412" y="957" type="line"/>
    </contour>
  </outline>
</glyph>
<glyph name="H" format="2">
  <advance width="1627"/>
  <unicode hex="0048"/>
  <anchor x="813" y="-110" name="LL"/>
  <anchor x="813" y="1745" name="LU"/>
  <outline>
    <contour>
      <point x="351" y="797" type="line"/>
      <point x="1277" y="797" type="line"/>
      <point x="1277" y="942" type="line"/>
      <point x="351" y="942" type="line"/>
    </contour>
    <contour>
      <point x="550" y="1520" type="line"/>
      <point x="700" y="1555" type="line"/>
      <point x="700" y="1650" type="line"/>
      <point x="85" y="1650" type="line"/>
      <point x="85" y="1555" type="line"/>
      <point x="235" y="1520" type="line"/>
      <point x="235" y="130" type="line"/>
      <point x="85" y="95" type="line"/>
      <point x="85" y="0" type="line"/>
      <point x="700" y="0" type="line"/>
      <point x="700" y="95" type="line"/>
      <point x="550" y="130" type="line"/>
    </contour>
    <contour>
      <point x="1077" y="1520" type="line"/>
      <point x="1077" y="130" type="line"/>
      <point x="927" y="95" type="line"/>
      <point x="927" y="0" type="line"/>
      <point x="1542" y="0" type="line"/>
      <point x="1542" y="95" type="line"/>
      <point x="1392" y="130" type="line"/>
      <point x="1392" y="1520" type="line"/>
      <point x="1542" y="1555" type="line"/>
      <point x="1542" y="1650" type="line"/>
      <point x="927" y="1650" type="line"/>
      <point x="927" y="1555" type="line"/>
    </contour>
  </outline>
</glyph>
<glyph name="I" format="2">
  <advance width="885"/>
  <unicode hex="0049"/>
  <anchor x="437" y="-110" name="LL"/>
  <anchor x="437" y="1745" name="LU"/>
  <outline>
    <contour>
      <point x="595" y="1530" type="line"/>
      <point x="785" y="1565" type="line"/>
      <point x="785" y="1650" type="line"/>
      <point x="100" y="1650" type="line"/>
      <point x="100" y="1565" type="line"/>
      <point x="280" y="1530" type="line"/>
      <point x="280" y="120" type="line"/>
      <point x="100" y="85" type="line"/>
      <point x="100" y="0" type="line"/>
      <point x="775" y="0" type="line"/>
      <point x="775" y="85" type="line"/>
      <point x="595" y="120" type="line"/>
    </contour>
  </outline>
</glyph>
<glyph name="J" format="2">
  <advance width="1248"/>
  <unicode hex="004A"/>
  <anchor x="480" y="-110" name="LL"/>
  <anchor x="816" y="1745" name="LU"/>
  <outline>
    <contour>
      <point x="443" y="-20" type="curve" smooth="yes"/>
      <point x="691" y="-20"/>
      <point x="978" y="96"/>
      <point x="978" y="424" type="curve" smooth="yes"/>
      <point x="978" y="1490" type="line"/>
      <point x="1168" y="1545" type="line"/>
      <point x="1168" y="1650" type="line"/>
      <point x="463" y="1650" type="line"/>
      <point x="463" y="1545" type="line"/>
      <point x="663" y="1490" type="line"/>
      <point x="663" y="395" type="line" smooth="yes"/>
      <point x="663" y="193"/>
      <point x="529" y="127"/>
      <point x="408" y="127" type="curve" smooth="yes"/>
      <point x="316" y="127"/>
      <point x="231" y="165"/>
      <point x="218" y="203" type="curve"/>
      <point x="218" y="209"/>
      <point x="218" y="216"/>
      <point x="218" y="222" type="curve"/>
      <point x="157" y="208" type="line"/>
      <point x="183" y="193"/>
      <point x="209" y="187"/>
      <point x="231" y="187" type="curve" smooth="yes"/>
      <point x="308" y="187"/>
      <point x="362" y="256"/>
      <point x="362" y="327" type="curve" smooth="yes"/>
      <point x="362" y="401"/>
      <point x="304" y="476"/>
      <point x="199" y="476" type="curve" smooth="yes"/>
      <point x="114" y="476"/>
      <point x="24" y="414"/>
      <point x="24" y="281" type="curve" smooth="yes"/>
      <point x="24" y="100"/>
      <point x="210" y="-20"/>
    </contour>
  </outline>
</glyph>
<glyph name="K" format="2">
  <advance width="1662"/>
  <unicode hex="004B"/>
  <anchor x="809" y="-110" name="LL"/>
  <anchor x="769" y="1745" name="LU"/>
  <outline>
    <contour>
      <point x="580" y="1510" type="line"/>
      <point x="750" y="1545" type="line"/>
      <point x="750" y="1650" type="line"/>
      <point x="95" y="1650" type="line"/>
      <point x="95" y="1545" type="line"/>
      <point x="265" y="1510" type="line"/>
      <point x="265" y="140" type="line"/>
      <point x="95" y="105" type="line"/>
      <point x="95" y="0" type="line"/>
      <point x="750" y="0" type="line"/>
      <point x="750" y="105" type="line"/>
      <point x="580" y="140" type="line"/>
    </contour>
    <contour>
      <point x="1195" y="157" type="line"/>
      <point x="922" y="105" type="line"/>
      <point x="922" y="0" type="line"/>
      <point x="1677" y="0" type="line"/>
      <point x="1677" y="105" type="line"/>
      <point x="1410" y="165" type="line"/>
      <point x="1536" y="76" type="line"/>
      <point x="812" y="1060" type="line"/>
      <point x="580" y="864" type="line"/>
      <point x="1161" y="55" type="line"/>
    </contour>
    <contour>
      <point x="1249" y="1486" type="line"/>
      <point x="1551" y="1545" type="line"/>
      <point x="1551" y="1650" type="line"/>
      <point x="955" y="1650" type="line"/>
      <point x="955" y="1545" type="line"/>
      <point x="1238" y="1493" type="line"/>
      <point x="1214" y="1585" type="line"/>
      <point x="368" y="725" type="line"/>
      <point x="463" y="593" type="line"/>
      <point x="1400" y="1546" type="line"/>
    </contour>
  </outline>
</glyph>
<glyph name="L" format="2">
  <advance width="1312"/>
  <unicode hex="004C"/>
  <anchor x="821" y="-110" name="LL"/>
  <anchor x="363" y="1745" name="LU"/>
  <outline>
    <contour>
      <point x="393" y="0" type="line"/>
      <point x="1252" y="0" type="line"/>
      <point x="1252" y="355" type="line"/>
      <point x="1137" y="355" type="line"/>
      <point x="1102" y="145" type="line"/>
      <point x="398" y="145" type="line"/>
    </contour>
    <contour>
      <point x="520" y="0" type="line"/>
      <point x="520" y="1510" type="line"/>
      <point x="710" y="1545" type="line"/>
      <point x="710" y="1650" type="line"/>
      <point x="35" y="1650" type="line"/>
      <point x="35" y="1545" type="line"/>
      <point x="205" y="1510" type="line"/>
      <point x="205" y="140" type="line"/>
      <point x="35" y="105" type="line"/>
      <point x="35" y="0" type="line"/>
    </contour>
  </outline>
</glyph>
<glyph name="M" format="2">
  <advance width="2014"/>
  <unicode hex="004D"/>
  <guideline x="497" y="825" angle="290.3808"/>
  <guideline x="1325" y="910" angle="71.6231"/>
  <guideline x="986" y="1745" angle="270"/>
  <anchor x="966" y="-110" name="LL"/>
  <anchor x="986" y="1745" name="LU"/>
  <outline>
    <contour>
      <point x="1434" y="140" type="line"/>
      <point x="1264" y="105" type="line"/>
      <point x="1264" y="0" type="line"/>
      <point x="1919" y="0" type="line"/>
      <point x="1919" y="105" type="line"/>
      <point x="1749" y="140" type="line"/>
      <point x="1749" y="1510" type="line"/>
      <point x="1919" y="1545" type="line"/>
      <point x="1919" y="1650" type="line"/>
      <point x="1434" y="1650" type="line"/>
    </contour>
    <contour>
      <point x="250" y="1650" type="line"/>
      <point x="803" y="0" type="line"/>
      <point x="919" y="0" type="line"/>
      <point x="1065" y="169" type="line"/>
      <point x="573" y="1650" type="line"/>
    </contour>
    <contour>
      <point x="1403" y="1650" type="line"/>
      <point x="855" y="0" type="line"/>
      <point x="1023" y="0" type="line"/>
      <point x="1472" y="1351" type="line"/>
      <point x="1472" y="1650" type="line"/>
    </contour>
    <contour>
      <point x="431" y="140" type="line"/>
      <point x="431" y="1650" type="line"/>
      <point x="101" y="1650" type="line"/>
      <point x="101" y="1545" type="line"/>
      <point x="271" y="1510" type="line"/>
      <point x="271" y="140" type="line"/>
      <point x="101" y="105" type="line"/>
      <point x="101" y="0" type="line"/>
      <point x="591" y="0" type="line"/>
      <point x="591" y="105" type="line"/>
    </contour>
  </outline>
</glyph>
<glyph name="N" format="2">
  <advance width="1687"/>
  <unicode hex="004E"/>
  <anchor x="829" y="-110" name="LL"/>
  <anchor x="829" y="1745" name="LU"/>
  <outline>
    <contour>
      <point x="425" y="140" type="line"/>
      <point x="425" y="1650" type="line"/>
      <point x="95" y="1650" type="line"/>
      <point x="95" y="1545" type="line"/>
      <point x="265" y="1510" type="line"/>
      <point x="265" y="140" type="line"/>
      <point x="95" y="105" type="line"/>
      <point x="95" y="0" type="line"/>
      <point x="615" y="0" type="line"/>
      <point x="615" y="105" type="line"/>
    </contour>
    <contour>
      <point x="1397" y="1510" type="line"/>
      <point x="1567" y="1545" type="line"/>
      <point x="1567" y="1650" type="line"/>
      <point x="1067" y="1650" type="line"/>
      <point x="1067" y="1545" type="line"/>
      <point x="1237" y="1510" type="line"/>
      <point x="1237" y="0" type="line"/>
      <point x="1397" y="0" type="line"/>
    </contour>
    <contour>
      <point x="211" y="1650" type="line"/>
      <point x="1067" y="0" type="line"/>
      <point x="1336" y="0" type="line"/>
      <point x="1336" y="144" type="line"/>
      <point x="555" y="1650" type="line"/>
    </contour>
  </outline>
</glyph>
<glyph name="O" format="2">
  <advance width="1528"/>
  <unicode hex="004F"/>
  <anchor x="764" y="-110" name="LL"/>
  <anchor x="764" y="1775" name="LU"/>
  <outline>
    <contour>
      <point x="764" y="-20" type="curve" smooth="yes"/>
      <point x="1219" y="-20"/>
      <point x="1413" y="187"/>
      <point x="1413" y="830" type="curve" smooth="yes"/>
      <point x="1413" y="1473"/>
      <point x="1219" y="1680"/>
      <point x="764" y="1680" type="curve" smooth="yes"/>
      <point x="309" y="1680"/>
      <point x="115" y="1473"/>
      <point x="115" y="830" type="curve" smooth="yes"/>
      <point x="115" y="187"/>
      <point x="309" y="-20"/>
    </contour>
    <contour>
      <point x="764" y="125" type="curve" smooth="yes"/>
      <point x="518" y="125"/>
      <point x="455" y="306"/>
      <point x="455" y="830" type="curve" smooth="yes"/>
      <point x="455" y="1354"/>
      <point x="518" y="1535"/>
      <point x="764" y="1535" type="curve" smooth="yes"/>
      <point x="1010" y="1535"/>
      <point x="1073" y="1354"/>
      <point x="1073" y="830" type="curve" smooth="yes"/>
      <point x="1073" y="306"/>
      <point x="1010" y="125"/>
    </contour>
  </outline>
</glyph>
<glyph name="P" format="2">
  <advance width="1432"/>
  <unicode hex="0050"/>
  <anchor x="762" y="-110" name="LL"/>
  <anchor x="762" y="1745" name="LU"/>
  <outline>
    <contour>
      <point x="735" y="0" type="line"/>
      <point x="735" y="105" type="line"/>
      <point x="545" y="140" type="line"/>
      <point x="545" y="1650" type="line"/>
      <point x="60" y="1650" type="line"/>
      <point x="60" y="1545" type="line"/>
      <point x="230" y="1510" type="line"/>
      <point x="230" y="140" type="line"/>
      <point x="60" y="105" type="line"/>
      <point x="60" y="0" type="line"/>
    </contour>
    <contour>
      <point x="235" y="767" type="line"/>
      <point x="721" y="767" type="line" smooth="yes"/>
      <point x="1091" y="767"/>
      <point x="1377" y="877"/>
      <point x="1377" y="1217" type="curve" smooth="yes"/>
      <point x="1377" y="1571"/>
      <point x="1101" y="1650"/>
      <point x="721" y="1650" type="curve" smooth="yes"/>
      <point x="410" y="1650" type="line"/>
      <point x="410" y="1507" type="line"/>
      <point x="683" y="1507" type="line" smooth="yes"/>
      <point x="914" y="1507"/>
      <point x="1034" y="1457"/>
      <point x="1034" y="1210" type="curve" smooth="yes"/>
      <point x="1034" y="987"/>
      <point x="909" y="910"/>
      <point x="693" y="910" type="curve" smooth="yes"/>
      <point x="235" y="910" type="line"/>
    </contour>
  </outline>
</glyph>
<glyph name="Q" format="2">
  <advance width="1571"/>
  <unicode hex="0051"/>
  <anchor x="764" y="-110" name="LL"/>
  <anchor x="764" y="1775" name="LU"/>
  <outline>
    <component base="O"/>
    <contour>
      <point x="1377" y="-359" type="curve" smooth="yes"/>
      <point x="1488" y="-359"/>
      <point x="1589" y="-261"/>
      <point x="1589" y="-134" type="curve" smooth="yes"/>
      <point x="1589" y="-12"/>
      <point x="1506" y="45"/>
      <point x="1428" y="45" type="curve" smooth="yes"/>
      <point x="1332" y="45"/>
      <point x="1286" y="-21"/>
      <point x="1286" y="-85" type="curve" smooth="yes"/>
      <point x="1286" y="-145"/>
      <point x="1327" y="-203"/>
      <point x="1405" y="-203" type="curve"/>
      <point x="1405" y="-159" type="line"/>
      <point x="1392" y="-159"/>
      <point x="1361" y="-190"/>
      <point x="1323" y="-190" type="curve" smooth="yes"/>
      <point x="1275" y="-190"/>
      <point x="1206" y="-124"/>
      <point x="1170" y="-75" type="curve" smooth="yes"/>
      <point x="1083" y="43"/>
      <point x="987" y="93"/>
      <point x="792" y="93" type="curve"/>
      <point x="801" y="-19" type="line"/>
      <point x="909" y="-19"/>
      <point x="993" y="-65"/>
      <point x="1071" y="-171" type="curve" smooth="yes"/>
      <point x="1156" y="-287"/>
      <point x="1253" y="-359"/>
    </contour>
  </outline>
</glyph>
<glyph name="R" format="2">
  <advance width="1519"/>
  <unicode hex="0052"/>
  <anchor x="737" y="-110" name="LL"/>
  <anchor x="737" y="1745" name="LU"/>
  <outline>
    <contour>
      <point x="1189" y="143" type="line"/>
      <point x="949" y="90" type="line"/>
      <point x="949" y="5" type="line"/>
      <point x="1574" y="5" type="line"/>
      <point x="1579" y="90" type="line"/>
      <point x="1414" y="130" type="line"/>
      <point x="935" y="859" type="line"/>
      <point x="576" y="854" type="line"/>
      <point x="1103" y="54" type="line"/>
    </contour>
    <contour>
      <point x="710" y="0" type="line"/>
      <point x="710" y="105" type="line"/>
      <point x="520" y="140" type="line"/>
      <point x="520" y="1650" type="line"/>
      <point x="35" y="1650" type="line"/>
      <point x="35" y="1545" type="line"/>
      <point x="205" y="1510" type="line"/>
      <point x="205" y="140" type="line"/>
      <point x="35" y="105" type="line"/>
      <point x="35" y="0" type="line"/>
    </contour>
    <contour>
      <point x="210" y="767" type="line"/>
      <point x="696" y="767" type="line" smooth="yes"/>
      <point x="1066" y="767"/>
      <point x="1352" y="877"/>
      <point x="1352" y="1217" type="curve" smooth="yes"/>
      <point x="1352" y="1571"/>
      <point x="1076" y="1650"/>
      <point x="696" y="1650" type="curve" smooth="yes"/>
      <point x="385" y="1650" type="line"/>
      <point x="385" y="1507" type="line"/>
      <point x="658" y="1507" type="line" smooth="yes"/>
      <point x="889" y="1507"/>
      <point x="1009" y="1457"/>
      <point x="1009" y="1210" type="curve" smooth="yes"/>
      <point x="1009" y="987"/>
      <point x="884" y="910"/>
      <point x="668" y="910" type="curve" smooth="yes"/>
      <point x="210" y="910" type="line"/>
    </contour>
  </outline>
</glyph>
<glyph name="S" format="2">
  <advance width="1377"/>
  <unicode hex="0053"/>
  <anchor x="688" y="-110" name="LL"/>
  <anchor x="688" y="1745" name="LU"/>
  <outline>
    <contour>
      <point x="599" y="-20" type="curve" smooth="yes"/>
      <point x="1036" y="-20"/>
      <point x="1267" y="164"/>
      <point x="1267" y="410" type="curve" smooth="yes"/>
      <point x="1267" y="995"/>
      <point x="458" y="922"/>
      <point x="458" y="1301" type="curve" smooth="yes"/>
      <point x="458" y="1379"/>
      <point x="470" y="1515"/>
      <point x="743" y="1515" type="curve" smooth="yes"/>
      <point x="919" y="1515"/>
      <point x="990" y="1468"/>
      <point x="995" y="1426" type="curve"/>
      <point x="1076" y="1448" type="line"/>
      <point x="1051" y="1457"/>
      <point x="1029" y="1461"/>
      <point x="1008" y="1461" type="curve" smooth="yes"/>
      <point x="924" y="1461"/>
      <point x="875" y="1393"/>
      <point x="875" y="1324" type="curve" smooth="yes"/>
      <point x="875" y="1235"/>
      <point x="953" y="1180"/>
      <point x="1034" y="1180" type="curve" smooth="yes"/>
      <point x="1143" y="1180"/>
      <point x="1207" y="1261"/>
      <point x="1207" y="1357" type="curve" smooth="yes"/>
      <point x="1207" y="1496"/>
      <point x="1074" y="1665"/>
      <point x="753" y="1665" type="curve" smooth="yes"/>
      <point x="336" y="1665"/>
      <point x="145" y="1491"/>
      <point x="145" y="1245" type="curve" smooth="yes"/>
      <point x="145" y="707"/>
      <point x="960" y="720"/>
      <point x="960" y="385" type="curve" smooth="yes"/>
      <point x="960" y="280"/>
      <point x="913" y="125"/>
      <point x="610" y="125" type="curve" smooth="yes"/>
      <point x="404" y="125"/>
      <point x="332" y="197"/>
      <point x="327" y="239" type="curve"/>
      <point x="246" y="217" type="line"/>
      <point x="271" y="208"/>
      <point x="293" y="204"/>
      <point x="314" y="204" type="curve" smooth="yes"/>
      <point x="398" y="204"/>
      <point x="442" y="269"/>
      <point x="442" y="338" type="curve" smooth="yes"/>
      <point x="442" y="412"/>
      <point x="390" y="489"/>
      <point x="282" y="489" type="curve" smooth="yes"/>
      <point x="166" y="489"/>
      <point x="94" y="401"/>
      <point x="94" y="298" type="curve" smooth="yes"/>
      <point x="94" y="154"/>
      <point x="236" y="-20"/>
    </contour>
  </outline>
</glyph>
<glyph name="T" format="2">
  <advance width="1370"/>
  <unicode hex="0054"/>
  <anchor x="685" y="-110" name="LL"/>
  <anchor x="685" y="1745" name="LU"/>
  <outline>
    <contour>
      <point x="842" y="140" type="line"/>
      <point x="842" y="1581" type="line"/>
      <point x="528" y="1581" type="line"/>
      <point x="528" y="140" type="line"/>
      <point x="338" y="105" type="line"/>
      <point x="338" y="0" type="line"/>
      <point x="1032" y="0" type="line"/>
      <point x="1032" y="105" type="line"/>
    </contour>
    <contour>
      <point x="1300" y="1650" type="line"/>
      <point x="70" y="1650" type="line"/>
      <point x="70" y="1297" type="line"/>
      <point x="185" y="1297" type="line"/>
      <point x="220" y="1507" type="line"/>
      <point x="1150" y="1507" type="line"/>
      <point x="1185" y="1297" type="line"/>
      <point x="1300" y="1297" type="line"/>
    </contour>
  </outline>
</glyph>
<glyph name="U" format="2">
  <advance width="1700"/>
  <unicode hex="0055"/>
  <anchor x="916" y="-110" name="LL"/>
  <anchor x="936" y="1745" name="LU"/>
  <outline>
    <contour>
      <point x="1278" y="1510" type="line"/>
      <point x="1278" y="585" type="line" smooth="yes"/>
      <point x="1278" y="261"/>
      <point x="1149" y="130"/>
      <point x="926" y="130" type="curve" smooth="yes"/>
      <point x="685" y="130"/>
      <point x="575" y="251"/>
      <point x="575" y="585" type="curve" smooth="yes"/>
      <point x="575" y="1510" type="line"/>
      <point x="765" y="1545" type="line"/>
      <point x="765" y="1650" type="line"/>
      <point x="90" y="1650" type="line"/>
      <point x="90" y="1545" type="line"/>
      <point x="260" y="1510" type="line"/>
      <point x="260" y="575" type="line" smooth="yes"/>
      <point x="260" y="113"/>
      <point x="510" y="-20"/>
      <point x="880" y="-20" type="curve" smooth="yes"/>
      <point x="1222" y="-20"/>
      <point x="1438" y="117"/>
      <point x="1438" y="585" type="curve" smooth="yes"/>
      <point x="1438" y="1510" type="line"/>
      <point x="1608" y="1545" type="line"/>
      <point x="1608" y="1650" type="line"/>
      <point x="1108" y="1650" type="line"/>
      <point x="1108" y="1545" type="line"/>
    </contour>
  </outline>
</glyph>
<glyph name="V" format="2">
  <advance width="1639"/>
  <unicode hex="0056"/>
  <anchor x="819" y="-110" name="LL"/>
  <anchor x="895" y="1745" name="LU"/>
  <outline>
    <contour>
      <point x="1308" y="1510" type="line"/>
      <point x="815" y="0" type="line"/>
      <point x="979" y="0" type="line"/>
      <point x="1479" y="1505" type="line"/>
      <point x="1649" y="1545" type="line"/>
      <point x="1649" y="1650" type="line"/>
      <point x="1118" y="1650" type="line"/>
      <point x="1118" y="1545" type="line"/>
    </contour>
    <contour>
      <point x="481" y="1510" type="line"/>
      <point x="671" y="1545" type="line"/>
      <point x="671" y="1650" type="line"/>
      <point x="-10" y="1650" type="line"/>
      <point x="-10" y="1545" type="line"/>
      <point x="160" y="1505" type="line"/>
      <point x="658" y="0" type="line"/>
      <point x="976" y="0" type="line"/>
    </contour>
  </outline>
</glyph>
<glyph name="W" format="2">
  <advance width="2525"/>
  <unicode hex="0057"/>
  <anchor x="1258" y="-110" name="LL"/>
  <anchor x="1228" y="1745" name="LU"/>
  <outline>
    <contour>
      <point x="481" y="1510" type="line"/>
      <point x="671" y="1545" type="line"/>
      <point x="671" y="1650" type="line"/>
      <point x="-10" y="1650" type="line"/>
      <point x="-10" y="1545" type="line"/>
      <point x="160" y="1505" type="line"/>
      <point x="615" y="0" type="line"/>
      <point x="930" y="0" type="line"/>
    </contour>
    <contour>
      <point x="2230" y="1510" type="line"/>
      <point x="1776" y="0" type="line"/>
      <point x="1909" y="0" type="line"/>
      <point x="2365" y="1510" type="line"/>
      <point x="2535" y="1545" type="line"/>
      <point x="2535" y="1650" type="line"/>
      <point x="2040" y="1650" type="line"/>
      <point x="2040" y="1545" type="line"/>
    </contour>
    <contour>
      <point x="1450" y="1510" type="line"/>
      <point x="1640" y="1545" type="line"/>
      <point x="1640" y="1650" type="line"/>
      <point x="937" y="1650" type="line"/>
      <point x="937" y="1545" type="line"/>
      <point x="1127" y="1505" type="line"/>
      <point x="1585" y="0" type="line"/>
      <point x="1902" y="0" type="line"/>
    </contour>
    <contour>
      <point x="1227" y="1505" type="line"/>
      <point x="770" y="0" type="line"/>
      <point x="939" y="0" type="line"/>
      <point x="1312" y="1231" type="line"/>
    </contour>
  </outline>
</glyph>
<glyph name="X" format="2">
  <advance width="1550"/>
  <unicode hex="0058"/>
  <anchor x="765" y="-110" name="LL"/>
  <anchor x="815" y="1745" name="LU"/>
  <outline>
    <contour>
      <point x="1034" y="140" type="line"/>
      <point x="864" y="105" type="line"/>
      <point x="864" y="0" type="line"/>
      <point x="1570" y="0" type="line"/>
      <point x="1570" y="105" type="line"/>
      <point x="1390" y="145" type="line"/>
      <point x="506" y="1510" type="line"/>
      <point x="666" y="1545" type="line"/>
      <point x="666" y="1650" type="line"/>
      <point x="-20" y="1650" type="line"/>
      <point x="-20" y="1545" type="line"/>
      <point x="150" y="1505" type="line"/>
    </contour>
    <contour>
      <point x="874" y="782" type="line"/>
      <point x="1339" y="1505" type="line"/>
      <point x="1509" y="1545" type="line"/>
      <point x="1509" y="1650" type="line"/>
      <point x="976" y="1650" type="line"/>
      <point x="976" y="1545" type="line"/>
      <point x="1146" y="1505" type="line"/>
      <point x="754" y="898" type="line"/>
      <point x="692" y="856" type="line"/>
      <point x="235" y="140" type="line"/>
      <point x="25" y="105" type="line"/>
      <point x="25" y="0" type="line"/>
      <point x="597" y="0" type="line"/>
      <point x="597" y="105" type="line"/>
      <point x="427" y="140" type="line"/>
      <point x="819" y="750" type="line"/>
    </contour>
  </outline>
</glyph>
<glyph name="Y" format="2">
  <advance width="1530"/>
  <unicode hex="0059"/>
  <anchor x="767" y="-110" name="LL"/>
  <anchor x="850" y="1745" name="LU"/>
  <outline>
    <contour>
      <point x="1550" y="1650" type="line"/>
      <point x="1012" y="1650" type="line"/>
      <point x="1012" y="1545" type="line"/>
      <point x="1285" y="1495" type="line"/>
      <point x="1243" y="1584" type="line"/>
      <point x="698" y="595" type="line"/>
      <point x="878" y="595" type="line"/>
      <point x="1421" y="1579" type="line"/>
      <point x="1298" y="1486" type="line"/>
      <point x="1550" y="1545" type="line"/>
    </contour>
    <contour>
      <point x="683" y="1650" type="line"/>
      <point x="-20" y="1650" type="line"/>
      <point x="-20" y="1545" type="line"/>
      <point x="232" y="1486" type="line"/>
      <point x="109" y="1579" type="line"/>
      <point x="664" y="576" type="line"/>
      <point x="921" y="739" type="line"/>
      <point x="452" y="1584" type="line"/>
      <point x="410" y="1495" type="line"/>
      <point x="683" y="1545" type="line"/>
    </contour>
    <contour>
      <point x="924" y="140" type="line"/>
      <point x="924" y="744" type="line"/>
      <point x="610" y="744" type="line"/>
      <point x="610" y="140" type="line"/>
      <point x="420" y="105" type="line"/>
      <point x="420" y="0" type="line"/>
      <point x="1114" y="0" type="line"/>
      <point x="1114" y="105" type="line"/>
    </contour>
  </outline>
</glyph>
<glyph name="Z" format="2">
  <advance width="1353"/>
  <unicode hex="005A"/>
  <anchor x="685" y="-110" name="LL"/>
  <anchor x="685" y="1745" name="LU"/>
  <outline>
    <contour>
      <point x="406" y="43" type="line"/>
      <point x="1236" y="1551" type="line"/>
      <point x="1236" y="1650" type="line"/>
      <point x="151" y="1650" type="line"/>
      <point x="151" y="1287" type="line"/>
      <point x="266" y="1287" type="line"/>
      <point x="301" y="1507" type="line"/>
      <point x="1016" y="1507" type="line"/>
      <point x="920" y="1607" type="line"/>
      <point x="90" y="99" type="line"/>
      <point x="90" y="0" type="line"/>
      <point x="1263" y="0" type="line"/>
      <point x="1263" y="365" type="line"/>
      <point x="1148" y="365" type="line"/>
      <point x="1113" y="143" type="line"/>
      <point x="312" y="143" type="line"/>
    </contour>
  </outline>
</glyph>
<glyph name="bracketleft" format="2">
  <advance width="770"/>
  <unicode hex="005B"/>
  <outline>
    <contour>
      <point x="180" y="-381" type="line"/>
      <point x="730" y="-381" type="line"/>
      <point x="730" y="-248" type="line"/>
      <point x="440" y="-248" type="line"/>
      <point x="440" y="1667" type="line"/>
      <point x="730" y="1667" type="line"/>
      <point x="730" y="1800" type="line"/>
      <point x="180" y="1800" type="line"/>
    </contour>
  </outline>
</glyph>
<glyph name="bracketright" format="2">
  <advance width="777"/>
  <unicode hex="005D"/>
  <outline>
    <contour>
      <point x="607" y="-248" type="line"/>
      <point x="607" y="2008" type="line"/>
      <point x="25" y="2008" type="line"/>
      <point x="25" y="1888" type="line"/>
      <point x="319" y="1888" type="line"/>
      <point x="319" y="-127" type="line"/>
      <point x="25" y="-127" type="line"/>
      <point x="25" y="-248" type="line"/>
    </contour>
  </outline>
</glyph>
<glyph name="asciicircum" format="2">
  <advance width="1068"/>
  <unicode hex="005E"/>
  <outline>
    <contour>
      <point x="184" y="982" type="line"/>
      <point x="593" y="1673" type="line"/>
      <point x="467" y="1673" type="line"/>
      <point x="880" y="982" type="line"/>
      <point x="1056" y="982" type="line"/>
      <point x="592" y="1761" type="line"/>
      <point x="472" y="1761" type="line"/>
      <point x="8" y="982" type="line"/>
    </contour>
  </outline>
</glyph>
<glyph name="underscore" format="2">
  <advance width="1718"/>
  <unicode hex="005F"/>
  <outline>
    <contour>
      <point x="1678" y="-193" type="line"/>
      <point x="1670" y="-21" type="line"/>
      <point x="40" y="-21" type="line"/>
      <point x="40" y="-193" type="line"/>
    </contour>
  </outline>
</glyph>
<glyph name="grave" format="2">
  <advance width="490"/>
  <unicode hex="0060"/>
  <outline>
    <contour>
      <point x="10" y="1470" type="line"/>
      <point x="350" y="1066" type="line"/>
      <point x="480" y="1066" type="line"/>
      <point x="360" y="1470" type="line"/>
    </contour>
  </outline>
</glyph>
<glyph name="a" format="2">
  <advance width="1373"/>
  <unicode hex="0061"/>
  <anchor x="620" y="-110" name="LL"/>
  <anchor x="620" y="1350" name="LU"/>
  <anchor x="550" y="0" name="PB"/>
  <anchor x="560" y="0" name="def"/>
  <outline>
    <contour>
      <point x="467" y="-20" type="curve" smooth="yes"/>
      <point x="665" y="-20"/>
      <point x="845" y="44"/>
      <point x="936" y="152" type="curve"/>
      <point x="892" y="239" type="line"/>
      <point x="803" y="136"/>
      <point x="635" y="112"/>
      <point x="580" y="112" type="curve" smooth="yes"/>
      <point x="476" y="112"/>
      <point x="375" y="203"/>
      <point x="375" y="322" type="curve" smooth="yes"/>
      <point x="375" y="521"/>
      <point x="582" y="573"/>
      <point x="927" y="573" type="curve"/>
      <point x="927" y="703" type="line"/>
      <point x="390" y="703"/>
      <point x="60" y="628"/>
      <point x="60" y="305" type="curve" smooth="yes"/>
      <point x="60" y="96"/>
      <point x="238" y="-20"/>
    </contour>
    <contour>
      <point x="870" y="1" type="line"/>
      <point x="1320" y="1" type="line"/>
      <point x="1320" y="96" type="line"/>
      <point x="1170" y="131" type="line"/>
      <point x="1170" y="960" type="line" smooth="yes"/>
      <point x="1170" y="1171"/>
      <point x="865" y="1255"/>
      <point x="569" y="1255" type="curve" smooth="yes"/>
      <point x="286" y="1255"/>
      <point x="88" y="1129"/>
      <point x="88" y="970" type="curve" smooth="yes"/>
      <point x="88" y="854"/>
      <point x="154" y="762"/>
      <point x="254" y="762" type="curve" smooth="yes"/>
      <point x="340" y="762"/>
      <point x="409" y="820"/>
      <point x="409" y="899" type="curve" smooth="yes"/>
      <point x="409" y="1008"/>
      <point x="289" y="1093"/>
      <point x="181" y="1033" type="curve"/>
      <point x="262" y="1012" type="line"/>
      <point x="283" y="1079"/>
      <point x="417" y="1119"/>
      <point x="554" y="1119" type="curve" smooth="yes"/>
      <point x="741" y="1119"/>
      <point x="870" y="1045"/>
      <point x="870" y="935" type="curve" smooth="yes"/>
    </contour>
  </outline>
</glyph>
<glyph name="b" format="2">
  <advance width="1372"/>
  <unicode hex="0062"/>
  <anchor x="733" y="-110" name="LL"/>
  <anchor x="733" y="1880" name="LU"/>
  <anchor x="570" y="0" name="PB"/>
  <anchor x="640" y="200" name="def"/>
  <outline>
    <contour>
      <point x="851" y="1255" type="curve" smooth="yes"/>
      <point x="690" y="1255"/>
      <point x="581" y="1188"/>
      <point x="455" y="1091" type="curve"/>
      <point x="481" y="984" type="line"/>
      <point x="609" y="1075"/>
      <point x="678" y="1107"/>
      <point x="774" y="1107" type="curve" smooth="yes"/>
      <point x="895" y="1107"/>
      <point x="958" y="1055"/>
      <point x="958" y="639" type="curve" smooth="yes"/>
      <point x="958" y="274"/>
      <point x="870" y="125"/>
      <point x="719" y="125" type="curve" smooth="yes"/>
      <point x="608" y="125"/>
      <point x="511" y="179"/>
      <point x="511" y="238" type="curve"/>
      <point x="210" y="184" type="line"/>
      <point x="210" y="97"/>
      <point x="432" y="-20"/>
      <point x="685" y="-20" type="curve" smooth="yes"/>
      <point x="1057" y="-20"/>
      <point x="1257" y="126"/>
      <point x="1257" y="636" type="curve" smooth="yes"/>
      <point x="1257" y="1176"/>
      <point x="1081" y="1255"/>
    </contour>
    <contour>
      <point x="510" y="71" type="line"/>
      <point x="510" y="1793" type="line"/>
      <point x="50" y="1793" type="line"/>
      <point x="50" y="1688" type="line"/>
      <point x="210" y="1653" type="line"/>
      <point x="210" y="184" type="line"/>
    </contour>
  </outline>
</glyph>
<glyph name="c" format="2">
  <advance width="1355"/>
  <unicode hex="0063"/>
  <anchor x="802" y="30" name="LH"/>
  <anchor x="756" y="-110" name="LL"/>
  <anchor x="756" y="1350" name="LU"/>
  <anchor x="650" y="0" name="PB"/>
  <anchor x="690" y="0" name="def"/>
  <outline>
    <contour>
      <point x="806" y="1110" type="curve" smooth="yes"/>
      <point x="973" y="1110"/>
      <point x="1062" y="1082"/>
      <point x="1081" y="1017" type="curve"/>
      <point x="1125" y="1034" type="line"/>
      <point x="1017" y="1094"/>
      <point x="897" y="1009"/>
      <point x="897" y="900" type="curve" smooth="yes"/>
      <point x="897" y="821"/>
      <point x="956" y="763"/>
      <point x="1052" y="763" type="curve" smooth="yes"/>
      <point x="1152" y="763"/>
      <point x="1218" y="855"/>
      <point x="1218" y="971" type="curve" smooth="yes"/>
      <point x="1218" y="1130"/>
      <point x="1072" y="1255"/>
      <point x="779" y="1255" type="curve" smooth="yes"/>
      <point x="446" y="1255"/>
      <point x="135" y="1129"/>
      <point x="135" y="603" type="curve" smooth="yes"/>
      <point x="135" y="128"/>
      <point x="433" y="-20"/>
      <point x="793" y="-20" type="curve" smooth="yes"/>
      <point x="1007" y="-20"/>
      <point x="1230" y="129"/>
      <point x="1230" y="325" type="curve"/>
      <point x="1093" y="325" type="line"/>
      <point x="1093" y="209"/>
      <point x="960" y="117"/>
      <point x="805" y="117" type="curve" smooth="yes"/>
      <point x="597" y="117"/>
      <point x="450" y="276"/>
      <point x="450" y="627" type="curve" smooth="yes"/>
      <point x="450" y="1005"/>
      <point x="605" y="1110"/>
    </contour>
  </outline>
</glyph>
<glyph name="d" format="2">
  <advance width="1372"/>
  <unicode hex="0064"/>
  <anchor x="618" y="-110" name="LL"/>
  <anchor x="618" y="1880" name="LU"/>
  <anchor x="520" y="0" name="PB"/>
  <anchor x="560" y="200" name="def"/>
  <outline>
    <contour>
      <point x="1162" y="1793" type="line"/>
      <point x="692" y="1793" type="line"/>
      <point x="692" y="1698" type="line"/>
      <point x="862" y="1663" type="line"/>
      <point x="862" y="2" type="line"/>
      <point x="1312" y="2" type="line"/>
      <point x="1312" y="97" type="line"/>
      <point x="1162" y="132" type="line"/>
    </contour>
    <contour>
      <point x="518" y="-20" type="curve" smooth="yes"/>
      <point x="691" y="-20"/>
      <point x="810" y="36"/>
      <point x="921" y="139" type="curve"/>
      <point x="891" y="249" type="line"/>
      <point x="767" y="146"/>
      <point x="683" y="122"/>
      <point x="594" y="122" type="curve" smooth="yes"/>
      <point x="473" y="122"/>
      <point x="415" y="180"/>
      <point x="415" y="599" type="curve" smooth="yes"/>
      <point x="415" y="964"/>
      <point x="472" y="1110"/>
      <point x="623" y="1110" type="curve" smooth="yes"/>
      <point x="714" y="1110"/>
      <point x="813" y="1078"/>
      <point x="882" y="989" type="curve"/>
      <point x="937" y="1104" type="line"/>
      <point x="830" y="1220"/>
      <point x="707" y="1255"/>
      <point x="574" y="1255" type="curve" smooth="yes"/>
      <point x="297" y="1255"/>
      <point x="115" y="1089"/>
      <point x="115" y="599" type="curve" smooth="yes"/>
      <point x="115" y="56"/>
      <point x="288" y="-20"/>
    </contour>
  </outline>
</glyph>
<glyph name="e" format="2">
  <advance width="1291"/>
  <unicode hex="0065"/>
  <anchor x="721" y="-110" name="LL"/>
  <anchor x="684" y="1350" name="LU"/>
  <anchor x="570" y="0" name="PB"/>
  <anchor x="610" y="0" name="def"/>
  <outline>
    <contour>
      <point x="703" y="-26" type="curve" smooth="yes"/>
      <point x="986" y="-26"/>
      <point x="1139" y="133"/>
      <point x="1159" y="355" type="curve"/>
      <point x="1015" y="355" type="line"/>
      <point x="995" y="244"/>
      <point x="916" y="117"/>
      <point x="711" y="117" type="curve" smooth="yes"/>
      <point x="513" y="117"/>
      <point x="433" y="259"/>
      <point x="433" y="565" type="curve" smooth="yes"/>
      <point x="433" y="783" type="line" smooth="yes"/>
      <point x="433" y="1012"/>
      <point x="546" y="1118"/>
      <point x="660" y="1118" type="curve" smooth="yes"/>
      <point x="777" y="1118"/>
      <point x="883" y="1032"/>
      <point x="883" y="798" type="curve" smooth="yes"/>
      <point x="883" y="625" type="line"/>
      <point x="1183" y="625" type="line"/>
      <point x="1183" y="783" type="line" smooth="yes"/>
      <point x="1183" y="1139"/>
      <point x="942" y="1255"/>
      <point x="657" y="1255" type="curve" smooth="yes"/>
      <point x="350" y="1255"/>
      <point x="115" y="1100"/>
      <point x="115" y="620" type="curve" smooth="yes"/>
      <point x="115" y="140"/>
      <point x="347" y="-26"/>
    </contour>
    <contour>
      <point x="318" y="762" type="line"/>
      <point x="318" y="625" type="line"/>
      <point x="1081" y="625" type="line"/>
      <point x="1081" y="762" type="line"/>
    </contour>
  </outline>
</glyph>
<glyph name="f" format="2">
  <advance width="740"/>
  <unicode hex="0066"/>
  <anchor x="520" y="0" name="PB"/>
  <anchor x="580" y="200" name="def"/>
  <outline>
    <contour>
      <point x="474" y="1202" type="line"/>
      <point x="474" y="1291"/>
      <point x="523" y="1362"/>
      <point x="576" y="1362" type="curve"/>
      <point x="616" y="1362"/>
      <point x="637" y="1320"/>
      <point x="658" y="1280" type="curve"/>
      <point x="683" y="1231"/>
      <point x="708" y="1183"/>
      <point x="801" y="1183" type="curve"/>
      <point x="871" y="1183"/>
      <point x="925" y="1216"/>
      <point x="925" y="1283" type="curve"/>
      <point x="925" y="1413"/>
      <point x="776" y="1470"/>
      <point x="583" y="1470" type="curve"/>
      <point x="381" y="1470"/>
      <point x="223" y="1308"/>
      <point x="223" y="1104" type="curve"/>
      <point x="223" y="982" type="line"/>
      <point x="40" y="982" type="line"/>
      <point x="40" y="874" type="line"/>
      <point x="223" y="874" type="line"/>
      <point x="223" y="238" type="line"/>
      <point x="223" y="121"/>
      <point x="201" y="75"/>
      <point x="73" y="75" type="curve"/>
      <point x="73" y="0" type="line"/>
      <point x="620" y="0" type="line"/>
      <point x="620" y="75" type="line"/>
      <point x="498" y="75"/>
      <point x="474" y="121"/>
      <point x="474" y="238" type="curve"/>
      <point x="474" y="874" type="line"/>
      <point x="700" y="874" type="line"/>
      <point x="700" y="982" type="line"/>
      <point x="474" y="982" type="line"/>
    </contour>
  </outline>
</glyph>
<glyph name="g" format="2">
  <advance width="1340"/>
  <unicode hex="0067"/>
  <anchor x="675" y="-690" name="LL"/>
  <anchor x="660" y="1350" name="LU"/>
  <anchor x="520" y="-200" name="PB"/>
  <anchor x="560" y="0" name="def"/>
  <outline>
    <contour>
      <point x="667" y="-603" type="curve" smooth="yes"/>
      <point x="1050" y="-603"/>
      <point x="1265" y="-453"/>
      <point x="1265" y="-178" type="curve" smooth="yes"/>
      <point x="1265" y="41"/>
      <point x="1103" y="166"/>
      <point x="736" y="166" type="curve" smooth="yes"/>
      <point x="555" y="166"/>
      <point x="422" y="152"/>
      <point x="422" y="301" type="curve" smooth="yes"/>
      <point x="422" y="340"/>
      <point x="452" y="395"/>
      <point x="510" y="425" type="curve"/>
      <point x="401" y="480" type="line"/>
      <point x="340" y="456"/>
      <point x="189" y="390"/>
      <point x="189" y="235" type="curve" smooth="yes"/>
      <point x="189" y="33"/>
      <point x="450" y="31"/>
      <point x="696" y="31" type="curve" smooth="yes"/>
      <point x="867" y="31"/>
      <point x="977" y="-21"/>
      <point x="977" y="-191" type="curve" smooth="yes"/>
      <point x="977" y="-388"/>
      <point x="881" y="-466"/>
      <point x="691" y="-466" type="curve" smooth="yes"/>
      <point x="521" y="-466"/>
      <point x="373" y="-385"/>
      <point x="373" y="-238" type="curve" smooth="yes"/>
      <point x="373" y="-86"/>
      <point x="430" y="-8"/>
      <point x="553" y="59" type="curve"/>
      <point x="518" y="80"/>
      <point x="436" y="100"/>
      <point x="401" y="109" type="curve"/>
      <point x="228" y="52"/>
      <point x="85" y="-64"/>
      <point x="85" y="-245" type="curve" smooth="yes"/>
      <point x="85" y="-475"/>
      <point x="274" y="-603"/>
    </contour>
    <contour>
      <point x="620" y="398" type="curve" smooth="yes"/>
      <point x="901" y="398"/>
      <point x="1145" y="504"/>
      <point x="1155" y="827" type="curve" smooth="yes"/>
      <point x="1165" y="1150"/>
      <point x="901" y="1255"/>
      <point x="620" y="1255" type="curve" smooth="yes"/>
      <point x="339" y="1255"/>
      <point x="85" y="1150"/>
      <point x="85" y="827" type="curve" smooth="yes"/>
      <point x="85" y="504"/>
      <point x="339" y="398"/>
    </contour>
    <contour>
      <point x="620" y="508" type="curve" smooth="yes"/>
      <point x="492" y="508"/>
      <point x="400" y="617"/>
      <point x="400" y="827" type="curve" smooth="yes"/>
      <point x="400" y="1037"/>
      <point x="492" y="1145"/>
      <point x="620" y="1145" type="curve" smooth="yes"/>
      <point x="748" y="1145"/>
      <point x="840" y="1037"/>
      <point x="840" y="827" type="curve" smooth="yes"/>
      <point x="840" y="617"/>
      <point x="748" y="508"/>
    </contour>
    <contour>
      <point x="1226" y="1100" type="curve" smooth="yes"/>
      <point x="1292" y="1100"/>
      <point x="1351" y="1143"/>
      <point x="1351" y="1243" type="curve" smooth="yes"/>
      <point x="1351" y="1321"/>
      <point x="1285" y="1386"/>
      <point x="1177" y="1386" type="curve" smooth="yes"/>
      <point x="1065" y="1386"/>
      <point x="931" y="1314"/>
      <point x="818" y="1169" type="curve"/>
      <point x="907" y="1106" type="line"/>
      <point x="975" y="1200"/>
      <point x="1112" y="1272"/>
      <point x="1148" y="1237" type="curve"/>
      <point x="1143" y="1311" type="line"/>
      <point x="1120" y="1288"/>
      <point x="1110" y="1260"/>
      <point x="1110" y="1232" type="curve" smooth="yes"/>
      <point x="1110" y="1166"/>
      <point x="1162" y="1100"/>
    </contour>
  </outline>
</glyph>
<glyph name="h" format="2">
  <advance width="1531"/>
  <unicode hex="0068"/>
  <anchor x="682" y="-110" name="LL"/>
  <anchor x="682" y="1880" name="LU"/>
  <anchor x="510" y="0" name="PB"/>
  <anchor x="570" y="200" name="def"/>
  <outline>
    <contour>
      <point x="542" y="130" type="line"/>
      <point x="542" y="1792" type="line"/>
      <point x="92" y="1792" type="line"/>
      <point x="92" y="1697" type="line"/>
      <point x="242" y="1662" type="line"/>
      <point x="242" y="130" type="line"/>
      <point x="92" y="95" type="line"/>
      <point x="92" y="0" type="line"/>
      <point x="672" y="0" type="line"/>
      <point x="672" y="95" type="line"/>
    </contour>
    <contour>
      <point x="868" y="0" type="line"/>
      <point x="1448" y="0" type="line"/>
      <point x="1448" y="105" type="line"/>
      <point x="1298" y="140" type="line"/>
      <point x="1298" y="968" type="line" smooth="yes"/>
      <point x="1298" y="1142"/>
      <point x="1138" y="1255"/>
      <point x="942" y="1255" type="curve" smooth="yes"/>
      <point x="761" y="1255"/>
      <point x="601" y="1207"/>
      <point x="471" y="1111" type="curve"/>
      <point x="501" y="1006" type="line"/>
      <point x="628" y="1096"/>
      <point x="735" y="1118"/>
      <point x="842" y="1118" type="curve" smooth="yes"/>
      <point x="933" y="1118"/>
      <point x="998" y="1071"/>
      <point x="998" y="956" type="curve" smooth="yes"/>
      <point x="998" y="140" type="line"/>
      <point x="868" y="105" type="line"/>
    </contour>
  </outline>
</glyph>
<glyph name="i" format="2">
  <advance width="812"/>
  <unicode hex="0069"/>
  <anchor x="361" y="-110" name="LL"/>
  <anchor x="361" y="1819" name="LU"/>
  <anchor x="510" y="0" name="PB"/>
  <anchor x="450" y="200" name="def"/>
  <outline>
    <contour>
      <point x="412" y="1452" type="curve" smooth="yes"/>
      <point x="496" y="1452"/>
      <point x="563" y="1519"/>
      <point x="563" y="1604" type="curve" smooth="yes"/>
      <point x="563" y="1689"/>
      <point x="496" y="1755"/>
      <point x="412" y="1755" type="curve" smooth="yes"/>
      <point x="326" y="1755"/>
      <point x="259" y="1689"/>
      <point x="259" y="1604" type="curve" smooth="yes"/>
      <point x="259" y="1519"/>
      <point x="326" y="1452"/>
    </contour>
    <contour>
      <point x="262" y="1110" type="line"/>
      <point x="262" y="130" type="line"/>
      <point x="102" y="95" type="line"/>
      <point x="102" y="0" type="line"/>
      <point x="722" y="0" type="line"/>
      <point x="722" y="95" type="line"/>
      <point x="562" y="130" type="line"/>
      <point x="562" y="1240" type="line"/>
      <point x="102" y="1240" type="line"/>
      <point x="102" y="1145" type="line"/>
    </contour>
  </outline>
</glyph>
<glyph name="j" format="2">
  <advance width="666"/>
  <unicode hex="006A"/>
  <anchor x="131" y="-690" name="LL"/>
  <anchor x="361" y="1819" name="LU"/>
  <anchor x="420" y="-200" name="PB"/>
  <anchor x="460" y="200" name="def"/>
  <outline>
    <contour>
      <point x="371" y="1430" type="curve" smooth="yes"/>
      <point x="474" y="1430"/>
      <point x="558" y="1514"/>
      <point x="558" y="1618" type="curve" smooth="yes"/>
      <point x="558" y="1721"/>
      <point x="474" y="1805"/>
      <point x="371" y="1805" type="curve" smooth="yes"/>
      <point x="267" y="1805"/>
      <point x="183" y="1721"/>
      <point x="183" y="1618" type="curve" smooth="yes"/>
      <point x="183" y="1514"/>
      <point x="267" y="1430"/>
    </contour>
    <contour>
      <point x="63" y="-500" type="curve" smooth="yes"/>
      <point x="-23" y="-500"/>
      <point x="-108" y="-452"/>
      <point x="-86" y="-396" type="curve"/>
      <point x="-133" y="-444" type="line"/>
      <point x="-77" y="-449"/>
      <point x="29" y="-392"/>
      <point x="29" y="-293" type="curve" smooth="yes"/>
      <point x="29" y="-207"/>
      <point x="-41" y="-138"/>
      <point x="-126" y="-138" type="curve" smooth="yes"/>
      <point x="-201" y="-138"/>
      <point x="-281" y="-197"/>
      <point x="-281" y="-313" type="curve" smooth="yes"/>
      <point x="-281" y="-467"/>
      <point x="-171" y="-610"/>
      <point x="63" y="-610" type="curve" smooth="yes"/>
      <point x="280" y="-610"/>
      <point x="521" y="-516"/>
      <point x="521" y="-175" type="curve" smooth="yes"/>
      <point x="521" y="1240" type="line"/>
      <point x="41" y="1240" type="line"/>
      <point x="41" y="1135" type="line"/>
      <point x="221" y="1100" type="line"/>
      <point x="221" y="-286" type="line" smooth="yes"/>
      <point x="221" y="-441"/>
      <point x="150" y="-500"/>
    </contour>
  </outline>
</glyph>
<glyph name="k" format="2">
  <advance width="1363"/>
  <unicode hex="006B"/>
  <guideline x="1131" y="344" angle="306.7577"/>
  <anchor x="710" y="-110" name="LL"/>
  <anchor x="710" y="1880" name="LU"/>
  <anchor x="570" y="0" name="PB"/>
  <anchor x="650" y="200" name="def"/>
  <outline>
    <contour>
      <point x="510" y="140" type="line"/>
      <point x="510" y="1793" type="line"/>
      <point x="50" y="1793" type="line"/>
      <point x="50" y="1688" type="line"/>
      <point x="210" y="1658" type="line"/>
      <point x="210" y="140" type="line"/>
      <point x="50" y="105" type="line"/>
      <point x="50" y="0" type="line"/>
      <point x="648" y="0" type="line"/>
      <point x="648" y="105" type="line"/>
    </contour>
    <contour>
      <point x="1024" y="164" type="line"/>
      <point x="795" y="110" type="line"/>
      <point x="795" y="5" type="line"/>
      <point x="1414" y="5" type="line"/>
      <point x="1414" y="110" type="line"/>
      <point x="1272" y="155" type="line"/>
      <point x="759" y="842" type="line"/>
      <point x="564" y="630" type="line"/>
      <point x="992" y="57" type="line"/>
    </contour>
    <contour>
      <point x="1145" y="1095" type="line"/>
      <point x="1314" y="1135" type="line"/>
      <point x="1314" y="1240" type="line"/>
      <point x="780" y="1240" type="line"/>
      <point x="780" y="1135" type="line"/>
      <point x="1048" y="1082" type="line"/>
      <point x="1020" y="1173" type="line"/>
      <point x="405" y="487" type="line"/>
      <point x="436" y="350" type="line"/>
    </contour>
  </outline>
</glyph>
<glyph name="l" format="2">
  <advance width="663"/>
  <unicode hex="006C"/>
  <anchor x="520" y="0" name="PB"/>
  <anchor x="440" y="200" name="def"/>
  <outline>
    <contour>
      <point x="464" y="1470" type="line"/>
      <point x="366" y="1470" type="line"/>
      <point x="50" y="1332" type="line"/>
      <point x="78" y="1255" type="line"/>
      <point x="138" y="1274"/>
      <point x="178" y="1285"/>
      <point x="191" y="1285" type="curve"/>
      <point x="213" y="1285"/>
      <point x="213" y="1244"/>
      <point x="213" y="1152" type="curve"/>
      <point x="213" y="238" type="line"/>
      <point x="213" y="121"/>
      <point x="191" y="75"/>
      <point x="67" y="75" type="curve"/>
      <point x="67" y="0" type="line"/>
      <point x="613" y="0" type="line"/>
      <point x="613" y="75" type="line"/>
      <point x="490" y="75"/>
      <point x="464" y="121"/>
      <point x="464" y="238" type="curve"/>
    </contour>
  </outline>
</glyph>
<glyph name="m" format="2">
  <advance width="2213"/>
  <unicode hex="006D"/>
  <anchor x="1116" y="-110" name="LL"/>
  <anchor x="1116" y="1350" name="LU"/>
  <anchor x="581" y="0" name="PB"/>
  <anchor x="821" y="0" name="def"/>
  <outline>
    <contour>
      <point x="552" y="140" type="line"/>
      <point x="552" y="1240" type="line"/>
      <point x="92" y="1240" type="line"/>
      <point x="92" y="1135" type="line"/>
      <point x="252" y="1100" type="line"/>
      <point x="252" y="140" type="line"/>
      <point x="92" y="105" type="line"/>
      <point x="92" y="0" type="line"/>
      <point x="702" y="0" type="line"/>
      <point x="702" y="105" type="line"/>
    </contour>
    <contour>
      <point x="816" y="0" type="line"/>
      <point x="1416" y="0" type="line"/>
      <point x="1416" y="105" type="line"/>
      <point x="1266" y="140" type="line"/>
      <point x="1266" y="968" type="line" smooth="yes"/>
      <point x="1266" y="1142"/>
      <point x="1096" y="1255"/>
      <point x="900" y="1255" type="curve" smooth="yes"/>
      <point x="763" y="1255"/>
      <point x="591" y="1162"/>
      <point x="467" y="1080" type="curve"/>
      <point x="497" y="971" type="line"/>
      <point x="646" y="1067"/>
      <point x="733" y="1107"/>
      <point x="830" y="1107" type="curve" smooth="yes"/>
      <point x="931" y="1107"/>
      <point x="966" y="1071"/>
      <point x="966" y="956" type="curve" smooth="yes"/>
      <point x="966" y="140" type="line"/>
      <point x="816" y="105" type="line"/>
    </contour>
    <contour>
      <point x="1530" y="0" type="line"/>
      <point x="2130" y="0" type="line"/>
      <point x="2130" y="105" type="line"/>
      <point x="1980" y="140" type="line"/>
      <point x="1980" y="968" type="line" smooth="yes"/>
      <point x="1980" y="1142"/>
      <point x="1810" y="1255"/>
      <point x="1614" y="1255" type="curve" smooth="yes"/>
      <point x="1477" y="1255"/>
      <point x="1305" y="1162"/>
      <point x="1181" y="1080" type="curve"/>
      <point x="1211" y="971" type="line"/>
      <point x="1360" y="1067"/>
      <point x="1447" y="1107"/>
      <point x="1544" y="1107" type="curve" smooth="yes"/>
      <point x="1645" y="1107"/>
      <point x="1680" y="1071"/>
      <point x="1680" y="956" type="curve" smooth="yes"/>
      <point x="1680" y="140" type="line"/>
      <point x="1530" y="105" type="line"/>
    </contour>
  </outline>
</glyph>
<glyph name="n" format="2">
  <advance width="1541"/>
  <unicode hex="006E"/>
  <anchor x="780" y="-110" name="LL"/>
  <anchor x="780" y="1350" name="LU"/>
  <anchor x="570" y="0" name="PB"/>
  <anchor x="630" y="0" name="def"/>
  <outline>
    <contour>
      <point x="552" y="130" type="line"/>
      <point x="552" y="1240" type="line"/>
      <point x="102" y="1240" type="line"/>
      <point x="102" y="1145" type="line"/>
      <point x="252" y="1110" type="line"/>
      <point x="252" y="130" type="line"/>
      <point x="102" y="95" type="line"/>
      <point x="102" y="0" type="line"/>
      <point x="682" y="0" type="line"/>
      <point x="682" y="95" type="line"/>
    </contour>
    <contour>
      <point x="878" y="0" type="line"/>
      <point x="1458" y="0" type="line"/>
      <point x="1458" y="105" type="line"/>
      <point x="1308" y="140" type="line"/>
      <point x="1308" y="968" type="line" smooth="yes"/>
      <point x="1308" y="1142"/>
      <point x="1148" y="1255"/>
      <point x="952" y="1255" type="curve" smooth="yes"/>
      <point x="771" y="1255"/>
      <point x="611" y="1207"/>
      <point x="481" y="1111" type="curve"/>
      <point x="511" y="1006" type="line"/>
      <point x="638" y="1096"/>
      <point x="745" y="1118"/>
      <point x="852" y="1118" type="curve" smooth="yes"/>
      <point x="943" y="1118"/>
      <point x="1008" y="1071"/>
      <point x="1008" y="956" type="curve" smooth="yes"/>
      <point x="1008" y="140" type="line"/>
      <point x="878" y="105" type="line"/>
    </contour>
  </outline>
</glyph>
<glyph name="o" format="2">
  <advance width="1248"/>
  <unicode hex="006F"/>
  <anchor x="899" y="1010" name="LH"/>
  <anchor x="624" y="-110" name="LL"/>
  <anchor x="624" y="1350" name="LU"/>
  <anchor x="521" y="0" name="PB"/>
  <anchor x="581" y="0" name="def"/>
  <outline>
    <contour>
      <point x="624" y="-20" type="curve" smooth="yes"/>
      <point x="948" y="-20"/>
      <point x="1133" y="103"/>
      <point x="1133" y="618" type="curve" smooth="yes"/>
      <point x="1133" y="1133"/>
      <point x="948" y="1256"/>
      <point x="624" y="1256" type="curve" smooth="yes"/>
      <point x="300" y="1256"/>
      <point x="115" y="1133"/>
      <point x="115" y="618" type="curve" smooth="yes"/>
      <point x="115" y="103"/>
      <point x="300" y="-20"/>
    </contour>
    <contour>
      <point x="624" y="117" type="curve" smooth="yes"/>
      <point x="488" y="117"/>
      <point x="430" y="198"/>
      <point x="430" y="618" type="curve" smooth="yes"/>
      <point x="430" y="1038"/>
      <point x="488" y="1119"/>
      <point x="624" y="1119" type="curve" smooth="yes"/>
      <point x="760" y="1119"/>
      <point x="818" y="1038"/>
      <point x="818" y="618" type="curve" smooth="yes"/>
      <point x="818" y="198"/>
      <point x="760" y="117"/>
    </contour>
  </outline>
</glyph>
<glyph name="p" format="2">
  <advance width="1372"/>
  <unicode hex="0070"/>
  <anchor x="680" y="-690" name="LL"/>
  <anchor x="680" y="1350" name="LU"/>
  <anchor x="530" y="-200" name="PB"/>
  <anchor x="590" y="0" name="def"/>
  <outline>
    <contour>
      <point x="510" y="-470" type="line"/>
      <point x="510" y="1239" type="line"/>
      <point x="60" y="1239" type="line"/>
      <point x="60" y="1144" type="line"/>
      <point x="210" y="1109" type="line"/>
      <point x="210" y="-470" type="line"/>
      <point x="60" y="-505" type="line"/>
      <point x="60" y="-600" type="line"/>
      <point x="680" y="-600" type="line"/>
      <point x="680" y="-505" type="line"/>
    </contour>
    <contour>
      <point x="1257" y="636" type="curve" smooth="yes"/>
      <point x="1257" y="1179"/>
      <point x="1084" y="1255"/>
      <point x="854" y="1255" type="curve" smooth="yes"/>
      <point x="681" y="1255"/>
      <point x="562" y="1194"/>
      <point x="451" y="1091" type="curve"/>
      <point x="481" y="981" type="line"/>
      <point x="605" y="1084"/>
      <point x="689" y="1113"/>
      <point x="778" y="1113" type="curve" smooth="yes"/>
      <point x="899" y="1113"/>
      <point x="957" y="1055"/>
      <point x="957" y="636" type="curve" smooth="yes"/>
      <point x="957" y="271"/>
      <point x="900" y="125"/>
      <point x="749" y="125" type="curve" smooth="yes"/>
      <point x="658" y="125"/>
      <point x="559" y="157"/>
      <point x="490" y="246" type="curve"/>
      <point x="435" y="131" type="line"/>
      <point x="542" y="15"/>
      <point x="665" y="-20"/>
      <point x="798" y="-20" type="curve" smooth="yes"/>
      <point x="1075" y="-20"/>
      <point x="1257" y="146"/>
    </contour>
  </outline>
</glyph>
<glyph name="q" format="2">
  <advance width="1139"/>
  <unicode hex="0071"/>
  <anchor x="520" y="-200" name="PB"/>
  <anchor x="560" y="0" name="def"/>
  <outline>
    <contour>
      <point x="723" y="-159" type="line"/>
      <point x="723" y="-276"/>
      <point x="697" y="-321"/>
      <point x="573" y="-321" type="curve"/>
      <point x="573" y="-401" type="line"/>
      <point x="1119" y="-401" type="line"/>
      <point x="1119" y="-321" type="line"/>
      <point x="995" y="-321"/>
      <point x="969" y="-279"/>
      <point x="969" y="-159" type="curve"/>
      <point x="969" y="1004" type="line"/>
      <point x="875" y="1004" type="line"/>
      <point x="771" y="948" type="line"/>
      <point x="728" y="979"/>
      <point x="652" y="1004"/>
      <point x="581" y="1004" type="curve"/>
      <point x="300" y="1004"/>
      <point x="70" y="755"/>
      <point x="70" y="446" type="curve"/>
      <point x="70" y="187"/>
      <point x="241" y="-22"/>
      <point x="453" y="-22" type="curve"/>
      <point x="577" y="-22"/>
      <point x="660" y="22"/>
      <point x="723" y="80" type="curve"/>
    </contour>
    <contour>
      <point x="544" y="162" type="curve" smooth="yes"/>
      <point x="423" y="162"/>
      <point x="329" y="332"/>
      <point x="329" y="544" type="curve"/>
      <point x="329" y="737"/>
      <point x="431" y="896"/>
      <point x="559" y="896" type="curve"/>
      <point x="596" y="896"/>
      <point x="652" y="869"/>
      <point x="679" y="840" type="curve"/>
      <point x="702" y="816"/>
      <point x="723" y="785"/>
      <point x="723" y="737" type="curve"/>
      <point x="723" y="260" type="line"/>
      <point x="691" y="215"/>
      <point x="621" y="162"/>
    </contour>
  </outline>
</glyph>
<glyph name="r" format="2">
  <advance width="1405"/>
  <unicode hex="0072"/>
  <anchor x="741" y="-110" name="LL"/>
  <anchor x="741" y="1350" name="LU"/>
  <anchor x="620" y="0" name="PB"/>
  <anchor x="580" y="0" name="def"/>
  <outline>
    <contour>
      <point x="545" y="120" type="line"/>
      <point x="545" y="1240" type="line"/>
      <point x="95" y="1240" type="line"/>
      <point x="95" y="1155" type="line"/>
      <point x="245" y="1120" type="line"/>
      <point x="245" y="120" type="line"/>
      <point x="95" y="85" type="line"/>
      <point x="95" y="0" type="line"/>
      <point x="715" y="0" type="line"/>
      <point x="715" y="85" type="line"/>
    </contour>
    <contour>
      <point x="953" y="1129" type="curve" smooth="yes"/>
      <point x="1020" y="1129"/>
      <point x="1169" y="1115"/>
      <point x="1188" y="1050" type="curve"/>
      <point x="1232" y="1067" type="line"/>
      <point x="1124" y="1127"/>
      <point x="1004" y="1042"/>
      <point x="1004" y="933" type="curve" smooth="yes"/>
      <point x="1004" y="854"/>
      <point x="1073" y="796"/>
      <point x="1159" y="796" type="curve" smooth="yes"/>
      <point x="1259" y="796"/>
      <point x="1325" y="888"/>
      <point x="1325" y="1004" type="curve" smooth="yes"/>
      <point x="1325" y="1121"/>
      <point x="1192" y="1255"/>
      <point x="958" y="1255" type="curve" smooth="yes"/>
      <point x="806" y="1255"/>
      <point x="618" y="1183"/>
      <point x="484" y="1071" type="curve"/>
      <point x="514" y="974" type="line"/>
      <point x="641" y="1075"/>
      <point x="816" y="1129"/>
    </contour>
  </outline>
</glyph>
<glyph name="s" format="2">
  <advance width="1185"/>
  <unicode hex="0073"/>
  <anchor x="607" y="-110" name="LL"/>
  <anchor x="607" y="1350" name="LU"/>
  <anchor x="520" y="0" name="PB"/>
  <anchor x="520" y="0" name="def"/>
  <outline>
    <contour>
      <point x="564" y="-20" type="curve" smooth="yes"/>
      <point x="887" y="-20"/>
      <point x="1117" y="60"/>
      <point x="1117" y="326" type="curve" smooth="yes"/>
      <point x="1117" y="526"/>
      <point x="970" y="664"/>
      <point x="723" y="733" type="curve" smooth="yes"/>
      <point x="483" y="800"/>
      <point x="385" y="836"/>
      <point x="385" y="955" type="curve" smooth="yes"/>
      <point x="385" y="1051"/>
      <point x="459" y="1111"/>
      <point x="632" y="1111" type="curve" smooth="yes"/>
      <point x="782" y="1111"/>
      <point x="880" y="1077"/>
      <point x="901" y="1017" type="curve"/>
      <point x="992" y="1060" type="line"/>
      <point x="964" y="1075"/>
      <point x="936" y="1082"/>
      <point x="909" y="1082" type="curve" smooth="yes"/>
      <point x="831" y="1082"/>
      <point x="764" y="1023"/>
      <point x="764" y="942" type="curve" smooth="yes"/>
      <point x="764" y="858"/>
      <point x="844" y="803"/>
      <point x="923" y="803" type="curve" smooth="yes"/>
      <point x="1001" y="803"/>
      <point x="1077" y="855"/>
      <point x="1077" y="980" type="curve" smooth="yes"/>
      <point x="1077" y="1117"/>
      <point x="923" y="1255"/>
      <point x="641" y="1255" type="curve" smooth="yes"/>
      <point x="338" y="1255"/>
      <point x="108" y="1135"/>
      <point x="108" y="899" type="curve" smooth="yes"/>
      <point x="108" y="668"/>
      <point x="302" y="567"/>
      <point x="525" y="505" type="curve" smooth="yes"/>
      <point x="758" y="440"/>
      <point x="850" y="378"/>
      <point x="850" y="284" type="curve" smooth="yes"/>
      <point x="850" y="172"/>
      <point x="746" y="124"/>
      <point x="573" y="124" type="curve" smooth="yes"/>
      <point x="373" y="124"/>
      <point x="280" y="186"/>
      <point x="259" y="246" type="curve"/>
      <point x="173" y="195" type="line"/>
      <point x="201" y="180"/>
      <point x="229" y="173"/>
      <point x="256" y="173" type="curve" smooth="yes"/>
      <point x="334" y="173"/>
      <point x="401" y="232"/>
      <point x="401" y="313" type="curve" smooth="yes"/>
      <point x="401" y="392"/>
      <point x="332" y="450"/>
      <point x="246" y="450" type="curve" smooth="yes"/>
      <point x="149" y="450"/>
      <point x="88" y="376"/>
      <point x="88" y="263" type="curve" smooth="yes"/>
      <point x="88" y="126"/>
      <point x="222" y="-20"/>
    </contour>
  </outline>
</glyph>
<glyph name="t" format="2">
  <advance width="904"/>
  <unicode hex="0074"/>
  <anchor x="611" y="-110" name="LL"/>
  <anchor x="441" y="1540" name="LU"/>
  <anchor x="620" y="0" name="PB"/>
  <anchor x="540" y="160" name="def"/>
  <outline>
    <contour>
      <point x="602" y="-20" type="curve" smooth="yes"/>
      <point x="714" y="-20"/>
      <point x="793" y="-9"/>
      <point x="850" y="22" type="curve"/>
      <point x="808" y="155" type="line"/>
      <point x="782" y="138"/>
      <point x="734" y="126"/>
      <point x="680" y="126" type="curve" smooth="yes"/>
      <point x="582" y="126"/>
      <point x="535" y="200"/>
      <point x="535" y="282" type="curve" smooth="yes"/>
      <point x="535" y="1460" type="line"/>
      <point x="235" y="1460" type="line"/>
      <point x="235" y="297" type="line" smooth="yes"/>
      <point x="235" y="106"/>
      <point x="405" y="-20"/>
    </contour>
    <contour>
      <point x="100" y="1090" type="line"/>
      <point x="767" y="1090" type="line"/>
      <point x="767" y="1240" type="line"/>
      <point x="100" y="1240" type="line"/>
    </contour>
  </outline>
</glyph>
<glyph name="u" format="2">
  <advance width="1510"/>
  <unicode hex="0075"/>
  <anchor x="700" y="-110" name="LL"/>
  <anchor x="700" y="1350" name="LU"/>
  <anchor x="519" y="0" name="PB"/>
  <anchor x="579" y="0" name="def"/>
  <outline>
    <contour>
      <point x="1277" y="140" type="line"/>
      <point x="1277" y="1240" type="line"/>
      <point x="797" y="1240" type="line"/>
      <point x="797" y="1135" type="line"/>
      <point x="977" y="1100" type="line"/>
      <point x="977" y="0" type="line"/>
      <point x="1437" y="0" type="line"/>
      <point x="1437" y="105" type="line"/>
    </contour>
    <contour>
      <point x="679" y="133" type="curve" smooth="yes"/>
      <point x="585" y="133"/>
      <point x="533" y="164"/>
      <point x="533" y="279" type="curve" smooth="yes"/>
      <point x="533" y="1240" type="line"/>
      <point x="73" y="1240" type="line"/>
      <point x="73" y="1135" type="line"/>
      <point x="233" y="1100" type="line"/>
      <point x="233" y="267" type="line" smooth="yes"/>
      <point x="233" y="93"/>
      <point x="388" y="-20"/>
      <point x="569" y="-20" type="curve" smooth="yes"/>
      <point x="794" y="-20"/>
      <point x="920" y="62"/>
      <point x="1050" y="153" type="curve"/>
      <point x="1020" y="260" type="line"/>
      <point x="893" y="170"/>
      <point x="791" y="133"/>
    </contour>
  </outline>
</glyph>
<glyph name="v" format="2">
  <advance width="1268"/>
  <unicode hex="0076"/>
  <guideline x="838" y="649" angle="71.474"/>
  <anchor x="687" y="-110" name="LL"/>
  <anchor x="687" y="1350" name="LU"/>
  <anchor x="576" y="0" name="PB"/>
  <anchor x="558" y="0" name="def"/>
  <outline>
    <contour>
      <point x="99" y="1190" type="line"/>
      <point x="505" y="0" type="line"/>
      <point x="764" y="0" type="line"/>
      <point x="1169" y="1190" type="line"/>
      <point x="1061" y="1066" type="line"/>
      <point x="1304" y="1135" type="line"/>
      <point x="1304" y="1240" type="line"/>
      <point x="816" y="1240" type="line"/>
      <point x="816" y="1135" type="line"/>
      <point x="1077" y="1083" type="line"/>
      <point x="1021" y="1200" type="line"/>
      <point x="679" y="177" type="line"/>
      <point x="747" y="177" type="line"/>
      <point x="404" y="1200" type="line"/>
      <point x="351" y="1074" type="line"/>
      <point x="549" y="1135" type="line"/>
      <point x="549" y="1240" type="line"/>
      <point x="-36" y="1240" type="line"/>
      <point x="-36" y="1135" type="line"/>
      <point x="207" y="1066" type="line"/>
    </contour>
  </outline>
</glyph>
<glyph name="w" format="2">
  <advance width="1883"/>
  <unicode hex="0077"/>
  <anchor x="965" y="-110" name="LL"/>
  <anchor x="965" y="1350" name="LU"/>
  <anchor x="570" y="0" name="PB"/>
  <anchor x="552" y="0" name="def"/>
  <outline>
    <contour>
      <point x="739" y="0" type="line"/>
      <point x="1035" y="866" type="line"/>
      <point x="933" y="1022" type="line"/>
      <point x="626" y="71" type="line"/>
      <point x="753" y="152" type="line"/>
      <point x="560" y="152" type="line"/>
      <point x="724" y="71" type="line"/>
      <point x="395" y="1201" type="line"/>
      <point x="282" y="1081" type="line"/>
      <point x="569" y="1135" type="line"/>
      <point x="569" y="1240" type="line"/>
      <point x="-40" y="1240" type="line"/>
      <point x="-40" y="1135" type="line"/>
      <point x="255" y="1066" type="line"/>
      <point x="96" y="1191" type="line"/>
      <point x="466" y="0" type="line"/>
    </contour>
    <contour>
      <point x="1416" y="152" type="line"/>
      <point x="1224" y="152" type="line"/>
      <point x="1385" y="70" type="line"/>
      <point x="1079" y="1202" type="line"/>
      <point x="965" y="1081" type="line"/>
      <point x="1251" y="1135" type="line"/>
      <point x="1251" y="1240" type="line"/>
      <point x="652" y="1240" type="line"/>
      <point x="652" y="1135" type="line"/>
      <point x="934" y="1081" type="line"/>
      <point x="773" y="1201" type="line"/>
      <point x="1127" y="0" type="line"/>
      <point x="1403" y="0" type="line"/>
      <point x="1787" y="1191" type="line"/>
      <point x="1664" y="1066" type="line"/>
      <point x="1923" y="1135" type="line"/>
      <point x="1923" y="1240" type="line"/>
      <point x="1468" y="1240" type="line"/>
      <point x="1468" y="1135" type="line"/>
      <point x="1710" y="1081" type="line"/>
      <point x="1642" y="1201" type="line"/>
      <point x="1295" y="71" type="line"/>
    </contour>
  </outline>
</glyph>
<glyph name="x" format="2">
  <advance width="1458"/>
  <unicode hex="0078"/>
  <guideline x="1920" y="690" angle="127.3906"/>
  <anchor x="665" y="-110" name="LL"/>
  <anchor x="792" y="1350" name="LU"/>
  <anchor x="564" y="0" name="PB"/>
  <anchor x="546" y="0" name="def"/>
  <outline>
    <contour>
      <point x="1001" y="160" type="line"/>
      <point x="775" y="105" type="line"/>
      <point x="775" y="0" type="line"/>
      <point x="1428" y="0" type="line"/>
      <point x="1428" y="105" type="line"/>
      <point x="1195" y="174" type="line"/>
      <point x="1335" y="61" type="line"/>
      <point x="480" y="1189" type="line"/>
      <point x="447" y="1080" type="line"/>
      <point x="676" y="1135" type="line"/>
      <point x="676" y="1240" type="line"/>
      <point x="30" y="1240" type="line"/>
      <point x="30" y="1135" type="line"/>
      <point x="253" y="1066" type="line"/>
      <point x="123" y="1179" type="line"/>
      <point x="968" y="51" type="line"/>
    </contour>
    <contour>
      <point x="836" y="601" type="line"/>
      <point x="1277" y="1178" type="line"/>
      <point x="1145" y="1068" type="line"/>
      <point x="1408" y="1135" type="line"/>
      <point x="1408" y="1240" type="line"/>
      <point x="913" y="1240" type="line"/>
      <point x="913" y="1135" type="line"/>
      <point x="1142" y="1080" type="line"/>
      <point x="1110" y="1188" type="line"/>
      <point x="725" y="688" type="line"/>
      <point x="639" y="659" type="line"/>
      <point x="182" y="61" type="line"/>
      <point x="313" y="172" type="line"/>
      <point x="40" y="105" type="line"/>
      <point x="40" y="0" type="line"/>
      <point x="544" y="0" type="line"/>
      <point x="544" y="105" type="line"/>
      <point x="316" y="160" type="line"/>
      <point x="349" y="51" type="line"/>
      <point x="750" y="572" type="line"/>
    </contour>
  </outline>
</glyph>
<glyph name="y" format="2">
  <advance width="1123"/>
  <unicode hex="0079"/>
  <anchor x="915" y="-350" name="LL"/>
  <anchor x="754" y="1350" name="LU"/>
  <anchor x="520" y="-200" name="PB"/>
  <anchor x="502" y="0" name="def"/>
  <outline>
    <contour>
      <point x="448" y="-95" type="line"/>
      <point x="422" y="-154"/>
      <point x="389" y="-227"/>
      <point x="359" y="-227" type="curve"/>
      <point x="341" y="-227"/>
      <point x="328" y="-220"/>
      <point x="315" y="-212" type="curve"/>
      <point x="297" y="-201"/>
      <point x="278" y="-190"/>
      <point x="221" y="-190" type="curve"/>
      <point x="121" y="-190"/>
      <point x="79" y="-237"/>
      <point x="79" y="-305" type="curve"/>
      <point x="79" y="-381"/>
      <point x="160" y="-437"/>
      <point x="254" y="-437" type="curve"/>
      <point x="382" y="-437"/>
      <point x="517" y="-331"/>
      <point x="582" y="-174" type="curve"/>
      <point x="964" y="754" type="line" smooth="yes"/>
      <point x="1010" y="865"/>
      <point x="1026" y="907"/>
      <point x="1113" y="907" type="curve"/>
      <point x="1113" y="982" type="line"/>
      <point x="728" y="982" type="line"/>
      <point x="728" y="907" type="line"/>
      <point x="792" y="907"/>
      <point x="821" y="896"/>
      <point x="821" y="867" type="curve"/>
      <point x="821" y="842"/>
      <point x="812" y="811"/>
      <point x="796" y="772" type="curve" smooth="yes"/>
      <point x="637" y="376" type="line"/>
      <point x="468" y="724" type="line"/>
      <point x="444" y="772"/>
      <point x="422" y="817"/>
      <point x="422" y="853" type="curve"/>
      <point x="422" y="879"/>
      <point x="432" y="907"/>
      <point x="523" y="907" type="curve"/>
      <point x="523" y="982" type="line"/>
      <point x="10" y="982" type="line"/>
      <point x="10" y="907" type="line"/>
      <point x="81" y="907"/>
      <point x="149" y="837"/>
      <point x="225" y="674" type="curve"/>
      <point x="512" y="65" type="line"/>
    </contour>
  </outline>
</glyph>
<glyph name="z" format="2">
  <advance width="1127"/>
  <unicode hex="007A"/>
  <anchor x="581" y="-110" name="LL"/>
  <anchor x="581" y="1350" name="LU"/>
  <anchor x="520" y="0" name="PB"/>
  <anchor x="502" y="0" name="def"/>
  <outline>
    <contour>
      <point x="353" y="40" type="line"/>
      <point x="1070" y="1161" type="line"/>
      <point x="1070" y="1240" type="line"/>
      <point x="138" y="1240" type="line"/>
      <point x="138" y="913" type="line"/>
      <point x="243" y="913" type="line"/>
      <point x="278" y="1103" type="line"/>
      <point x="856" y="1103" type="line"/>
      <point x="752" y="1201" type="line"/>
      <point x="35" y="80" type="line"/>
      <point x="35" y="0" type="line"/>
      <point x="1027" y="0" type="line"/>
      <point x="1027" y="328" type="line"/>
      <point x="922" y="328" type="line"/>
      <point x="887" y="138" type="line"/>
      <point x="249" y="138" type="line"/>
    </contour>
  </outline>
</glyph>
<glyph name="braceleft" format="2">
  <advance width="935"/>
  <unicode hex="007B"/>
  <outline>
    <contour>
      <point x="815" y="2018" type="line"/>
      <point x="565" y="2018"/>
      <point x="357" y="1804"/>
      <point x="357" y="1516" type="curve" smooth="yes"/>
      <point x="357" y="1423"/>
      <point x="391" y="1366"/>
      <point x="391" y="1231" type="curve" smooth="yes"/>
      <point x="391" y="1041"/>
      <point x="293" y="918"/>
      <point x="160" y="918" type="curve"/>
      <point x="160" y="859" type="line"/>
      <point x="293" y="859"/>
      <point x="391" y="736"/>
      <point x="391" y="542" type="curve" smooth="yes"/>
      <point x="391" y="424"/>
      <point x="357" y="371"/>
      <point x="357" y="257" type="curve" smooth="yes"/>
      <point x="357" y="-35"/>
      <point x="555" y="-258"/>
      <point x="815" y="-258" type="curve"/>
      <point x="885" y="-218" type="line"/>
      <point x="737" y="-203"/>
      <point x="649" y="-35"/>
      <point x="649" y="187" type="curve" smooth="yes"/>
      <point x="649" y="301"/>
      <point x="682" y="371"/>
      <point x="682" y="469" type="curve" smooth="yes"/>
      <point x="682" y="674"/>
      <point x="536" y="853"/>
      <point x="382" y="892" type="curve"/>
      <point x="536" y="945"/>
      <point x="682" y="1119"/>
      <point x="682" y="1304" type="curve" smooth="yes"/>
      <point x="682" y="1390"/>
      <point x="649" y="1467"/>
      <point x="649" y="1585" type="curve" smooth="yes"/>
      <point x="649" y="1799"/>
      <point x="737" y="1963"/>
      <point x="885" y="1979" type="curve"/>
    </contour>
  </outline>
</glyph>
<glyph name="bar" format="2">
  <advance width="577"/>
  <unicode hex="007C"/>
  <outline>
    <contour>
      <point x="200" y="1437" type="line"/>
      <point x="200" y="-474" type="line"/>
      <point x="377" y="-474" type="line"/>
      <point x="377" y="1437" type="line"/>
    </contour>
  </outline>
</glyph>
<glyph name="braceright" format="2">
  <advance width="768"/>
  <unicode hex="007D"/>
  <outline>
    <contour>
      <point x="40" y="-326" type="line"/>
      <point x="308" y="-326"/>
      <point x="527" y="-121"/>
      <point x="527" y="131" type="curve"/>
      <point x="527" y="160"/>
      <point x="521" y="193"/>
      <point x="513" y="231" type="curve"/>
      <point x="503" y="278"/>
      <point x="494" y="331"/>
      <point x="494" y="408" type="curve"/>
      <point x="494" y="543"/>
      <point x="599" y="652"/>
      <point x="728" y="652" type="curve"/>
      <point x="728" y="749" type="line"/>
      <point x="599" y="749"/>
      <point x="494" y="858"/>
      <point x="494" y="997" type="curve" smooth="yes"/>
      <point x="494" y="1058"/>
      <point x="502" y="1105"/>
      <point x="510" y="1148" type="curve" smooth="yes"/>
      <point x="519" y="1191"/>
      <point x="527" y="1232"/>
      <point x="527" y="1274" type="curve" smooth="yes"/>
      <point x="527" y="1530"/>
      <point x="308" y="1744"/>
      <point x="40" y="1744" type="curve"/>
      <point x="40" y="1670" type="line"/>
      <point x="184" y="1655"/>
      <point x="299" y="1510"/>
      <point x="299" y="1342" type="curve" smooth="yes"/>
      <point x="299" y="1284"/>
      <point x="292" y="1240"/>
      <point x="284" y="1198" type="curve" smooth="yes"/>
      <point x="276" y="1155"/>
      <point x="267" y="1113"/>
      <point x="267" y="1068" type="curve" smooth="yes"/>
      <point x="267" y="919"/>
      <point x="377" y="757"/>
      <point x="520" y="696" type="curve"/>
      <point x="377" y="625"/>
      <point x="267" y="469"/>
      <point x="267" y="337" type="curve"/>
      <point x="267" y="299"/>
      <point x="274" y="261"/>
      <point x="283" y="218" type="curve"/>
      <point x="291" y="175"/>
      <point x="299" y="127"/>
      <point x="299" y="64" type="curve"/>
      <point x="299" y="-97"/>
      <point x="184" y="-238"/>
      <point x="40" y="-253" type="curve"/>
    </contour>
  </outline>
</glyph>
<glyph name="asciitilde" format="2">
  <advance width="1300"/>
  <unicode hex="007E"/>
  <outline>
    <contour>
      <point x="1107" y="905" type="line"/>
      <point x="1074" y="807"/>
      <point x="1033" y="716"/>
      <point x="947" y="716" type="curve"/>
      <point x="902" y="716"/>
      <point x="828" y="755"/>
      <point x="747" y="797" type="curve"/>
      <point x="647" y="848"/>
      <point x="538" y="905"/>
      <point x="423" y="905" type="curve"/>
      <point x="200" y="905"/>
      <point x="70" y="775"/>
      <point x="70" y="536" type="curve"/>
      <point x="196" y="536" type="line"/>
      <point x="215" y="633"/>
      <point x="291" y="725"/>
      <point x="371" y="725" type="curve"/>
      <point x="427" y="725"/>
      <point x="492" y="688"/>
      <point x="562" y="648" type="curve"/>
      <point x="655" y="595"/>
      <point x="758" y="536"/>
      <point x="903" y="536" type="curve"/>
      <point x="1103" y="536"/>
      <point x="1230" y="662"/>
      <point x="1230" y="905" type="curve"/>
    </contour>
  </outline>
</glyph>
<glyph name="cent" format="2">
  <advance width="1310"/>
  <unicode hex="00A2"/>
  <anchor x="603" y="0" name="PB"/>
  <anchor x="643" y="0" name="def"/>
  <outline>
    <contour>
      <point x="779" y="-200" type="line"/>
      <point x="779" y="1455" type="line"/>
      <point x="635" y="1455" type="line"/>
      <point x="641" y="-200" type="line"/>
    </contour>
    <contour>
      <point x="791" y="1112" type="curve" smooth="yes"/>
      <point x="978" y="1112"/>
      <point x="1047" y="1082"/>
      <point x="1066" y="1017" type="curve"/>
      <point x="1110" y="1034" type="line"/>
      <point x="1002" y="1094"/>
      <point x="882" y="1009"/>
      <point x="882" y="900" type="curve" smooth="yes"/>
      <point x="882" y="821"/>
      <point x="941" y="763"/>
      <point x="1037" y="763" type="curve" smooth="yes"/>
      <point x="1137" y="763"/>
      <point x="1203" y="855"/>
      <point x="1203" y="971" type="curve" smooth="yes"/>
      <point x="1203" y="1130"/>
      <point x="1077" y="1255"/>
      <point x="764" y="1255" type="curve" smooth="yes"/>
      <point x="421" y="1255"/>
      <point x="115" y="1129"/>
      <point x="115" y="603" type="curve" smooth="yes"/>
      <point x="115" y="138"/>
      <point x="408" y="10"/>
      <point x="748" y="10" type="curve" smooth="yes"/>
      <point x="992" y="10"/>
      <point x="1205" y="179"/>
      <point x="1205" y="375" type="curve"/>
      <point x="1068" y="375" type="line"/>
      <point x="1068" y="259"/>
      <point x="945" y="147"/>
      <point x="760" y="147" type="curve" smooth="yes"/>
      <point x="562" y="147"/>
      <point x="430" y="306"/>
      <point x="430" y="627" type="curve" smooth="yes"/>
      <point x="430" y="1005"/>
      <point x="610" y="1112"/>
    </contour>
  </outline>
</glyph>
<glyph name="sterling" format="2">
  <advance width="1287"/>
  <unicode hex="00A3"/>
  <outline>
    <contour>
      <point x="127" y="807" type="line"/>
      <point x="817" y="807" type="line"/>
      <point x="817" y="957" type="line"/>
      <point x="127" y="957" type="line"/>
    </contour>
    <contour>
      <point x="799" y="1514" type="curve" smooth="yes"/>
      <point x="925" y="1514"/>
      <point x="972" y="1470"/>
      <point x="972" y="1417" type="curve"/>
      <point x="1009" y="1442" type="line"/>
      <point x="983" y="1457"/>
      <point x="957" y="1463"/>
      <point x="935" y="1463" type="curve" smooth="yes"/>
      <point x="864" y="1463"/>
      <point x="815" y="1400"/>
      <point x="815" y="1318" type="curve" smooth="yes"/>
      <point x="815" y="1235"/>
      <point x="878" y="1175"/>
      <point x="976" y="1175" type="curve" smooth="yes"/>
      <point x="1081" y="1175"/>
      <point x="1142" y="1258"/>
      <point x="1142" y="1379" type="curve" smooth="yes"/>
      <point x="1142" y="1516"/>
      <point x="1018" y="1660"/>
      <point x="724" y="1660" type="curve" smooth="yes"/>
      <point x="460" y="1660"/>
      <point x="268" y="1454"/>
      <point x="268" y="1186" type="curve" smooth="yes"/>
      <point x="268" y="997"/>
      <point x="280" y="744"/>
      <point x="280" y="455" type="curve" smooth="yes"/>
      <point x="280" y="350"/>
      <point x="224" y="188"/>
      <point x="78" y="130" type="curve"/>
      <point x="78" y="0" type="line"/>
      <point x="1195" y="0" type="line"/>
      <point x="1195" y="342" type="line"/>
      <point x="1090" y="342" type="line"/>
      <point x="1055" y="142" type="line"/>
      <point x="399" y="142" type="line"/>
      <point x="459" y="123" type="line"/>
      <point x="524" y="161"/>
      <point x="594" y="289"/>
      <point x="594" y="498" type="curve" smooth="yes"/>
      <point x="594" y="837"/>
      <point x="582" y="1088"/>
      <point x="582" y="1278" type="curve" smooth="yes"/>
      <point x="582" y="1417"/>
      <point x="640" y="1514"/>
    </contour>
  </outline>
</glyph>
<glyph name="currency" format="2">
  <advance width="1250"/>
  <unicode hex="00A4"/>
  <outline>
    <contour>
      <point x="625" y="344" type="curve" smooth="yes"/>
      <point x="888" y="344"/>
      <point x="1105" y="562"/>
      <point x="1105" y="826" type="curve" smooth="yes"/>
      <point x="1105" y="1089"/>
      <point x="888" y="1307"/>
      <point x="625" y="1307" type="curve" smooth="yes"/>
      <point x="361" y="1307"/>
      <point x="143" y="1089"/>
      <point x="143" y="826" type="curve" smooth="yes"/>
      <point x="143" y="562"/>
      <point x="361" y="344"/>
    </contour>
    <contour>
      <point x="213" y="269" type="line"/>
      <point x="421" y="477" type="line"/>
      <point x="276" y="622" type="line"/>
      <point x="68" y="414" type="line"/>
    </contour>
    <contour>
      <point x="625" y="512" type="curve" smooth="yes"/>
      <point x="451" y="512"/>
      <point x="311" y="652"/>
      <point x="311" y="826" type="curve" smooth="yes"/>
      <point x="311" y="999"/>
      <point x="451" y="1139"/>
      <point x="625" y="1139" type="curve" smooth="yes"/>
      <point x="798" y="1139"/>
      <point x="938" y="999"/>
      <point x="938" y="826" type="curve" smooth="yes"/>
      <point x="938" y="652"/>
      <point x="798" y="512"/>
    </contour>
    <contour>
      <point x="275" y="1031" type="line"/>
      <point x="420" y="1176" type="line"/>
      <point x="212" y="1384" type="line"/>
      <point x="67" y="1239" type="line"/>
    </contour>
    <contour>
      <point x="1043" y="264" type="line"/>
      <point x="1188" y="409" type="line"/>
      <point x="980" y="617" type="line"/>
      <point x="835" y="472" type="line"/>
    </contour>
    <contour>
      <point x="977" y="1034" type="line"/>
      <point x="1185" y="1242" type="line"/>
      <point x="1040" y="1387" type="line"/>
      <point x="832" y="1179" type="line"/>
    </contour>
  </outline>
</glyph>
<glyph name="yen" format="2">
  <advance width="1269"/>
  <unicode hex="00A5"/>
  <guideline x="318" y="774" angle="180"/>
  <outline>
    <contour>
      <point x="204" y="691" type="line"/>
      <point x="204" y="554" type="line"/>
      <point x="1071" y="554" type="line"/>
      <point x="1071" y="691" type="line"/>
    </contour>
    <contour>
      <point x="204" y="435" type="line"/>
      <point x="204" y="298" type="line"/>
      <point x="1071" y="298" type="line"/>
      <point x="1071" y="435" type="line"/>
    </contour>
    <contour>
      <point x="1021" y="1450" type="line"/>
      <point x="595" y="650" type="line"/>
      <point x="773" y="650" type="line"/>
      <point x="1164" y="1377" type="line"/>
      <point x="1305" y="1413" type="line"/>
      <point x="1305" y="1518" type="line"/>
      <point x="836" y="1518" type="line"/>
      <point x="836" y="1413" type="line"/>
      <point x="1089" y="1363" type="line"/>
    </contour>
    <contour>
      <point x="294" y="1358" type="line"/>
      <point x="588" y="1413" type="line"/>
      <point x="588" y="1518" type="line"/>
      <point x="-34" y="1518" type="line"/>
      <point x="-34" y="1413" type="line"/>
      <point x="107" y="1377" type="line"/>
      <point x="515" y="640" type="line"/>
      <point x="774" y="790" type="line"/>
      <point x="413" y="1450" type="line"/>
    </contour>
    <contour>
      <point x="787" y="140" type="line"/>
      <point x="787" y="755" type="line"/>
      <point x="488" y="755" type="line"/>
      <point x="488" y="140" type="line"/>
      <point x="308" y="105" type="line"/>
      <point x="308" y="0" type="line"/>
      <point x="967" y="0" type="line"/>
      <point x="967" y="105" type="line"/>
    </contour>
  </outline>
</glyph>
<glyph name="brokenbar" format="2">
  <advance width="457"/>
  <unicode hex="00A6"/>
  <outline>
    <contour>
      <point x="317" y="312" type="line"/>
      <point x="140" y="312" type="line"/>
      <point x="140" y="-401" type="line"/>
      <point x="317" y="-401" type="line"/>
    </contour>
    <contour>
      <point x="317" y="1437" type="line"/>
      <point x="140" y="1437" type="line"/>
      <point x="140" y="754" type="line"/>
      <point x="317" y="754" type="line"/>
    </contour>
  </outline>
</glyph>
<glyph name="section" format="2">
  <advance width="1056"/>
  <unicode hex="00A7"/>
  <outline>
    <contour>
      <point x="654" y="362" type="line"/>
      <point x="785" y="430"/>
      <point x="977" y="602"/>
      <point x="977" y="801" type="curve" smooth="yes"/>
      <point x="977" y="1189"/>
      <point x="414" y="1265"/>
      <point x="414" y="1545" type="curve" smooth="yes"/>
      <point x="414" y="1603"/>
      <point x="463" y="1662"/>
      <point x="557" y="1662" type="curve" smooth="yes"/>
      <point x="662" y="1662"/>
      <point x="713" y="1605"/>
      <point x="708" y="1553" type="curve"/>
      <point x="728" y="1580" type="line"/>
      <point x="705" y="1595"/>
      <point x="680" y="1602"/>
      <point x="657" y="1602" type="curve" smooth="yes"/>
      <point x="604" y="1602"/>
      <point x="560" y="1551"/>
      <point x="560" y="1492" type="curve" smooth="yes"/>
      <point x="560" y="1437"/>
      <point x="612" y="1384"/>
      <point x="676" y="1384" type="curve" smooth="yes"/>
      <point x="770" y="1384"/>
      <point x="841" y="1435"/>
      <point x="841" y="1533" type="curve" smooth="yes"/>
      <point x="841" y="1650"/>
      <point x="753" y="1789"/>
      <point x="524" y="1789" type="curve" smooth="yes"/>
      <point x="361" y="1789"/>
      <point x="172" y="1699"/>
      <point x="172" y="1490" type="curve" smooth="yes"/>
      <point x="172" y="1088"/>
      <point x="705" y="1065"/>
      <point x="705" y="751" type="curve" smooth="yes"/>
      <point x="705" y="653"/>
      <point x="603" y="528"/>
      <point x="517" y="479" type="curve"/>
    </contour>
    <contour>
      <point x="411" y="1278" type="line"/>
      <point x="280" y="1210"/>
      <point x="88" y="1038"/>
      <point x="88" y="839" type="curve" smooth="yes"/>
      <point x="88" y="451"/>
      <point x="651" y="375"/>
      <point x="651" y="95" type="curve" smooth="yes"/>
      <point x="651" y="37"/>
      <point x="602" y="-22"/>
      <point x="508" y="-22" type="curve" smooth="yes"/>
      <point x="403" y="-22"/>
      <point x="352" y="35"/>
      <point x="357" y="87" type="curve"/>
      <point x="337" y="60" type="line"/>
      <point x="360" y="45"/>
      <point x="385" y="38"/>
      <point x="408" y="38" type="curve" smooth="yes"/>
      <point x="461" y="38"/>
      <point x="505" y="89"/>
      <point x="505" y="148" type="curve" smooth="yes"/>
      <point x="505" y="203"/>
      <point x="453" y="256"/>
      <point x="389" y="256" type="curve" smooth="yes"/>
      <point x="295" y="256"/>
      <point x="224" y="205"/>
      <point x="224" y="107" type="curve" smooth="yes"/>
      <point x="224" y="-10"/>
      <point x="312" y="-149"/>
      <point x="541" y="-149" type="curve" smooth="yes"/>
      <point x="704" y="-149"/>
      <point x="893" y="-59"/>
      <point x="893" y="150" type="curve" smooth="yes"/>
      <point x="893" y="552"/>
      <point x="360" y="575"/>
      <point x="360" y="889" type="curve" smooth="yes"/>
      <point x="360" y="987"/>
      <point x="462" y="1112"/>
      <point x="548" y="1161" type="curve"/>
    </contour>
  </outline>
</glyph>
<glyph name="copyright" format="2">
  <advance width="1715"/>
  <unicode hex="00A9"/>
  <outline>
    <contour>
      <point x="898" y="1119" type="curve" smooth="yes"/>
      <point x="1026" y="1119"/>
      <point x="1078" y="1081"/>
      <point x="1065" y="1059" type="curve"/>
      <point x="1125" y="1031" type="line"/>
      <point x="1103" y="1065"/>
      <point x="1078" y="1078"/>
      <point x="1055" y="1078" type="curve" smooth="yes"/>
      <point x="1009" y="1078"/>
      <point x="986" y="1044"/>
      <point x="986" y="1009" type="curve" smooth="yes"/>
      <point x="986" y="970"/>
      <point x="1014" y="930"/>
      <point x="1068" y="930" type="curve" smooth="yes"/>
      <point x="1115" y="930"/>
      <point x="1163" y="964"/>
      <point x="1163" y="1037" type="curve" smooth="yes"/>
      <point x="1163" y="1112"/>
      <point x="1073" y="1203"/>
      <point x="895" y="1203" type="curve" smooth="yes"/>
      <point x="673" y="1203"/>
      <point x="484" y="1091"/>
      <point x="484" y="725" type="curve" smooth="yes"/>
      <point x="484" y="369"/>
      <point x="651" y="247"/>
      <point x="902" y="247" type="curve" smooth="yes"/>
      <point x="1067" y="247"/>
      <point x="1180" y="366"/>
      <point x="1180" y="480" type="curve"/>
      <point x="1096" y="480" type="line"/>
      <point x="1096" y="404"/>
      <point x="1021" y="338"/>
      <point x="904" y="338" type="curve" smooth="yes"/>
      <point x="753" y="338"/>
      <point x="695" y="459"/>
      <point x="695" y="721" type="curve" smooth="yes"/>
      <point x="695" y="1000"/>
      <point x="726" y="1119"/>
    </contour>
    <contour>
      <point x="860" y="-45" type="curve" smooth="yes"/>
      <point x="1283" y="-45"/>
      <point x="1625" y="301"/>
      <point x="1625" y="725" type="curve" smooth="yes"/>
      <point x="1625" y="1148"/>
      <point x="1281" y="1492"/>
      <point x="858" y="1492" type="curve" smooth="yes"/>
      <point x="434" y="1492"/>
      <point x="90" y="1148"/>
      <point x="90" y="725" type="curve" smooth="yes"/>
      <point x="90" y="301"/>
      <point x="436" y="-45"/>
    </contour>
    <contour>
      <point x="856" y="78" type="curve" smooth="yes"/>
      <point x="498" y="78"/>
      <point x="209" y="367"/>
      <point x="209" y="725" type="curve" smooth="yes"/>
      <point x="209" y="1082"/>
      <point x="498" y="1372"/>
      <point x="856" y="1372" type="curve" smooth="yes"/>
      <point x="1213" y="1372"/>
      <point x="1503" y="1082"/>
      <point x="1503" y="725" type="curve" smooth="yes"/>
      <point x="1503" y="367"/>
      <point x="1213" y="78"/>
    </contour>
  </outline>
</glyph>
<glyph name="guillemotleft" format="2">
  <advance width="1276"/>
  <unicode hex="00AB"/>
  <outline>
    <contour>
      <point x="706" y="200" type="line"/>
      <point x="433" y="693" type="line"/>
      <point x="706" y="1182" type="line"/>
      <point x="569" y="1182" type="line"/>
      <point x="140" y="693" type="line"/>
      <point x="569" y="200" type="line"/>
    </contour>
    <contour>
      <point x="1136" y="200" type="line"/>
      <point x="863" y="693" type="line"/>
      <point x="1136" y="1182" type="line"/>
      <point x="999" y="1182" type="line"/>
      <point x="570" y="693" type="line"/>
      <point x="999" y="200" type="line"/>
    </contour>
  </outline>
</glyph>
<glyph name="logicalnot" format="2">
  <advance width="1294"/>
  <unicode hex="00AC"/>
  <outline>
    <contour>
      <point x="120" y="1025" type="line"/>
      <point x="120" y="852" type="line"/>
      <point x="1001" y="852" type="line"/>
      <point x="1001" y="585" type="line"/>
      <point x="1174" y="585" type="line"/>
      <point x="1174" y="1025" type="line"/>
    </contour>
  </outline>
</glyph>
<glyph name="registered" format="2">
  <advance width="1609"/>
  <unicode hex="00AE"/>
  <guideline x="877" y="503" angle="299.8082"/>
  <outline>
    <contour>
      <point x="801" y="-45" type="curve" smooth="yes"/>
      <point x="1224" y="-45"/>
      <point x="1566" y="301"/>
      <point x="1566" y="725" type="curve" smooth="yes"/>
      <point x="1566" y="1148"/>
      <point x="1222" y="1492"/>
      <point x="799" y="1492" type="curve" smooth="yes"/>
      <point x="375" y="1492"/>
      <point x="31" y="1148"/>
      <point x="31" y="725" type="curve" smooth="yes"/>
      <point x="31" y="301"/>
      <point x="377" y="-45"/>
    </contour>
    <contour>
      <point x="419" y="259" type="line"/>
      <point x="787" y="259" type="line"/>
      <point x="787" y="307" type="line"/>
      <point x="690" y="327" type="line"/>
      <point x="690" y="1200" type="line"/>
      <point x="419" y="1200" type="line"/>
      <point x="419" y="1151" type="line"/>
      <point x="504" y="1131" type="line"/>
      <point x="504" y="327" type="line"/>
      <point x="419" y="307" type="line"/>
    </contour>
    <contour>
      <point x="870" y="259" type="line"/>
      <point x="1234" y="259" type="line"/>
      <point x="1236" y="307" type="line"/>
      <point x="1162" y="330" type="line"/>
      <point x="929" y="746" type="line"/>
      <point x="717" y="746" type="line"/>
      <point x="972" y="303" type="line"/>
      <point x="1063" y="345" type="line"/>
      <point x="870" y="307" type="line"/>
    </contour>
    <contour>
      <point x="797" y="78" type="curve" smooth="yes"/>
      <point x="439" y="78"/>
      <point x="150" y="367"/>
      <point x="150" y="725" type="curve" smooth="yes"/>
      <point x="150" y="1082"/>
      <point x="439" y="1372"/>
      <point x="797" y="1372" type="curve" smooth="yes"/>
      <point x="1154" y="1372"/>
      <point x="1444" y="1082"/>
      <point x="1444" y="725" type="curve" smooth="yes"/>
      <point x="1444" y="367"/>
      <point x="1154" y="78"/>
    </contour>
    <contour>
      <point x="578" y="724" type="line"/>
      <point x="761" y="724" type="line" smooth="yes"/>
      <point x="979" y="724"/>
      <point x="1159" y="796"/>
      <point x="1159" y="967" type="curve" smooth="yes"/>
      <point x="1159" y="1138"/>
      <point x="991" y="1200"/>
      <point x="773" y="1200" type="curve" smooth="yes"/>
      <point x="612" y="1200" type="line"/>
      <point x="612" y="1106" type="line"/>
      <point x="751" y="1106" type="line" smooth="yes"/>
      <point x="903" y="1106"/>
      <point x="975" y="1082"/>
      <point x="975" y="963" type="curve" smooth="yes"/>
      <point x="975" y="851"/>
      <point x="888" y="818"/>
      <point x="745" y="818" type="curve" smooth="yes"/>
      <point x="578" y="818" type="line"/>
    </contour>
  </outline>
</glyph>
<glyph name="macron" format="2">
  <advance width="833"/>
  <unicode hex="00AF"/>
  <outline>
    <contour>
      <point x="743" y="1366" type="line"/>
      <point x="743" y="1198" type="line"/>
      <point x="90" y="1198" type="line"/>
      <point x="90" y="1366" type="line"/>
    </contour>
  </outline>
</glyph>
<glyph name="degree" format="2">
  <advance width="820"/>
  <unicode hex="00B0"/>
  <outline>
    <contour>
      <point x="420" y="987" type="curve" smooth="yes"/>
      <point x="612" y="987"/>
      <point x="768" y="1143"/>
      <point x="768" y="1335" type="curve" smooth="yes"/>
      <point x="768" y="1527"/>
      <point x="612" y="1683"/>
      <point x="420" y="1683" type="curve" smooth="yes"/>
      <point x="228" y="1683"/>
      <point x="72" y="1527"/>
      <point x="72" y="1335" type="curve" smooth="yes"/>
      <point x="72" y="1143"/>
      <point x="228" y="987"/>
    </contour>
    <contour>
      <point x="420" y="1160" type="curve" smooth="yes"/>
      <point x="323" y="1160"/>
      <point x="245" y="1238"/>
      <point x="245" y="1335" type="curve" smooth="yes"/>
      <point x="245" y="1432"/>
      <point x="323" y="1510"/>
      <point x="420" y="1510" type="curve" smooth="yes"/>
      <point x="517" y="1510"/>
      <point x="595" y="1432"/>
      <point x="595" y="1335" type="curve" smooth="yes"/>
      <point x="595" y="1238"/>
      <point x="517" y="1160"/>
    </contour>
  </outline>
</glyph>
<glyph name="plusminus" format="2">
  <advance width="1279"/>
  <unicode hex="00B1"/>
  <outline>
    <contour>
      <point x="70" y="215" type="line"/>
      <point x="1209" y="215" type="line"/>
      <point x="1209" y="340" type="line"/>
      <point x="725" y="340" type="line"/>
      <point x="725" y="692" type="line"/>
      <point x="1209" y="692" type="line"/>
      <point x="1209" y="814" type="line"/>
      <point x="725" y="814" type="line"/>
      <point x="725" y="1284" type="line"/>
      <point x="554" y="1284" type="line"/>
      <point x="554" y="814" type="line"/>
      <point x="70" y="814" type="line"/>
      <point x="70" y="692" type="line"/>
      <point x="554" y="692" type="line"/>
      <point x="554" y="340" type="line"/>
      <point x="70" y="340" type="line"/>
    </contour>
  </outline>
</glyph>
<glyph name="uni00B5" format="2">
  <advance width="1477"/>
  <unicode hex="00B5"/>
  <outline>
    <contour>
      <point x="571" y="-20" type="curve" smooth="yes"/>
      <point x="826" y="-20"/>
      <point x="997" y="187"/>
      <point x="1070" y="306" type="curve"/>
      <point x="1026" y="388" type="line"/>
      <point x="944" y="252"/>
      <point x="774" y="133"/>
      <point x="622" y="133" type="curve" smooth="yes"/>
      <point x="508" y="133"/>
      <point x="470" y="204"/>
      <point x="470" y="319" type="curve" smooth="yes"/>
      <point x="470" y="1240" type="line"/>
      <point x="170" y="1240" type="line"/>
      <point x="170" y="307" type="line" smooth="yes"/>
      <point x="170" y="125"/>
      <point x="380" y="-20"/>
    </contour>
    <contour>
      <point x="1095" y="-20" type="curve" smooth="yes"/>
      <point x="1152" y="-20"/>
      <point x="1322" y="6"/>
      <point x="1404" y="30" type="curve"/>
      <point x="1404" y="125" type="line"/>
      <point x="1256" y="125"/>
      <point x="1214" y="139"/>
      <point x="1214" y="223" type="curve" smooth="yes"/>
      <point x="1214" y="1240" type="line"/>
      <point x="914" y="1240" type="line"/>
      <point x="914" y="218" type="line" smooth="yes"/>
      <point x="914" y="79"/>
      <point x="995" y="-20"/>
    </contour>
    <contour>
      <point x="170" y="480" type="line"/>
      <point x="170" y="412"/>
      <point x="170" y="24"/>
      <point x="170" y="-40" type="curve" smooth="yes"/>
      <point x="170" y="-230"/>
      <point x="120" y="-335"/>
      <point x="120" y="-435" type="curve" smooth="yes"/>
      <point x="120" y="-525"/>
      <point x="170" y="-603"/>
      <point x="270" y="-603" type="curve" smooth="yes"/>
      <point x="370" y="-603"/>
      <point x="420" y="-525"/>
      <point x="420" y="-435" type="curve" smooth="yes"/>
      <point x="420" y="-335"/>
      <point x="290" y="-190"/>
      <point x="290" y="-40" type="curve" smooth="yes"/>
      <point x="290" y="480" type="line"/>
    </contour>
  </outline>
</glyph>
<glyph name="paragraph" format="2">
  <advance width="1209"/>
  <unicode hex="00B6"/>
  <outline>
    <contour>
      <point x="1139" y="1373" type="line"/>
      <point x="1139" y="1470" type="line"/>
      <point x="565" y="1470" type="line"/>
      <point x="232" y="1470"/>
      <point x="70" y="1313"/>
      <point x="70" y="1054" type="curve"/>
      <point x="70" y="768"/>
      <point x="269" y="658"/>
      <point x="558" y="648" type="curve"/>
      <point x="558" y="-401" type="line"/>
      <point x="717" y="-401" type="line"/>
      <point x="717" y="1373" type="line"/>
      <point x="838" y="1373" type="line"/>
      <point x="838" y="-401" type="line"/>
      <point x="998" y="-401" type="line"/>
      <point x="998" y="1373" type="line"/>
    </contour>
  </outline>
</glyph>
<glyph name="periodcentered" format="2">
  <advance width="560"/>
  <unicode hex="00B7"/>
  <outline>
    <contour>
      <point x="140" y="720" type="curve" smooth="yes"/>
      <point x="140" y="797"/>
      <point x="203" y="860"/>
      <point x="280" y="860" type="curve" smooth="yes"/>
      <point x="357" y="860"/>
      <point x="420" y="797"/>
      <point x="420" y="720" type="curve" smooth="yes"/>
      <point x="420" y="643"/>
      <point x="357" y="580"/>
      <point x="280" y="580" type="curve" smooth="yes"/>
      <point x="203" y="580"/>
      <point x="140" y="643"/>
    </contour>
  </outline>
</glyph>
<glyph name="cedilla" format="2">
  <advance width="1023"/>
  <unicode hex="00B8"/>
  <outline>
    <contour>
      <point x="504" y="40" type="line"/>
      <point x="443" y="17"/>
      <point x="349" y="-102"/>
      <point x="310" y="-179" type="curve"/>
      <point x="371" y="-183"/>
      <point x="434" y="-211"/>
      <point x="434" y="-254" type="curve"/>
      <point x="434" y="-289"/>
      <point x="408" y="-329"/>
      <point x="359" y="-329" type="curve"/>
      <point x="317" y="-329"/>
      <point x="288" y="-306"/>
      <point x="264" y="-280" type="curve"/>
      <point x="218" y="-347" type="line"/>
      <point x="248" y="-393"/>
      <point x="334" y="-429"/>
      <point x="396" y="-429" type="curve"/>
      <point x="622" y="-429"/>
      <point x="664" y="-308"/>
      <point x="664" y="-221" type="curve"/>
      <point x="664" y="-160"/>
      <point x="587" y="-113"/>
      <point x="523" y="-93" type="curve"/>
      <point x="551" y="-55"/>
      <point x="647" y="29"/>
      <point x="684" y="40" type="curve"/>
    </contour>
  </outline>
</glyph>
<glyph name="ordmasculine" format="2">
  <advance width="809"/>
  <unicode hex="00BA"/>
  <outline>
    <contour>
      <point x="759" y="1144" type="curve" smooth="yes"/>
      <point x="759" y="1323"/>
      <point x="619" y="1470"/>
      <point x="418" y="1470" type="curve"/>
      <point x="197" y="1470"/>
      <point x="50" y="1323"/>
      <point x="50" y="1127" type="curve"/>
      <point x="50" y="945"/>
      <point x="206" y="808"/>
      <point x="403" y="808" type="curve"/>
      <point x="596" y="808"/>
      <point x="759" y="971"/>
    </contour>
    <contour>
      <point x="530" y="1079" type="curve" smooth="yes"/>
      <point x="530" y="990"/>
      <point x="506" y="902"/>
      <point x="422" y="902" type="curve"/>
      <point x="316" y="902"/>
      <point x="282" y="1114"/>
      <point x="282" y="1202" type="curve"/>
      <point x="282" y="1275"/>
      <point x="301" y="1379"/>
      <point x="374" y="1379" type="curve"/>
      <point x="491" y="1379"/>
      <point x="530" y="1182"/>
    </contour>
  </outline>
</glyph>
<glyph name="guillemotright" format="2">
  <advance width="1276"/>
  <unicode hex="00BB"/>
  <outline>
    <contour>
      <point x="570" y="1182" type="line"/>
      <point x="843" y="689" type="line"/>
      <point x="570" y="200" type="line"/>
      <point x="707" y="200" type="line"/>
      <point x="1136" y="689" type="line"/>
      <point x="707" y="1182" type="line"/>
    </contour>
    <contour>
      <point x="140" y="1182" type="line"/>
      <point x="413" y="689" type="line"/>
      <point x="140" y="200" type="line"/>
      <point x="277" y="200" type="line"/>
      <point x="706" y="689" type="line"/>
      <point x="277" y="1182" type="line"/>
    </contour>
  </outline>
</glyph>
<glyph name="AE" format="2">
  <advance width="2095"/>
  <unicode hex="00C6"/>
  <outline>
    <contour>
      <point x="943" y="1437" type="line"/>
      <point x="216" y="248" type="line"/>
      <point x="155" y="148"/>
      <point x="110" y="75"/>
      <point x="10" y="75" type="curve"/>
      <point x="10" y="0" type="line"/>
      <point x="538" y="0" type="line"/>
      <point x="538" y="75" type="line"/>
      <point x="414" y="75"/>
      <point x="367" y="108"/>
      <point x="367" y="153" type="curve"/>
      <point x="367" y="178"/>
      <point x="375" y="204"/>
      <point x="390" y="228" type="curve"/>
      <point x="697" y="729" type="line"/>
      <point x="931" y="729" type="line"/>
      <point x="931" y="242" type="line"/>
      <point x="931" y="108"/>
      <point x="877" y="75"/>
      <point x="732" y="75" type="curve"/>
      <point x="732" y="0" type="line"/>
      <point x="1885" y="0" type="line"/>
      <point x="2025" y="432" type="line"/>
      <point x="1894" y="432" type="line"/>
      <point x="1840" y="254"/>
      <point x="1730" y="108"/>
      <point x="1557" y="108" type="curve"/>
      <point x="1267" y="108" type="line"/>
      <point x="1242" y="108"/>
      <point x="1225" y="140"/>
      <point x="1222" y="178" type="curve"/>
      <point x="1222" y="729" type="line"/>
      <point x="1457" y="729" type="line"/>
      <point x="1549" y="729"/>
      <point x="1626" y="673"/>
      <point x="1626" y="506" type="curve"/>
      <point x="1742" y="506" type="line"/>
      <point x="1742" y="1019" type="line"/>
      <point x="1626" y="1019" type="line"/>
      <point x="1626" y="884"/>
      <point x="1549" y="836"/>
      <point x="1455" y="836" type="curve"/>
      <point x="1222" y="836" type="line"/>
      <point x="1222" y="1329" type="line"/>
      <point x="1535" y="1329" type="line"/>
      <point x="1694" y="1329"/>
      <point x="1754" y="1235"/>
      <point x="1787" y="1066" type="curve"/>
      <point x="1904" y="1066" type="line"/>
      <point x="1884" y="1437" type="line"/>
    </contour>
    <contour>
      <point x="768" y="847" type="line"/>
      <point x="931" y="1113" type="line"/>
      <point x="931" y="847" type="line"/>
    </contour>
  </outline>
</glyph>
<glyph name="Eth" format="2">
  <advance width="1557"/>
  <unicode hex="00D0"/>
  <anchor x="775" y="-110" name="LL"/>
  <anchor x="775" y="1745" name="LU"/>
  <outline>
    <component base="D"/>
    <contour>
      <point x="105" y="942" type="line"/>
      <point x="105" y="797" type="line"/>
      <point x="756" y="797" type="line"/>
      <point x="756" y="942" type="line"/>
    </contour>
  </outline>
</glyph>
<glyph name="Ntilde" format="2">
  <advance width="1645"/>
  <unicode hex="00D1"/>
  <outline>
    <contour>
      <point x="273" y="242" type="line"/>
      <point x="273" y="108"/>
      <point x="218" y="75"/>
      <point x="76" y="75" type="curve"/>
      <point x="76" y="0" type="line"/>
      <point x="644" y="0" type="line"/>
      <point x="644" y="75" type="line"/>
      <point x="498" y="75"/>
      <point x="448" y="108"/>
      <point x="448" y="242" type="curve"/>
      <point x="448" y="1031" type="line"/>
      <point x="1293" y="-32" type="line"/>
      <point x="1409" y="-32" type="line"/>
      <point x="1409" y="1196" type="line"/>
      <point x="1409" y="1329"/>
      <point x="1459" y="1362"/>
      <point x="1605" y="1362" type="curve"/>
      <point x="1605" y="1437" type="line"/>
      <point x="1033" y="1437" type="line"/>
      <point x="1033" y="1362" type="line"/>
      <point x="1179" y="1362"/>
      <point x="1234" y="1329"/>
      <point x="1234" y="1196" type="curve"/>
      <point x="1234" y="481" type="line"/>
      <point x="458" y="1437" type="line"/>
      <point x="40" y="1437" type="line"/>
      <point x="40" y="1362" type="line"/>
      <point x="167" y="1362"/>
      <point x="273" y="1290"/>
      <point x="273" y="1185" type="curve"/>
    </contour>
    <contour>
      <point x="565" y="1500" type="line"/>
      <point x="576" y="1558"/>
      <point x="620" y="1605"/>
      <point x="662" y="1605" type="curve"/>
      <point x="695" y="1605"/>
      <point x="722" y="1591"/>
      <point x="777" y="1557" type="curve" smooth="yes"/>
      <point x="839" y="1518"/>
      <point x="888" y="1500"/>
      <point x="968" y="1500" type="curve"/>
      <point x="1150" y="1500"/>
      <point x="1225" y="1627"/>
      <point x="1225" y="1775" type="curve"/>
      <point x="1120" y="1775" type="line"/>
      <point x="1109" y="1718"/>
      <point x="1062" y="1670"/>
      <point x="1020" y="1670" type="curve"/>
      <point x="987" y="1670"/>
      <point x="960" y="1684"/>
      <point x="905" y="1718" type="curve" smooth="yes"/>
      <point x="843" y="1757"/>
      <point x="794" y="1775"/>
      <point x="714" y="1775" type="curve"/>
      <point x="532" y="1775"/>
      <point x="457" y="1653"/>
      <point x="457" y="1500" type="curve"/>
    </contour>
  </outline>
</glyph>
<glyph name="Otilde" format="2">
  <advance width="1622"/>
  <unicode hex="00D5"/>
  <outline>
    <contour>
      <point x="813" y="-32" type="curve" smooth="yes"/>
      <point x="1229" y="-32"/>
      <point x="1552" y="307"/>
      <point x="1552" y="726" type="curve"/>
      <point x="1552" y="1137"/>
      <point x="1229" y="1470"/>
      <point x="813" y="1470" type="curve"/>
      <point x="394" y="1470"/>
      <point x="70" y="1137"/>
      <point x="70" y="726" type="curve"/>
      <point x="70" y="307"/>
      <point x="394" y="-32"/>
    </contour>
    <contour>
      <point x="813" y="75" type="curve" smooth="yes"/>
      <point x="541" y="75"/>
      <point x="402" y="351"/>
      <point x="402" y="726" type="curve"/>
      <point x="402" y="1100"/>
      <point x="541" y="1362"/>
      <point x="813" y="1362" type="curve"/>
      <point x="1075" y="1362"/>
      <point x="1221" y="1100"/>
      <point x="1221" y="726" type="curve"/>
      <point x="1221" y="351"/>
      <point x="1075" y="75"/>
    </contour>
    <contour>
      <point x="536" y="1500" type="line"/>
      <point x="547" y="1558"/>
      <point x="591" y="1605"/>
      <point x="633" y="1605" type="curve"/>
      <point x="666" y="1605"/>
      <point x="693" y="1591"/>
      <point x="748" y="1557" type="curve" smooth="yes"/>
      <point x="810" y="1518"/>
      <point x="859" y="1500"/>
      <point x="939" y="1500" type="curve"/>
      <point x="1121" y="1500"/>
      <point x="1196" y="1627"/>
      <point x="1196" y="1775" type="curve"/>
      <point x="1091" y="1775" type="line"/>
      <point x="1080" y="1718"/>
      <point x="1033" y="1670"/>
      <point x="991" y="1670" type="curve"/>
      <point x="958" y="1670"/>
      <point x="931" y="1684"/>
      <point x="876" y="1718" type="curve" smooth="yes"/>
      <point x="814" y="1757"/>
      <point x="765" y="1775"/>
      <point x="685" y="1775" type="curve"/>
      <point x="503" y="1775"/>
      <point x="428" y="1653"/>
      <point x="428" y="1500" type="curve"/>
    </contour>
  </outline>
</glyph>
<glyph name="Odieresis" format="2">
  <advance width="1622"/>
  <unicode hex="00D6"/>
  <outline>
    <contour>
      <point x="813" y="-32" type="curve" smooth="yes"/>
      <point x="1229" y="-32"/>
      <point x="1552" y="307"/>
      <point x="1552" y="726" type="curve"/>
      <point x="1552" y="1137"/>
      <point x="1229" y="1470"/>
      <point x="813" y="1470" type="curve"/>
      <point x="394" y="1470"/>
      <point x="70" y="1137"/>
      <point x="70" y="726" type="curve"/>
      <point x="70" y="307"/>
      <point x="394" y="-32"/>
    </contour>
    <contour>
      <point x="813" y="75" type="curve" smooth="yes"/>
      <point x="541" y="75"/>
      <point x="402" y="351"/>
      <point x="402" y="726" type="curve"/>
      <point x="402" y="1100"/>
      <point x="541" y="1362"/>
      <point x="813" y="1362" type="curve"/>
      <point x="1075" y="1362"/>
      <point x="1221" y="1100"/>
      <point x="1221" y="726" type="curve"/>
      <point x="1221" y="351"/>
      <point x="1075" y="75"/>
    </contour>
    <contour>
      <point x="463" y="1640" type="curve" smooth="yes"/>
      <point x="463" y="1563"/>
      <point x="526" y="1500"/>
      <point x="603" y="1500" type="curve" smooth="yes"/>
      <point x="680" y="1500"/>
      <point x="743" y="1563"/>
      <point x="743" y="1640" type="curve" smooth="yes"/>
      <point x="743" y="1717"/>
      <point x="680" y="1780"/>
      <point x="603" y="1780" type="curve" smooth="yes"/>
      <point x="526" y="1780"/>
      <point x="463" y="1717"/>
    </contour>
    <contour>
      <point x="884" y="1640" type="curve" smooth="yes"/>
      <point x="884" y="1563"/>
      <point x="947" y="1500"/>
      <point x="1024" y="1500" type="curve" smooth="yes"/>
      <point x="1101" y="1500"/>
      <point x="1164" y="1563"/>
      <point x="1164" y="1640" type="curve" smooth="yes"/>
      <point x="1164" y="1717"/>
      <point x="1101" y="1780"/>
      <point x="1024" y="1780" type="curve" smooth="yes"/>
      <point x="947" y="1780"/>
      <point x="884" y="1717"/>
    </contour>
  </outline>
</glyph>
<glyph name="multiply" format="2">
  <advance width="1486"/>
  <unicode hex="00D7"/>
  <guideline x="0" y="123" angle="45"/>
  <guideline x="1610" y="0" angle="135"/>
  <outline>
    <contour>
      <point x="1186" y="421" type="line"/>
      <point x="856" y="750" type="line"/>
      <point x="1186" y="1079" type="line"/>
      <point x="1073" y="1192" type="line"/>
      <point x="743" y="863" type="line"/>
      <point x="413" y="1192" type="line"/>
      <point x="300" y="1079" type="line"/>
      <point x="630" y="750" type="line"/>
      <point x="300" y="421" type="line"/>
      <point x="413" y="308" type="line"/>
      <point x="743" y="637" type="line"/>
      <point x="1073" y="308" type="line"/>
    </contour>
  </outline>
</glyph>
<glyph name="Oslash" format="2">
  <advance width="1528"/>
  <unicode hex="00D8"/>
  <anchor x="764" y="-110" name="LL"/>
  <anchor x="764" y="1775" name="LU"/>
  <outline>
    <component base="O"/>
    <contour>
      <point x="284" y="-113" type="line"/>
      <point x="1382" y="1718" type="line"/>
      <point x="1243" y="1773" type="line"/>
      <point x="145" y="-58" type="line"/>
    </contour>
  </outline>
</glyph>
<glyph name="Thorn" format="2">
  <advance width="1569"/>
  <unicode hex="00DE"/>
  <anchor x="844" y="-110" name="LL"/>
  <anchor x="845" y="1745" name="LU"/>
  <outline>
    <contour>
      <point x="565" y="1510" type="line"/>
      <point x="755" y="1545" type="line"/>
      <point x="755" y="1650" type="line"/>
      <point x="95" y="1650" type="line"/>
      <point x="95" y="1545" type="line"/>
      <point x="265" y="1510" type="line"/>
      <point x="265" y="140" type="line"/>
      <point x="95" y="105" type="line"/>
      <point x="95" y="0" type="line"/>
      <point x="755" y="0" type="line"/>
      <point x="755" y="105" type="line"/>
      <point x="565" y="140" type="line"/>
    </contour>
    <contour>
      <point x="317" y="411" type="line"/>
      <point x="803" y="411" type="line" smooth="yes"/>
      <point x="1173" y="411"/>
      <point x="1459" y="515"/>
      <point x="1459" y="855" type="curve" smooth="yes"/>
      <point x="1459" y="1209"/>
      <point x="1183" y="1282"/>
      <point x="803" y="1282" type="curve" smooth="yes"/>
      <point x="492" y="1282" type="line"/>
      <point x="492" y="1145" type="line"/>
      <point x="765" y="1145" type="line" smooth="yes"/>
      <point x="996" y="1145"/>
      <point x="1116" y="1095"/>
      <point x="1116" y="848" type="curve" smooth="yes"/>
      <point x="1116" y="625"/>
      <point x="991" y="548"/>
      <point x="775" y="548" type="curve" smooth="yes"/>
      <point x="317" y="548" type="line"/>
    </contour>
  </outline>
</glyph>
<glyph name="germandbls" format="2">
  <advance width="1573"/>
  <unicode hex="00DF"/>
  <anchor x="875" y="-110" name="LL"/>
  <anchor x="809" y="1880" name="LU"/>
  <outline>
    <contour>
      <point x="977" y="117" type="curve" smooth="yes"/>
      <point x="1063" y="117"/>
      <point x="1141" y="190"/>
      <point x="1141" y="457" type="curve" smooth="yes"/>
      <point x="1141" y="777"/>
      <point x="1071" y="868"/>
      <point x="755" y="883" type="curve"/>
      <point x="733" y="1009" type="line"/>
      <point x="972" y="1064"/>
      <point x="1021" y="1199"/>
      <point x="1021" y="1381" type="curve" smooth="yes"/>
      <point x="1021" y="1582"/>
      <point x="915" y="1666"/>
      <point x="787" y="1666" type="curve" smooth="yes"/>
      <point x="677" y="1666"/>
      <point x="569" y="1578"/>
      <point x="569" y="1410" type="curve" smooth="yes"/>
      <point x="569" y="0" type="line"/>
      <point x="95" y="0" type="line"/>
      <point x="95" y="105" type="line"/>
      <point x="269" y="140" type="line"/>
      <point x="269" y="1355" type="line" smooth="yes"/>
      <point x="269" y="1652"/>
      <point x="535" y="1802"/>
      <point x="807" y="1802" type="curve" smooth="yes"/>
      <point x="1068" y="1802"/>
      <point x="1335" y="1663"/>
      <point x="1335" y="1383" type="curve" smooth="yes"/>
      <point x="1335" y="1007"/>
      <point x="1004" y="946"/>
      <point x="830" y="946" type="curve"/>
      <point x="800" y="970" type="line"/>
      <point x="819" y="972"/>
      <point x="838" y="972"/>
      <point x="857" y="972" type="curve" smooth="yes"/>
      <point x="1196" y="972"/>
      <point x="1456" y="837"/>
      <point x="1456" y="464" type="curve" smooth="yes"/>
      <point x="1456" y="161"/>
      <point x="1287" y="-20"/>
      <point x="987" y="-20" type="curve" smooth="yes"/>
      <point x="768" y="-20"/>
      <point x="668" y="100"/>
      <point x="668" y="247" type="curve" smooth="yes"/>
      <point x="668" y="354"/>
      <point x="733" y="421"/>
      <point x="814" y="421" type="curve" smooth="yes"/>
      <point x="896" y="421"/>
      <point x="950" y="361"/>
      <point x="950" y="288" type="curve" smooth="yes"/>
      <point x="950" y="233"/>
      <point x="894" y="172"/>
      <point x="831" y="172" type="curve" smooth="yes"/>
      <point x="808" y="172"/>
      <point x="785" y="179"/>
      <point x="763" y="197" type="curve"/>
      <point x="806" y="233" type="line"/>
      <point x="827" y="139"/>
      <point x="868" y="117"/>
    </contour>
  </outline>
</glyph>
<glyph name="atilde" format="2">
  <advance width="1028"/>
  <unicode hex="00E3"/>
  <anchor x="520" y="0" name="PB"/>
  <anchor x="540" y="200" name="def"/>
  <outline>
    <contour>
      <point x="835" y="734" type="line"/>
      <point x="835" y="897"/>
      <point x="743" y="1004"/>
      <point x="492" y="1004" type="curve"/>
      <point x="282" y="1004"/>
      <point x="103" y="900"/>
      <point x="103" y="762" type="curve"/>
      <point x="103" y="690"/>
      <point x="157" y="633"/>
      <point x="235" y="633" type="curve"/>
      <point x="337" y="633"/>
      <point x="358" y="700"/>
      <point x="358" y="776" type="curve"/>
      <point x="358" y="840"/>
      <point x="377" y="903"/>
      <point x="459" y="903" type="curve"/>
      <point x="537" y="903"/>
      <point x="584" y="850"/>
      <point x="584" y="689" type="curve"/>
      <point x="584" y="640" type="line"/>
      <point x="335" y="557"/>
      <point x="70" y="470"/>
      <point x="70" y="234" type="curve"/>
      <point x="70" y="92"/>
      <point x="170" y="-22"/>
      <point x="329" y="-22" type="curve"/>
      <point x="462" y="-22"/>
      <point x="531" y="28"/>
      <point x="595" y="85" type="curve"/>
      <point x="613" y="28"/>
      <point x="656" y="-22"/>
      <point x="726" y="-22" type="curve"/>
      <point x="853" y="-22"/>
      <point x="939" y="53"/>
      <point x="988" y="138" type="curve"/>
      <point x="988" y="329" type="line"/>
      <point x="924" y="233"/>
      <point x="864" y="144"/>
      <point x="842" y="144" type="curve"/>
      <point x="837" y="144"/>
      <point x="835" y="168"/>
      <point x="835" y="197" type="curve"/>
    </contour>
    <contour>
      <point x="419" y="134" type="curve" smooth="yes"/>
      <point x="370" y="134"/>
      <point x="321" y="201"/>
      <point x="321" y="285" type="curve"/>
      <point x="321" y="397"/>
      <point x="459" y="481"/>
      <point x="584" y="531" type="curve"/>
      <point x="584" y="218" type="line"/>
      <point x="526" y="172"/>
      <point x="474" y="134"/>
    </contour>
    <contour>
      <point x="199" y="1150" type="line"/>
      <point x="210" y="1208"/>
      <point x="254" y="1255"/>
      <point x="296" y="1255" type="curve"/>
      <point x="329" y="1255"/>
      <point x="356" y="1241"/>
      <point x="411" y="1207" type="curve" smooth="yes"/>
      <point x="473" y="1168"/>
      <point x="522" y="1150"/>
      <point x="602" y="1150" type="curve"/>
      <point x="784" y="1150"/>
      <point x="859" y="1277"/>
      <point x="859" y="1425" type="curve"/>
      <point x="754" y="1425" type="line"/>
      <point x="743" y="1368"/>
      <point x="696" y="1320"/>
      <point x="654" y="1320" type="curve"/>
      <point x="621" y="1320"/>
      <point x="594" y="1334"/>
      <point x="539" y="1368" type="curve" smooth="yes"/>
      <point x="477" y="1407"/>
      <point x="428" y="1425"/>
      <point x="348" y="1425" type="curve"/>
      <point x="166" y="1425"/>
      <point x="91" y="1303"/>
      <point x="91" y="1150" type="curve"/>
    </contour>
  </outline>
</glyph>
<glyph name="ae" format="2">
  <advance width="1550"/>
  <unicode hex="00E6"/>
  <outline>
    <contour>
      <point x="1027" y="-22" type="curve" smooth="yes"/>
      <point x="1221" y="-22"/>
      <point x="1423" y="153"/>
      <point x="1480" y="365" type="curve"/>
      <point x="1361" y="384" type="line"/>
      <point x="1331" y="261"/>
      <point x="1201" y="162"/>
      <point x="1074" y="162" type="curve"/>
      <point x="923" y="162"/>
      <point x="814" y="347"/>
      <point x="809" y="583" type="curve"/>
      <point x="1450" y="583" type="line"/>
      <point x="1450" y="815"/>
      <point x="1277" y="1004"/>
      <point x="1027" y="1004" type="curve"/>
      <point x="924" y="1004"/>
      <point x="836" y="972"/>
      <point x="765" y="920" type="curve"/>
      <point x="712" y="972"/>
      <point x="625" y="1004"/>
      <point x="492" y="1004" type="curve"/>
      <point x="282" y="1004"/>
      <point x="103" y="900"/>
      <point x="103" y="762" type="curve"/>
      <point x="103" y="690"/>
      <point x="155" y="633"/>
      <point x="235" y="633" type="curve"/>
      <point x="337" y="633"/>
      <point x="357" y="700"/>
      <point x="357" y="776" type="curve"/>
      <point x="357" y="840"/>
      <point x="376" y="903"/>
      <point x="459" y="903" type="curve"/>
      <point x="536" y="903"/>
      <point x="583" y="850"/>
      <point x="583" y="689" type="curve"/>
      <point x="583" y="662" type="line"/>
      <point x="352" y="611"/>
      <point x="70" y="478"/>
      <point x="70" y="234" type="curve"/>
      <point x="70" y="92"/>
      <point x="169" y="-22"/>
      <point x="328" y="-22" type="curve"/>
      <point x="475" y="-22"/>
      <point x="596" y="77"/>
      <point x="668" y="153" type="curve"/>
      <point x="749" y="47"/>
      <point x="879" y="-22"/>
    </contour>
    <contour>
      <point x="419" y="134" type="curve" smooth="yes"/>
      <point x="370" y="134"/>
      <point x="321" y="201"/>
      <point x="321" y="285" type="curve"/>
      <point x="321" y="393"/>
      <point x="451" y="512"/>
      <point x="571" y="558" type="curve"/>
      <point x="567" y="524"/>
      <point x="565" y="489"/>
      <point x="565" y="456" type="curve"/>
      <point x="565" y="387"/>
      <point x="579" y="318"/>
      <point x="609" y="252" type="curve"/>
      <point x="565" y="194"/>
      <point x="477" y="134"/>
    </contour>
    <contour>
      <point x="977" y="896" type="curve" smooth="yes"/>
      <point x="1073" y="896"/>
      <point x="1151" y="795"/>
      <point x="1158" y="672" type="curve"/>
      <point x="811" y="672" type="line"/>
      <point x="827" y="795"/>
      <point x="897" y="896"/>
    </contour>
  </outline>
</glyph>
<glyph name="edieresis" format="2">
  <advance width="1055"/>
  <unicode hex="00EB"/>
  <anchor x="520" y="0" name="PB"/>
  <anchor x="560" y="200" name="def"/>
  <outline>
    <contour>
      <point x="532" y="-22" type="curve" smooth="yes"/>
      <point x="728" y="-22"/>
      <point x="929" y="153"/>
      <point x="985" y="365" type="curve"/>
      <point x="867" y="384" type="line"/>
      <point x="837" y="261"/>
      <point x="706" y="162"/>
      <point x="581" y="162" type="curve"/>
      <point x="428" y="162"/>
      <point x="319" y="347"/>
      <point x="313" y="583" type="curve"/>
      <point x="954" y="583" type="line"/>
      <point x="954" y="815"/>
      <point x="782" y="1004"/>
      <point x="532" y="1004" type="curve"/>
      <point x="253" y="1004"/>
      <point x="70" y="773"/>
      <point x="70" y="456" type="curve"/>
      <point x="70" y="195"/>
      <point x="277" y="-22"/>
    </contour>
    <contour>
      <point x="482" y="896" type="curve" smooth="yes"/>
      <point x="578" y="896"/>
      <point x="656" y="795"/>
      <point x="664" y="672" type="curve"/>
      <point x="315" y="672" type="line"/>
      <point x="332" y="795"/>
      <point x="402" y="896"/>
    </contour>
    <contour>
      <point x="150" y="1340" type="curve" smooth="yes"/>
      <point x="150" y="1263"/>
      <point x="213" y="1200"/>
      <point x="290" y="1200" type="curve" smooth="yes"/>
      <point x="367" y="1200"/>
      <point x="430" y="1263"/>
      <point x="430" y="1340" type="curve" smooth="yes"/>
      <point x="430" y="1417"/>
      <point x="367" y="1480"/>
      <point x="290" y="1480" type="curve" smooth="yes"/>
      <point x="213" y="1480"/>
      <point x="150" y="1417"/>
    </contour>
    <contour>
      <point x="571" y="1340" type="curve" smooth="yes"/>
      <point x="571" y="1263"/>
      <point x="634" y="1200"/>
      <point x="711" y="1200" type="curve" smooth="yes"/>
      <point x="788" y="1200"/>
      <point x="851" y="1263"/>
      <point x="851" y="1340" type="curve" smooth="yes"/>
      <point x="851" y="1417"/>
      <point x="788" y="1480"/>
      <point x="711" y="1480" type="curve" smooth="yes"/>
      <point x="634" y="1480"/>
      <point x="571" y="1417"/>
    </contour>
  </outline>
</glyph>
<glyph name="igrave" format="2">
  <advance width="627"/>
  <unicode hex="00EC"/>
  <anchor x="520" y="0" name="PB"/>
  <anchor x="440" y="200" name="def"/>
  <outline>
    <contour>
      <point x="20" y="1470" type="line"/>
      <point x="362" y="1066" type="line"/>
      <point x="491" y="1066" type="line"/>
      <point x="370" y="1470" type="line"/>
    </contour>
    <contour>
      <point x="186" y="238" type="line"/>
      <point x="186" y="121"/>
      <point x="165" y="75"/>
      <point x="40" y="75" type="curve"/>
      <point x="40" y="0" type="line"/>
      <point x="587" y="0" type="line"/>
      <point x="587" y="75" type="line"/>
      <point x="463" y="75"/>
      <point x="437" y="121"/>
      <point x="437" y="238" type="curve"/>
      <point x="437" y="1004" type="line"/>
      <point x="334" y="1004" type="line"/>
      <point x="24" y="863" type="line"/>
      <point x="52" y="790" type="line"/>
      <point x="108" y="807"/>
      <point x="153" y="819"/>
      <point x="165" y="819" type="curve"/>
      <point x="186" y="819"/>
      <point x="186" y="778"/>
      <point x="186" y="683" type="curve"/>
    </contour>
  </outline>
</glyph>
<glyph name="eth" format="2">
  <advance width="1246"/>
  <unicode hex="00F0"/>
  <anchor x="624" y="-110" name="LL"/>
  <anchor x="625" y="1880" name="LU"/>
  <anchor x="520" y="0" name="PB"/>
  <anchor x="580" y="200" name="def"/>
  <outline>
    <contour>
      <point x="343" y="1611" type="line"/>
      <point x="690" y="1505"/>
      <point x="870" y="1442"/>
      <point x="870" y="618" type="curve"/>
      <point x="1182" y="708" type="line"/>
      <point x="1182" y="1462"/>
      <point x="981" y="1683"/>
      <point x="613" y="1803" type="curve"/>
      <point x="223" y="1696" type="line"/>
      <point x="223" y="1611" type="line"/>
    </contour>
    <contour>
      <point x="634" y="-20" type="curve" smooth="yes"/>
      <point x="958" y="-20"/>
      <point x="1183" y="193"/>
      <point x="1183" y="708" type="curve" smooth="yes"/>
      <point x="1183" y="1223"/>
      <point x="958" y="1256"/>
      <point x="634" y="1256" type="curve" smooth="yes"/>
      <point x="310" y="1256"/>
      <point x="85" y="1133"/>
      <point x="85" y="618" type="curve" smooth="yes"/>
      <point x="85" y="103"/>
      <point x="310" y="-20"/>
    </contour>
    <contour>
      <point x="634" y="117" type="curve" smooth="yes"/>
      <point x="468" y="117"/>
      <point x="400" y="218"/>
      <point x="400" y="618" type="curve" smooth="yes"/>
      <point x="400" y="1018"/>
      <point x="468" y="1119"/>
      <point x="634" y="1119" type="curve" smooth="yes"/>
      <point x="800" y="1119"/>
      <point x="868" y="1018"/>
      <point x="868" y="618" type="curve" smooth="yes"/>
      <point x="868" y="218"/>
      <point x="800" y="117"/>
    </contour>
    <contour>
      <point x="347" y="1453" type="line"/>
      <point x="395" y="1324" type="line"/>
      <point x="1152" y="1625" type="line"/>
      <point x="1104" y="1754" type="line"/>
    </contour>
  </outline>
</glyph>
<glyph name="divide" format="2">
  <advance width="1084"/>
  <unicode hex="00F7"/>
  <outline>
    <contour>
      <point x="120" y="875" type="line"/>
      <point x="120" y="703" type="line"/>
      <point x="964" y="703" type="line"/>
      <point x="964" y="875" type="line"/>
    </contour>
    <contour>
      <point x="542" y="993" type="curve" smooth="yes"/>
      <point x="621" y="993"/>
      <point x="686" y="1058"/>
      <point x="686" y="1138" type="curve" smooth="yes"/>
      <point x="686" y="1217"/>
      <point x="621" y="1282"/>
      <point x="542" y="1282" type="curve" smooth="yes"/>
      <point x="462" y="1282"/>
      <point x="397" y="1217"/>
      <point x="397" y="1138" type="curve" smooth="yes"/>
      <point x="397" y="1058"/>
      <point x="462" y="993"/>
    </contour>
    <contour>
      <point x="542" y="306" type="curve" smooth="yes"/>
      <point x="621" y="306"/>
      <point x="686" y="371"/>
      <point x="686" y="451" type="curve" smooth="yes"/>
      <point x="686" y="530"/>
      <point x="621" y="595"/>
      <point x="542" y="595" type="curve" smooth="yes"/>
      <point x="462" y="595"/>
      <point x="397" y="530"/>
      <point x="397" y="451" type="curve" smooth="yes"/>
      <point x="397" y="371"/>
      <point x="462" y="306"/>
    </contour>
  </outline>
</glyph>
<glyph name="oslash" format="2">
  <advance width="1328"/>
  <unicode hex="00F8"/>
  <anchor x="624" y="-110" name="LL"/>
  <anchor x="624" y="1350" name="LU"/>
  <anchor x="520" y="0" name="PB"/>
  <anchor x="580" y="0" name="def"/>
  <outline>
    <component base="o"/>
    <contour>
      <point x="319" y="-124" type="line"/>
      <point x="1138" y="1283" type="line"/>
      <point x="1012" y="1360" type="line"/>
      <point x="193" y="-46" type="line"/>
    </contour>
  </outline>
</glyph>
<glyph name="udieresis" format="2">
  <advance width="1181"/>
  <unicode hex="00FC"/>
  <anchor x="520" y="0" name="PB"/>
  <anchor x="570" y="200" name="def"/>
  <outline>
    <contour>
      <point x="40" y="982" type="line"/>
      <point x="40" y="907" type="line"/>
      <point x="157" y="907"/>
      <point x="185" y="871"/>
      <point x="185" y="762" type="curve"/>
      <point x="185" y="293" type="line"/>
      <point x="185" y="118"/>
      <point x="324" y="-22"/>
      <point x="499" y="-22" type="curve"/>
      <point x="579" y="-22"/>
      <point x="678" y="25"/>
      <point x="751" y="93" type="curve"/>
      <point x="751" y="-22" type="line"/>
      <point x="850" y="-22" type="line"/>
      <point x="1171" y="123" type="line"/>
      <point x="1132" y="201" type="line"/>
      <point x="1082" y="167"/>
      <point x="1058" y="159"/>
      <point x="1045" y="159" type="curve"/>
      <point x="1011" y="159"/>
      <point x="1002" y="191"/>
      <point x="1002" y="301" type="curve"/>
      <point x="1002" y="982" type="line"/>
      <point x="601" y="982" type="line"/>
      <point x="601" y="907" type="line"/>
      <point x="718" y="907"/>
      <point x="751" y="871"/>
      <point x="751" y="762" type="curve"/>
      <point x="751" y="274" type="line"/>
      <point x="714" y="205"/>
      <point x="639" y="140"/>
      <point x="586" y="140" type="curve"/>
      <point x="503" y="140"/>
      <point x="437" y="208"/>
      <point x="437" y="293" type="curve"/>
      <point x="437" y="982" type="line"/>
    </contour>
    <contour>
      <point x="220" y="1340" type="curve" smooth="yes"/>
      <point x="220" y="1263"/>
      <point x="283" y="1200"/>
      <point x="360" y="1200" type="curve" smooth="yes"/>
      <point x="437" y="1200"/>
      <point x="500" y="1263"/>
      <point x="500" y="1340" type="curve" smooth="yes"/>
      <point x="500" y="1417"/>
      <point x="437" y="1480"/>
      <point x="360" y="1480" type="curve" smooth="yes"/>
      <point x="283" y="1480"/>
      <point x="220" y="1417"/>
    </contour>
    <contour>
      <point x="641" y="1340" type="curve" smooth="yes"/>
      <point x="641" y="1263"/>
      <point x="704" y="1200"/>
      <point x="781" y="1200" type="curve" smooth="yes"/>
      <point x="858" y="1200"/>
      <point x="921" y="1263"/>
      <point x="921" y="1340" type="curve" smooth="yes"/>
      <point x="921" y="1417"/>
      <point x="858" y="1480"/>
      <point x="781" y="1480" type="curve" smooth="yes"/>
      <point x="704" y="1480"/>
      <point x="641" y="1417"/>
    </contour>
  </outline>
</glyph>
<glyph name="thorn" format="2">
  <advance width="1372"/>
  <unicode hex="00FE"/>
  <anchor x="670" y="-690" name="LL"/>
  <anchor x="670" y="1880" name="LU"/>
  <outline>
    <contour>
      <point x="50" y="-600" type="line"/>
      <point x="690" y="-600" type="line"/>
      <point x="690" y="-495" type="line"/>
      <point x="510" y="-460" type="line"/>
      <point x="510" y="1793" type="line"/>
      <point x="50" y="1793" type="line"/>
      <point x="50" y="1687" type="line"/>
      <point x="210" y="1652" type="line"/>
      <point x="210" y="-460" type="line"/>
      <point x="50" y="-495" type="line"/>
    </contour>
    <contour>
      <point x="798" y="-20" type="curve" smooth="yes"/>
      <point x="1075" y="-20"/>
      <point x="1257" y="146"/>
      <point x="1257" y="636" type="curve" smooth="yes"/>
      <point x="1257" y="1179"/>
      <point x="1084" y="1255"/>
      <point x="854" y="1255" type="curve" smooth="yes"/>
      <point x="701" y="1255"/>
      <point x="581" y="1187"/>
      <point x="451" y="1091" type="curve"/>
      <point x="481" y="984" type="line"/>
      <point x="608" y="1074"/>
      <point x="689" y="1107"/>
      <point x="778" y="1107" type="curve" smooth="yes"/>
      <point x="899" y="1107"/>
      <point x="957" y="1055"/>
      <point x="957" y="636" type="curve" smooth="yes"/>
      <point x="957" y="271"/>
      <point x="900" y="125"/>
      <point x="749" y="125" type="curve" smooth="yes"/>
      <point x="658" y="125"/>
      <point x="559" y="157"/>
      <point x="490" y="246" type="curve"/>
      <point x="435" y="131" type="line"/>
      <point x="542" y="15"/>
      <point x="665" y="-20"/>
    </contour>
  </outline>
</glyph>
<glyph name="uni0110" format="2">
  <advance width="1612"/>
  <unicode hex="0110"/>
  <anchor x="775" y="-110" name="LL"/>
  <anchor x="775" y="1745" name="LU"/>
  <outline>
    <component base="D"/>
    <contour>
      <point x="105" y="942" type="line"/>
      <point x="105" y="797" type="line"/>
      <point x="846" y="797" type="line"/>
      <point x="846" y="942" type="line"/>
    </contour>
  </outline>
</glyph>
<glyph name="uni0111" format="2">
  <advance width="1133"/>
  <unicode hex="0111"/>
  <anchor x="0" y="0" name="PB"/>
  <anchor x="0" y="0" name="def"/>
  <outline>
    <contour>
      <point x="458" y="1232" type="line"/>
      <point x="458" y="1043" type="line"/>
      <point x="714" y="1043" type="line"/>
      <point x="714" y="963" type="line"/>
      <point x="671" y="988"/>
      <point x="621" y="1004"/>
      <point x="557" y="1004" type="curve"/>
      <point x="288" y="1004"/>
      <point x="65" y="747"/>
      <point x="65" y="479" type="curve"/>
      <point x="65" y="209"/>
      <point x="246" y="-22"/>
      <point x="469" y="-22" type="curve"/>
      <point x="555" y="-22"/>
      <point x="640" y="5"/>
      <point x="714" y="49" type="curve"/>
      <point x="714" y="-22" type="line"/>
      <point x="817" y="-22" type="line"/>
      <point x="1133" y="123" type="line"/>
      <point x="1097" y="200" type="line"/>
      <point x="1047" y="167"/>
      <point x="1022" y="159"/>
      <point x="1013" y="159" type="curve"/>
      <point x="974" y="159"/>
      <point x="964" y="191"/>
      <point x="964" y="301" type="curve"/>
      <point x="964" y="1043" type="line"/>
      <point x="1173" y="1043" type="line"/>
      <point x="1173" y="1232" type="line"/>
      <point x="964" y="1232" type="line"/>
      <point x="964" y="1470" type="line"/>
      <point x="861" y="1470" type="line"/>
      <point x="551" y="1332" type="line"/>
      <point x="579" y="1255" type="line"/>
      <point x="639" y="1274"/>
      <point x="676" y="1285"/>
      <point x="692" y="1285" type="curve"/>
      <point x="706" y="1285"/>
      <point x="711" y="1268"/>
      <point x="713" y="1232" type="curve"/>
    </contour>
    <contour>
      <point x="568" y="123" type="curve" smooth="yes"/>
      <point x="437" y="123"/>
      <point x="335" y="307"/>
      <point x="335" y="533" type="curve"/>
      <point x="335" y="746"/>
      <point x="426" y="896"/>
      <point x="539" y="896" type="curve"/>
      <point x="626" y="896"/>
      <point x="714" y="802"/>
      <point x="714" y="664" type="curve"/>
      <point x="714" y="199" type="line"/>
      <point x="672" y="158"/>
      <point x="617" y="123"/>
    </contour>
  </outline>
</glyph>
<glyph name="dotlessi" format="2">
  <advance width="844"/>
  <unicode hex="0131"/>
  <anchor x="428" y="-110" name="LL"/>
  <anchor x="428" y="1350" name="LU"/>
  <anchor x="59" y="0" name="PB"/>
  <anchor x="59" y="0" name="def"/>
  <outline>
    <contour>
      <point x="272" y="1120" type="line"/>
      <point x="272" y="120" type="line"/>
      <point x="112" y="85" type="line"/>
      <point x="112" y="0" type="line"/>
      <point x="732" y="0" type="line"/>
      <point x="732" y="85" type="line"/>
      <point x="572" y="120" type="line"/>
      <point x="572" y="1240" type="line"/>
      <point x="112" y="1240" type="line"/>
      <point x="112" y="1155" type="line"/>
    </contour>
  </outline>
</glyph>
<glyph name="OE" format="2">
  <advance width="2117"/>
  <unicode hex="0152"/>
  <anchor x="1126" y="-110" name="LL"/>
  <anchor x="1126" y="1775" name="LU"/>
  <outline>
    <contour>
      <point x="1716" y="962" type="line"/>
      <point x="1182" y="962" type="line"/>
      <point x="1182" y="816" type="line"/>
      <point x="1716" y="816" type="line"/>
      <point x="1751" y="636" type="line"/>
      <point x="1866" y="636" type="line"/>
      <point x="1866" y="1142" type="line"/>
      <point x="1751" y="1142" type="line"/>
    </contour>
    <contour>
      <point x="1877" y="1505" type="line"/>
      <point x="1912" y="1305" type="line"/>
      <point x="2027" y="1305" type="line"/>
      <point x="2027" y="1650" type="line"/>
      <point x="1178" y="1650" type="line"/>
      <point x="1178" y="1505" type="line"/>
    </contour>
    <contour>
      <point x="1877" y="145" type="line"/>
      <point x="1183" y="145" type="line"/>
      <point x="1178" y="0" type="line"/>
      <point x="2027" y="0" type="line"/>
      <point x="2027" y="345" type="line"/>
      <point x="1912" y="345" type="line"/>
    </contour>
    <contour>
      <point x="1316" y="0" type="line"/>
      <point x="1316" y="1650" type="line"/>
      <point x="1001" y="1650" type="line"/>
      <point x="1001" y="0" type="line"/>
    </contour>
    <contour>
      <point x="1001" y="192" type="line"/>
      <point x="957" y="147"/>
      <point x="840" y="125"/>
      <point x="764" y="125" type="curve" smooth="yes"/>
      <point x="518" y="125"/>
      <point x="455" y="359"/>
      <point x="455" y="823" type="curve" smooth="yes"/>
      <point x="455" y="1287"/>
      <point x="518" y="1521"/>
      <point x="764" y="1521" type="curve" smooth="yes"/>
      <point x="841" y="1521"/>
      <point x="956" y="1498"/>
      <point x="1001" y="1452" type="curve"/>
      <point x="1001" y="1650" type="line"/>
      <point x="937" y="1664"/>
      <point x="844" y="1666"/>
      <point x="764" y="1666" type="curve" smooth="yes"/>
      <point x="309" y="1666"/>
      <point x="115" y="1462"/>
      <point x="115" y="823" type="curve" smooth="yes"/>
      <point x="115" y="184"/>
      <point x="309" y="-20"/>
      <point x="764" y="-20" type="curve" smooth="yes"/>
      <point x="838" y="-20"/>
      <point x="940" y="-12"/>
      <point x="1001" y="0" type="curve"/>
    </contour>
  </outline>
</glyph>
